<?xml version="1.0" encoding="utf-8" standalone="no"?>
<!DOCTYPE svg PUBLIC "-//W3C//DTD SVG 1.1//EN"
  "http://www.w3.org/Graphics/SVG/1.1/DTD/svg11.dtd">
<svg xmlns:xlink="http://www.w3.org/1999/xlink" width="720pt" height="360pt" viewBox="0 0 720 360" xmlns="http://www.w3.org/2000/svg" version="1.1">
 <metadata>
  <rdf:RDF xmlns:dc="http://purl.org/dc/elements/1.1/" xmlns:cc="http://creativecommons.org/ns#" xmlns:rdf="http://www.w3.org/1999/02/22-rdf-syntax-ns#">
   <cc:Work>
    <dc:type rdf:resource="http://purl.org/dc/dcmitype/StillImage"/>
    <dc:date>2026-07-02T09:39:28.985170</dc:date>
    <dc:format>image/svg+xml</dc:format>
    <dc:creator>
     <cc:Agent>
      <dc:title>Matplotlib v3.10.9, https://matplotlib.org/</dc:title>
     </cc:Agent>
    </dc:creator>
   </cc:Work>
  </rdf:RDF>
 </metadata>
 <defs>
  <style type="text/css">*{stroke-linejoin: round; stroke-linecap: butt}</style>
 </defs>
 <g id="figure_1">
  <g id="patch_1">
   <path d="M 0 360 
L 720 360 
L 720 0 
L 0 0 
z
" style="fill: #ffffff"/>
  </g>
  <g id="axes_1">
   <g id="patch_2">
    <path d="M 51.168125 316.481875 
L 709.2 316.481875 
L 709.2 10.8 
L 51.168125 10.8 
z
" style="fill: #ffffff"/>
   </g>
   <g id="matplotlib.axis_1">
    <g id="xtick_1">
     <g id="line2d_1">
      <path d="M 51.168125 316.481875 
L 51.168125 10.8 
" clip-path="url(#pd82f042fcc)" style="fill: none; stroke-dasharray: 2.96,1.28; stroke-dashoffset: 0; stroke: #b0b0b0; stroke-opacity: 0.5; stroke-width: 0.8"/>
     </g>
     <g id="line2d_2">
      <defs>
       <path id="m1ab49eed75" d="M 0 0 
L 0 3.5 
" style="stroke: #000000; stroke-width: 0.8"/>
      </defs>
      <g>
       <use xlink:href="#m1ab49eed75" x="51.168125" y="316.481875" style="stroke: #000000; stroke-width: 0.8"/>
      </g>
     </g>
     <g id="text_1">
      <!-- 0 -->
      <g transform="translate(48.397813 331.581875) scale(0.1 -0.1)">
       <defs>
        <path id="STHeitiTC-Medium-30" d="M 1747 5184 
Q 2502 5184 2944 4547 
Q 3386 3910 3386 2723 
Q 3386 1536 2938 902 
Q 2490 269 1738 269 
Q 986 269 573 893 
Q 160 1517 160 2729 
Q 160 3942 573 4563 
Q 986 5184 1747 5184 
z
M 1760 774 
Q 2285 774 2576 1283 
Q 2867 1792 2867 2726 
Q 2867 3661 2566 4160 
Q 2266 4659 1757 4659 
Q 1248 4659 966 4160 
Q 685 3661 685 2714 
Q 685 774 1760 774 
z
" transform="scale(0.015625)"/>
       </defs>
       <use xlink:href="#STHeitiTC-Medium-30"/>
      </g>
     </g>
    </g>
    <g id="xtick_2">
     <g id="line2d_3">
      <path d="M 161.576158 316.481875 
L 161.576158 10.8 
" clip-path="url(#pd82f042fcc)" style="fill: none; stroke-dasharray: 2.96,1.28; stroke-dashoffset: 0; stroke: #b0b0b0; stroke-opacity: 0.5; stroke-width: 0.8"/>
     </g>
     <g id="line2d_4">
      <g>
       <use xlink:href="#m1ab49eed75" x="161.576158" y="316.481875" style="stroke: #000000; stroke-width: 0.8"/>
      </g>
     </g>
     <g id="text_2">
      <!-- 50 -->
      <g transform="translate(156.035533 331.581875) scale(0.1 -0.1)">
       <defs>
        <path id="STHeitiTC-Medium-35" d="M 3194 4544 
L 1549 4544 
L 1338 3398 
Q 1613 3469 1856 3469 
Q 2477 3469 2893 3030 
Q 3309 2592 3309 1913 
Q 3309 1235 2861 752 
Q 2413 269 1664 269 
Q 1088 269 691 621 
Q 294 973 211 1587 
L 768 1587 
Q 851 1203 1107 998 
Q 1363 794 1690 794 
Q 2125 794 2438 1123 
Q 2752 1453 2752 1939 
Q 2752 2374 2480 2656 
Q 2208 2938 1747 2938 
Q 1286 2938 672 2675 
L 1120 5069 
L 3194 5069 
L 3194 4544 
z
" transform="scale(0.015625)"/>
       </defs>
       <use xlink:href="#STHeitiTC-Medium-35"/>
       <use xlink:href="#STHeitiTC-Medium-30" transform="translate(55.399994 0)"/>
      </g>
     </g>
    </g>
    <g id="xtick_3">
     <g id="line2d_5">
      <path d="M 271.98419 316.481875 
L 271.98419 10.8 
" clip-path="url(#pd82f042fcc)" style="fill: none; stroke-dasharray: 2.96,1.28; stroke-dashoffset: 0; stroke: #b0b0b0; stroke-opacity: 0.5; stroke-width: 0.8"/>
     </g>
     <g id="line2d_6">
      <g>
       <use xlink:href="#m1ab49eed75" x="271.98419" y="316.481875" style="stroke: #000000; stroke-width: 0.8"/>
      </g>
     </g>
     <g id="text_3">
      <!-- 100 -->
      <g transform="translate(263.673253 331.581875) scale(0.1 -0.1)">
       <defs>
        <path id="STHeitiTC-Medium-31" d="M 2131 384 
L 1587 384 
L 1587 4531 
L 826 4531 
L 1158 5069 
L 2131 5069 
L 2131 384 
z
" transform="scale(0.015625)"/>
       </defs>
       <use xlink:href="#STHeitiTC-Medium-31"/>
       <use xlink:href="#STHeitiTC-Medium-30" transform="translate(55.399994 0)"/>
       <use xlink:href="#STHeitiTC-Medium-30" transform="translate(110.799988 0)"/>
      </g>
     </g>
    </g>
    <g id="xtick_4">
     <g id="line2d_7">
      <path d="M 382.392223 316.481875 
L 382.392223 10.8 
" clip-path="url(#pd82f042fcc)" style="fill: none; stroke-dasharray: 2.96,1.28; stroke-dashoffset: 0; stroke: #b0b0b0; stroke-opacity: 0.5; stroke-width: 0.8"/>
     </g>
     <g id="line2d_8">
      <g>
       <use xlink:href="#m1ab49eed75" x="382.392223" y="316.481875" style="stroke: #000000; stroke-width: 0.8"/>
      </g>
     </g>
     <g id="text_4">
      <!-- 150 -->
      <g transform="translate(374.081286 331.581875) scale(0.1 -0.1)">
       <use xlink:href="#STHeitiTC-Medium-31"/>
       <use xlink:href="#STHeitiTC-Medium-35" transform="translate(55.399994 0)"/>
       <use xlink:href="#STHeitiTC-Medium-30" transform="translate(110.799988 0)"/>
      </g>
     </g>
    </g>
    <g id="xtick_5">
     <g id="line2d_9">
      <path d="M 492.800256 316.481875 
L 492.800256 10.8 
" clip-path="url(#pd82f042fcc)" style="fill: none; stroke-dasharray: 2.96,1.28; stroke-dashoffset: 0; stroke: #b0b0b0; stroke-opacity: 0.5; stroke-width: 0.8"/>
     </g>
     <g id="line2d_10">
      <g>
       <use xlink:href="#m1ab49eed75" x="492.800256" y="316.481875" style="stroke: #000000; stroke-width: 0.8"/>
      </g>
     </g>
     <g id="text_5">
      <!-- 200 -->
      <g transform="translate(484.489318 331.581875) scale(0.1 -0.1)">
       <defs>
        <path id="STHeitiTC-Medium-32" d="M 3360 384 
L 90 384 
L 1914 2355 
Q 2374 2842 2566 3123 
Q 2758 3405 2758 3763 
Q 2758 4122 2480 4390 
Q 2202 4659 1789 4659 
Q 1376 4659 1101 4368 
Q 826 4077 787 3539 
L 256 3539 
Q 288 4294 736 4739 
Q 1184 5184 1821 5184 
Q 2458 5184 2877 4771 
Q 3296 4358 3296 3763 
Q 3296 3328 3065 2950 
Q 2835 2573 2368 2074 
L 1293 915 
L 3360 915 
L 3360 384 
z
" transform="scale(0.015625)"/>
       </defs>
       <use xlink:href="#STHeitiTC-Medium-32"/>
       <use xlink:href="#STHeitiTC-Medium-30" transform="translate(55.399994 0)"/>
       <use xlink:href="#STHeitiTC-Medium-30" transform="translate(110.799988 0)"/>
      </g>
     </g>
    </g>
    <g id="xtick_6">
     <g id="line2d_11">
      <path d="M 603.208289 316.481875 
L 603.208289 10.8 
" clip-path="url(#pd82f042fcc)" style="fill: none; stroke-dasharray: 2.96,1.28; stroke-dashoffset: 0; stroke: #b0b0b0; stroke-opacity: 0.5; stroke-width: 0.8"/>
     </g>
     <g id="line2d_12">
      <g>
       <use xlink:href="#m1ab49eed75" x="603.208289" y="316.481875" style="stroke: #000000; stroke-width: 0.8"/>
      </g>
     </g>
     <g id="text_6">
      <!-- 250 -->
      <g transform="translate(594.897351 331.581875) scale(0.1 -0.1)">
       <use xlink:href="#STHeitiTC-Medium-32"/>
       <use xlink:href="#STHeitiTC-Medium-35" transform="translate(55.399994 0)"/>
       <use xlink:href="#STHeitiTC-Medium-30" transform="translate(110.799988 0)"/>
      </g>
     </g>
    </g>
    <g id="text_7">
     <!-- 测试时间 (秒) -->
     <g transform="translate(344.255313 347.542813) scale(0.12 -0.12)">
      <defs>
       <path id="STHeitiTC-Medium-6d4b" d="M 1446 4013 
Q 1261 4186 1072 4320 
Q 883 4454 653 4582 
L 954 4973 
Q 1152 4858 1360 4726 
Q 1568 4595 1773 4461 
L 1446 4013 
z
M 3590 1171 
L 3590 4218 
L 2336 4218 
L 2336 1088 
L 1850 1088 
Q 1875 1299 1888 1577 
Q 1901 1856 1901 2099 
L 1901 3770 
Q 1901 4019 1888 4281 
Q 1875 4544 1862 4730 
Q 1946 4710 2038 4697 
Q 2131 4685 2252 4675 
Q 2374 4666 2537 4662 
Q 2701 4659 2931 4659 
Q 3168 4659 3341 4662 
Q 3514 4666 3642 4675 
Q 3770 4685 3869 4697 
Q 3968 4710 4070 4730 
Q 4064 4653 4057 4541 
Q 4051 4429 4044 4297 
Q 4038 4166 4035 4028 
Q 4032 3891 4032 3770 
L 4032 2131 
Q 4032 1862 4048 1603 
Q 4064 1344 4083 1171 
L 3590 1171 
z
M 1318 2400 
Q 1146 2534 896 2675 
Q 646 2816 416 2912 
L 710 3405 
Q 941 3283 1184 3152 
Q 1427 3021 1619 2912 
L 1318 2400 
z
M 4378 941 
Q 4390 1043 4403 1171 
Q 4416 1299 4425 1430 
Q 4435 1562 4438 1690 
Q 4442 1818 4442 1926 
L 4442 3520 
Q 4442 3635 4435 3760 
Q 4429 3885 4419 4009 
Q 4410 4134 4397 4246 
Q 4384 4358 4371 4435 
Q 4499 4403 4633 4403 
Q 4768 4403 4890 4416 
Q 4954 4429 4960 4393 
Q 4966 4358 4909 4307 
Q 4877 4275 4877 4122 
L 4877 1933 
Q 4877 1722 4889 1440 
Q 4902 1158 4922 941 
L 4378 941 
z
M 5914 4922 
Q 5875 4890 5862 4851 
Q 5850 4813 5850 4736 
L 5850 77 
Q 5850 -122 5830 -237 
Q 5811 -352 5721 -429 
Q 5632 -506 5440 -557 
Q 5248 -608 4902 -672 
Q 4870 -512 4812 -352 
Q 4755 -192 4646 -13 
Q 4890 -38 5040 -35 
Q 5190 -32 5273 6 
Q 5357 45 5385 134 
Q 5414 224 5414 371 
L 5414 4102 
Q 5414 4397 5398 4669 
Q 5382 4941 5363 5094 
Q 5491 5069 5603 5062 
Q 5715 5056 5862 5062 
Q 5958 5069 5971 5021 
Q 5984 4973 5914 4922 
z
M 3232 3578 
Q 3187 3514 3187 3002 
Q 3187 2611 3184 2323 
Q 3181 2035 3168 1814 
Q 3155 1594 3136 1421 
Q 3117 1248 3085 1088 
Q 3014 749 2787 345 
Q 2560 -58 2067 -550 
Q 1952 -429 1814 -342 
Q 1677 -256 1536 -205 
Q 1856 13 2070 233 
Q 2285 454 2419 681 
Q 2554 909 2621 1149 
Q 2688 1389 2720 1651 
Q 2752 1978 2749 2483 
Q 2746 2989 2714 3725 
Q 2810 3699 2957 3692 
Q 3104 3686 3187 3699 
Q 3258 3712 3270 3673 
Q 3283 3635 3232 3578 
z
M 1594 1568 
Q 1568 1472 1545 1376 
Q 1523 1280 1494 1171 
Q 1466 1062 1427 928 
Q 1389 794 1338 614 
Q 1261 333 1184 25 
Q 1107 -282 1043 -602 
Q 877 -474 745 -400 
Q 614 -326 454 -256 
Q 563 -51 684 214 
Q 806 480 915 845 
Q 941 934 976 1056 
Q 1011 1178 1043 1306 
Q 1075 1434 1104 1565 
Q 1133 1696 1152 1811 
Q 1242 1715 1344 1657 
Q 1446 1600 1594 1568 
z
M 4058 -294 
Q 3827 32 3622 265 
Q 3418 499 3181 685 
L 3526 1030 
Q 3750 838 4000 595 
Q 4250 352 4454 102 
L 4058 -294 
z
" transform="scale(0.015625)"/>
       <path id="STHeitiTC-Medium-8bd5" d="M 1510 -147 
Q 1370 -314 1299 -419 
Q 1229 -525 1184 -634 
Q 1094 -506 960 -384 
Q 826 -262 710 -186 
Q 838 -58 892 80 
Q 947 218 947 429 
L 947 2618 
Q 800 2618 694 2614 
Q 589 2611 509 2608 
Q 429 2605 365 2598 
Q 301 2592 237 2586 
L 237 3168 
Q 365 3155 521 3145 
Q 678 3136 890 3136 
Q 1094 3136 1241 3145 
Q 1389 3155 1523 3168 
Q 1491 3021 1472 2803 
Q 1453 2586 1453 2368 
L 1453 531 
Q 1606 704 1715 851 
Q 1824 998 1952 1203 
Q 1997 1050 2073 928 
Q 2150 806 2253 717 
L 1510 -147 
z
M 1293 3635 
Q 1165 3878 998 4131 
Q 832 4384 627 4646 
L 1133 4960 
Q 1299 4736 1478 4483 
Q 1658 4230 1798 4006 
L 1293 3635 
z
M 5120 4051 
Q 5069 4218 4973 4400 
Q 4877 4582 4774 4710 
L 5280 4941 
Q 5402 4794 5501 4621 
Q 5600 4448 5664 4314 
L 5120 4051 
z
M 3283 653 
Q 3475 698 3670 746 
Q 3866 794 4077 858 
Q 4058 704 4048 595 
Q 4038 486 4051 339 
Q 3571 256 3129 131 
Q 2688 6 2285 -179 
Q 2259 6 2233 150 
Q 2208 294 2157 461 
Q 2330 486 2483 508 
Q 2637 531 2784 557 
L 2784 2163 
Q 2598 2157 2457 2150 
Q 2317 2144 2208 2112 
L 2208 2675 
Q 2355 2643 2531 2633 
Q 2707 2624 2976 2624 
Q 3245 2624 3427 2633 
Q 3610 2643 3750 2675 
L 3750 2112 
Q 3571 2157 3283 2157 
L 3283 653 
z
M 3904 3834 
Q 3872 4288 3849 4605 
Q 3827 4922 3821 5139 
Q 3891 5120 3984 5113 
Q 4077 5107 4169 5104 
Q 4262 5101 4345 5107 
Q 4429 5114 4486 5126 
Q 4589 5146 4601 5107 
Q 4614 5069 4518 4979 
Q 4448 4915 4432 4611 
Q 4416 4307 4442 3846 
Q 4922 3859 5264 3884 
Q 5606 3910 5824 3942 
L 5837 3334 
Q 5626 3366 5283 3369 
Q 4941 3373 4474 3360 
Q 4525 2637 4614 2086 
Q 4704 1536 4832 1203 
Q 4947 902 5040 697 
Q 5133 493 5206 371 
Q 5280 250 5337 198 
Q 5395 147 5440 154 
Q 5510 166 5568 323 
Q 5626 480 5664 883 
Q 5792 678 5910 569 
Q 6029 461 6157 371 
Q 6035 -51 5920 -278 
Q 5805 -506 5686 -582 
Q 5568 -659 5440 -614 
Q 5312 -570 5165 -442 
Q 4896 -211 4675 192 
Q 4454 595 4301 1088 
Q 4256 1235 4205 1468 
Q 4154 1702 4106 1996 
Q 4058 2291 4016 2636 
Q 3974 2982 3942 3354 
L 3450 3341 
Q 2470 3309 2022 3245 
L 2010 3853 
Q 2234 3821 2589 3817 
Q 2944 3814 3443 3827 
L 3904 3834 
z
" transform="scale(0.015625)"/>
       <path id="STHeitiTC-Medium-65f6" d="M 3488 1306 
Q 3450 1446 3398 1606 
Q 3347 1766 3289 1926 
Q 3232 2086 3171 2236 
Q 3110 2387 3053 2515 
L 3571 2694 
Q 3597 2560 3648 2406 
Q 3699 2253 3763 2096 
Q 3827 1939 3904 1788 
Q 3981 1638 4058 1510 
L 3488 1306 
z
M 4666 3731 
Q 4666 4301 4650 4646 
Q 4634 4992 4595 5197 
Q 4749 5178 4928 5168 
Q 5107 5158 5216 5165 
Q 5318 5171 5340 5136 
Q 5363 5101 5306 5069 
Q 5235 5030 5212 4969 
Q 5190 4909 5190 4819 
L 5190 3738 
Q 5408 3744 5600 3757 
Q 5792 3770 5958 3782 
L 5958 3194 
Q 5798 3213 5606 3222 
Q 5414 3232 5190 3238 
L 5190 19 
Q 5190 -166 5155 -288 
Q 5120 -410 4998 -483 
Q 4877 -557 4653 -601 
Q 4429 -646 4045 -678 
Q 4006 -288 3776 6 
Q 4064 -13 4240 -9 
Q 4416 -6 4512 16 
Q 4608 38 4637 86 
Q 4666 134 4666 211 
L 4666 3245 
L 3891 3245 
Q 3533 3245 3225 3232 
Q 2918 3219 2682 3194 
L 2682 3782 
Q 2912 3757 3225 3744 
Q 3539 3731 3891 3731 
L 4666 3731 
z
M 2010 4090 
L 979 4090 
L 979 2765 
L 2010 2765 
L 2010 4090 
z
M 2010 2317 
L 979 2317 
L 979 998 
L 2010 998 
L 2010 2317 
z
M 979 -288 
L 442 -288 
Q 474 -26 480 176 
Q 486 378 486 563 
L 486 3885 
Q 486 4051 480 4249 
Q 474 4448 448 4595 
Q 595 4563 835 4553 
Q 1075 4544 1498 4544 
Q 1914 4544 2157 4553 
Q 2400 4563 2541 4595 
Q 2515 4454 2508 4252 
Q 2502 4051 2502 3885 
L 2502 832 
Q 2502 608 2512 419 
Q 2522 230 2547 -13 
L 2010 -13 
L 2010 570 
L 979 570 
L 979 -288 
z
" transform="scale(0.015625)"/>
       <path id="STHeitiTC-Medium-95f4" d="M 1786 3898 
Q 1677 4186 1545 4410 
Q 1414 4634 1229 4851 
L 1741 5114 
Q 1926 4870 2064 4672 
Q 2202 4474 2342 4237 
L 1786 3898 
z
M 5715 4806 
Q 5702 4742 5699 4678 
Q 5696 4614 5693 4528 
Q 5690 4442 5690 4323 
Q 5690 4205 5690 4038 
L 5690 -51 
Q 5690 -256 5670 -371 
Q 5651 -486 5558 -553 
Q 5466 -621 5264 -659 
Q 5062 -698 4698 -742 
Q 4678 -576 4633 -432 
Q 4589 -288 4480 -96 
Q 4723 -128 4860 -134 
Q 4998 -141 5065 -112 
Q 5133 -83 5149 -9 
Q 5165 64 5165 198 
L 5165 4282 
L 3680 4282 
Q 3187 4282 2822 4243 
L 2822 4806 
Q 3206 4781 3539 4774 
Q 3872 4768 4275 4768 
Q 4672 4768 5024 4774 
Q 5376 4781 5715 4806 
z
M 4416 467 
Q 4326 474 4233 480 
Q 4141 486 4009 492 
Q 3878 499 3692 499 
Q 3507 499 3238 499 
Q 2970 499 2784 499 
Q 2598 499 2464 492 
Q 2330 486 2234 480 
Q 2138 474 2048 467 
Q 2061 525 2067 662 
Q 2074 800 2074 934 
L 2074 2950 
Q 2074 3078 2067 3216 
Q 2061 3354 2048 3411 
Q 2138 3398 2234 3395 
Q 2330 3392 2464 3385 
Q 2598 3379 2784 3379 
Q 2970 3379 3238 3379 
Q 3507 3379 3692 3379 
Q 3878 3379 4009 3385 
Q 4141 3392 4233 3395 
Q 4326 3398 4416 3411 
Q 4403 3354 4393 3216 
Q 4384 3078 4384 2950 
L 4384 934 
Q 4384 800 4393 662 
Q 4403 525 4416 467 
z
M 1318 3680 
Q 1280 3635 1280 3488 
L 1280 -678 
L 678 -678 
Q 710 -397 723 -137 
Q 736 122 736 448 
L 736 3117 
Q 736 3347 729 3536 
Q 723 3725 710 3898 
Q 877 3866 1001 3856 
Q 1126 3846 1229 3853 
Q 1472 3872 1318 3680 
z
M 3878 2970 
L 2573 2970 
L 2573 2176 
L 3878 2176 
L 3878 2970 
z
M 3878 1760 
L 2573 1760 
L 2573 934 
L 3878 934 
L 3878 1760 
z
" transform="scale(0.015625)"/>
       <path id="STHeitiTC-Medium-20" transform="scale(0.015625)"/>
       <path id="STHeitiTC-Medium-28" d="M 2048 5779 
Q 1709 5082 1526 4237 
Q 1344 3392 1344 2541 
Q 1344 877 1888 -442 
L 1312 -442 
Q 787 819 787 2483 
Q 787 4275 1440 5779 
L 2048 5779 
z
" transform="scale(0.015625)"/>
       <path id="STHeitiTC-Medium-79d2" d="M 4672 4915 
Q 4602 4883 4579 4838 
Q 4557 4794 4557 4723 
L 4557 1670 
Q 4557 1395 4355 1235 
Q 4154 1075 3654 1043 
Q 3642 1210 3578 1363 
Q 3514 1517 3398 1645 
Q 3610 1606 3738 1600 
Q 3866 1594 3933 1626 
Q 4000 1658 4022 1722 
Q 4045 1786 4045 1894 
L 4045 4237 
Q 4045 4435 4041 4566 
Q 4038 4698 4035 4790 
Q 4032 4883 4022 4944 
Q 4013 5005 4000 5069 
Q 4141 5050 4320 5040 
Q 4499 5030 4602 5037 
Q 4723 5037 4739 4995 
Q 4755 4954 4672 4915 
z
M 5722 2099 
Q 5792 2086 5789 2054 
Q 5786 2022 5715 1990 
Q 5690 1978 5658 1949 
Q 5626 1920 5574 1833 
Q 5523 1747 5440 1590 
Q 5357 1434 5222 1178 
Q 5030 806 4796 515 
Q 4563 224 4262 0 
Q 3962 -224 3571 -400 
Q 3181 -576 2682 -717 
Q 2554 -448 2221 -275 
Q 3027 -115 3622 192 
Q 4218 499 4518 947 
Q 4621 1101 4717 1280 
Q 4813 1459 4889 1641 
Q 4966 1824 5020 2003 
Q 5075 2182 5107 2336 
Q 5261 2253 5427 2189 
Q 5594 2125 5722 2099 
z
M 2669 1222 
Q 2605 1357 2518 1507 
Q 2432 1658 2336 1802 
Q 2240 1946 2144 2080 
Q 2048 2214 1965 2317 
L 2310 2624 
Q 2406 2502 2512 2358 
Q 2618 2214 2717 2067 
Q 2816 1920 2905 1776 
Q 2995 1632 3059 1517 
L 2669 1222 
z
M 3674 3622 
Q 3642 3590 3597 3472 
Q 3552 3354 3501 3130 
Q 3462 2944 3395 2720 
Q 3328 2496 3200 2163 
Q 3072 2214 2957 2240 
Q 2842 2266 2707 2278 
Q 2874 2675 2982 3078 
Q 3091 3482 3123 3840 
Q 3238 3795 3350 3779 
Q 3462 3763 3571 3770 
Q 3680 3776 3702 3721 
Q 3725 3667 3674 3622 
z
M 5645 2464 
Q 5453 2771 5229 3068 
Q 5005 3366 4768 3642 
L 5216 3923 
Q 5453 3654 5683 3379 
Q 5914 3104 6157 2790 
L 5645 2464 
z
M 1421 4320 
Q 1210 4282 1011 4250 
Q 813 4218 666 4198 
Q 634 4339 592 4444 
Q 550 4550 486 4659 
Q 602 4659 752 4675 
Q 902 4691 1049 4710 
Q 1197 4730 1337 4755 
Q 1478 4781 1574 4806 
Q 1798 4864 2032 4957 
Q 2266 5050 2451 5139 
Q 2502 4992 2572 4857 
Q 2643 4723 2714 4666 
Q 2790 4595 2784 4569 
Q 2778 4544 2682 4544 
Q 2662 4544 2633 4541 
Q 2605 4538 2528 4525 
Q 2451 4512 2304 4483 
Q 2157 4454 1901 4410 
L 1901 3552 
Q 2202 3558 2394 3568 
Q 2586 3578 2746 3610 
L 2746 3040 
Q 2586 3066 2397 3078 
Q 2208 3091 1901 3091 
L 1901 538 
Q 1901 301 1913 13 
Q 1926 -275 1952 -563 
L 1370 -563 
Q 1395 -275 1408 13 
Q 1421 301 1421 538 
L 1421 1984 
Q 1235 1523 1020 1139 
Q 806 755 570 467 
Q 422 749 237 973 
Q 410 1178 589 1427 
Q 768 1677 928 1949 
Q 1088 2221 1216 2496 
Q 1344 2771 1421 3027 
L 1421 3098 
Q 1222 3098 1072 3094 
Q 922 3091 797 3084 
Q 672 3078 573 3065 
Q 474 3053 384 3040 
L 384 3610 
Q 480 3597 579 3584 
Q 678 3571 800 3564 
Q 922 3558 1072 3555 
Q 1222 3552 1421 3552 
L 1421 4320 
z
" transform="scale(0.015625)"/>
       <path id="STHeitiTC-Medium-29" d="M 922 5779 
Q 1574 4275 1574 2483 
Q 1574 819 1050 -442 
L 474 -442 
Q 1018 877 1018 2541 
Q 1018 3392 835 4237 
Q 653 5082 314 5779 
L 922 5779 
z
" transform="scale(0.015625)"/>
      </defs>
      <use xlink:href="#STHeitiTC-Medium-6d4b"/>
      <use xlink:href="#STHeitiTC-Medium-8bd5" transform="translate(99.999985 0)"/>
      <use xlink:href="#STHeitiTC-Medium-65f6" transform="translate(199.999969 0)"/>
      <use xlink:href="#STHeitiTC-Medium-95f4" transform="translate(299.999954 0)"/>
      <use xlink:href="#STHeitiTC-Medium-20" transform="translate(399.999939 0)"/>
      <use xlink:href="#STHeitiTC-Medium-28" transform="translate(424.999924 0)"/>
      <use xlink:href="#STHeitiTC-Medium-79d2" transform="translate(461.899918 0)"/>
      <use xlink:href="#STHeitiTC-Medium-29" transform="translate(561.899902 0)"/>
     </g>
    </g>
   </g>
   <g id="matplotlib.axis_2">
    <g id="ytick_1">
     <g id="line2d_13">
      <path d="M 51.168125 263.939927 
L 709.2 263.939927 
" clip-path="url(#pd82f042fcc)" style="fill: none; stroke-dasharray: 2.96,1.28; stroke-dashoffset: 0; stroke: #b0b0b0; stroke-opacity: 0.5; stroke-width: 0.8"/>
     </g>
     <g id="line2d_14">
      <defs>
       <path id="m2d109f4231" d="M 0 0 
L -3.5 0 
" style="stroke: #000000; stroke-width: 0.8"/>
      </defs>
      <g>
       <use xlink:href="#m2d109f4231" x="51.168125" y="263.939927" style="stroke: #000000; stroke-width: 0.8"/>
      </g>
     </g>
     <g id="text_8">
      <!-- 20 -->
      <g transform="translate(33.086875 267.989927) scale(0.1 -0.1)">
       <use xlink:href="#STHeitiTC-Medium-32"/>
       <use xlink:href="#STHeitiTC-Medium-30" transform="translate(55.399994 0)"/>
      </g>
     </g>
    </g>
    <g id="ytick_2">
     <g id="line2d_15">
      <path d="M 51.168125 202.594979 
L 709.2 202.594979 
" clip-path="url(#pd82f042fcc)" style="fill: none; stroke-dasharray: 2.96,1.28; stroke-dashoffset: 0; stroke: #b0b0b0; stroke-opacity: 0.5; stroke-width: 0.8"/>
     </g>
     <g id="line2d_16">
      <g>
       <use xlink:href="#m2d109f4231" x="51.168125" y="202.594979" style="stroke: #000000; stroke-width: 0.8"/>
      </g>
     </g>
     <g id="text_9">
      <!-- 40 -->
      <g transform="translate(33.086875 206.644979) scale(0.1 -0.1)">
       <defs>
        <path id="STHeitiTC-Medium-34" d="M 3418 1453 
L 2861 1453 
L 2861 384 
L 2317 384 
L 2317 1453 
L 70 1453 
L 2701 5184 
L 2861 5184 
L 2861 1984 
L 3418 1984 
L 3418 1453 
z
M 2317 1984 
L 2317 3712 
L 1094 1984 
L 2317 1984 
z
" transform="scale(0.015625)"/>
       </defs>
       <use xlink:href="#STHeitiTC-Medium-34"/>
       <use xlink:href="#STHeitiTC-Medium-30" transform="translate(55.399994 0)"/>
      </g>
     </g>
    </g>
    <g id="ytick_3">
     <g id="line2d_17">
      <path d="M 51.168125 141.250032 
L 709.2 141.250032 
" clip-path="url(#pd82f042fcc)" style="fill: none; stroke-dasharray: 2.96,1.28; stroke-dashoffset: 0; stroke: #b0b0b0; stroke-opacity: 0.5; stroke-width: 0.8"/>
     </g>
     <g id="line2d_18">
      <g>
       <use xlink:href="#m2d109f4231" x="51.168125" y="141.250032" style="stroke: #000000; stroke-width: 0.8"/>
      </g>
     </g>
     <g id="text_10">
      <!-- 60 -->
      <g transform="translate(33.086875 145.300032) scale(0.1 -0.1)">
       <defs>
        <path id="STHeitiTC-Medium-36" d="M 1594 3098 
Q 1798 3155 1984 3155 
Q 2515 3155 2912 2732 
Q 3309 2310 3309 1708 
Q 3309 1107 2880 688 
Q 2451 269 1830 269 
Q 1210 269 797 691 
Q 384 1114 384 1722 
Q 384 2016 499 2326 
Q 614 2637 915 3085 
L 2336 5203 
L 2797 4915 
L 1594 3098 
z
M 1843 806 
Q 2221 806 2493 1075 
Q 2765 1344 2765 1728 
Q 2765 2112 2496 2381 
Q 2227 2650 1843 2650 
Q 1459 2650 1190 2381 
Q 922 2112 922 1728 
Q 922 1344 1194 1075 
Q 1466 806 1843 806 
z
" transform="scale(0.015625)"/>
       </defs>
       <use xlink:href="#STHeitiTC-Medium-36"/>
       <use xlink:href="#STHeitiTC-Medium-30" transform="translate(55.399994 0)"/>
      </g>
     </g>
    </g>
    <g id="ytick_4">
     <g id="line2d_19">
      <path d="M 51.168125 79.905084 
L 709.2 79.905084 
" clip-path="url(#pd82f042fcc)" style="fill: none; stroke-dasharray: 2.96,1.28; stroke-dashoffset: 0; stroke: #b0b0b0; stroke-opacity: 0.5; stroke-width: 0.8"/>
     </g>
     <g id="line2d_20">
      <g>
       <use xlink:href="#m2d109f4231" x="51.168125" y="79.905084" style="stroke: #000000; stroke-width: 0.8"/>
      </g>
     </g>
     <g id="text_11">
      <!-- 80 -->
      <g transform="translate(33.086875 83.955084) scale(0.1 -0.1)">
       <defs>
        <path id="STHeitiTC-Medium-38" d="M 2547 2950 
Q 3373 2522 3373 1747 
Q 3373 1114 2928 691 
Q 2483 269 1763 269 
Q 1043 269 608 691 
Q 173 1114 173 1709 
Q 173 2515 1018 2950 
Q 390 3315 390 3942 
Q 390 4435 800 4809 
Q 1210 5184 1782 5184 
Q 2355 5184 2758 4819 
Q 3162 4454 3162 3930 
Q 3162 3322 2547 2950 
z
M 1792 3181 
Q 2118 3181 2364 3411 
Q 2611 3642 2611 3939 
Q 2611 4237 2380 4445 
Q 2150 4653 1785 4653 
Q 1421 4653 1184 4445 
Q 947 4237 947 3939 
Q 947 3642 1203 3411 
Q 1459 3181 1792 3181 
z
M 1773 794 
Q 2234 794 2528 1069 
Q 2822 1344 2822 1728 
Q 2822 2112 2518 2393 
Q 2214 2675 1782 2675 
Q 1350 2675 1036 2384 
Q 723 2093 723 1699 
Q 723 1306 1014 1050 
Q 1306 794 1773 794 
z
" transform="scale(0.015625)"/>
       </defs>
       <use xlink:href="#STHeitiTC-Medium-38"/>
       <use xlink:href="#STHeitiTC-Medium-30" transform="translate(55.399994 0)"/>
      </g>
     </g>
    </g>
    <g id="ytick_5">
     <g id="line2d_21">
      <path d="M 51.168125 18.560136 
L 709.2 18.560136 
" clip-path="url(#pd82f042fcc)" style="fill: none; stroke-dasharray: 2.96,1.28; stroke-dashoffset: 0; stroke: #b0b0b0; stroke-opacity: 0.5; stroke-width: 0.8"/>
     </g>
     <g id="line2d_22">
      <g>
       <use xlink:href="#m2d109f4231" x="51.168125" y="18.560136" style="stroke: #000000; stroke-width: 0.8"/>
      </g>
     </g>
     <g id="text_12">
      <!-- 100 -->
      <g transform="translate(27.54625 22.610136) scale(0.1 -0.1)">
       <use xlink:href="#STHeitiTC-Medium-31"/>
       <use xlink:href="#STHeitiTC-Medium-30" transform="translate(55.399994 0)"/>
       <use xlink:href="#STHeitiTC-Medium-30" transform="translate(110.799988 0)"/>
      </g>
     </g>
    </g>
    <g id="text_13">
     <!-- 平均响应时间 (ms) -->
     <g transform="translate(21.950625 213.525313) rotate(-90) scale(0.12 -0.12)">
      <defs>
       <path id="STHeitiTC-Medium-5e73" d="M 1773 2240 
Q 1683 2605 1552 2918 
Q 1421 3232 1261 3482 
L 1779 3693 
Q 1939 3398 2070 3104 
Q 2202 2810 2330 2464 
L 1773 2240 
z
M 5274 3539 
Q 5350 3514 5344 3475 
Q 5338 3437 5267 3424 
Q 5235 3418 5174 3338 
Q 5114 3258 5062 3168 
Q 4902 2874 4774 2650 
Q 4646 2426 4499 2202 
Q 4378 2266 4237 2307 
Q 4096 2349 3962 2368 
Q 4243 2675 4406 3033 
Q 4570 3392 4666 3776 
Q 4832 3706 4998 3638 
Q 5165 3571 5274 3539 
z
M 3488 1882 
Q 4307 1882 4896 1894 
Q 5485 1907 5946 1939 
L 5946 1325 
Q 5485 1357 4896 1369 
Q 4307 1382 3488 1382 
L 3488 262 
Q 3488 45 3504 -224 
Q 3520 -493 3552 -762 
L 2880 -762 
Q 2906 -531 2922 -243 
Q 2938 45 2938 262 
L 2938 1382 
Q 2112 1382 1513 1366 
Q 915 1350 454 1325 
L 454 1939 
Q 928 1907 1520 1894 
Q 2112 1882 2938 1882 
L 2938 4269 
Q 2278 4262 1801 4249 
Q 1325 4237 954 4211 
L 954 4806 
Q 1363 4774 1900 4761 
Q 2438 4749 3200 4749 
Q 3962 4749 4496 4761 
Q 5030 4774 5440 4806 
L 5440 4211 
Q 5069 4237 4601 4249 
Q 4134 4262 3488 4269 
L 3488 1882 
z
" transform="scale(0.015625)"/>
       <path id="STHeitiTC-Medium-5747" d="M 3699 3584 
Q 3546 3258 3376 2960 
Q 3206 2662 2957 2285 
Q 2848 2368 2713 2425 
Q 2579 2483 2413 2534 
Q 2534 2656 2627 2774 
Q 2720 2893 2813 3037 
Q 2906 3181 3005 3376 
Q 3104 3571 3238 3853 
Q 3290 3968 3344 4121 
Q 3398 4275 3446 4444 
Q 3494 4614 3532 4790 
Q 3571 4966 3590 5126 
Q 3795 5062 3968 5027 
Q 4141 4992 4339 4960 
Q 4410 4947 4413 4915 
Q 4416 4883 4333 4832 
Q 4282 4800 4240 4752 
Q 4198 4704 4150 4614 
Q 4102 4525 4044 4384 
Q 3987 4243 3904 4038 
L 5062 4038 
Q 5338 4038 5587 4054 
Q 5837 4070 6003 4090 
L 5875 352 
Q 5862 38 5820 -157 
Q 5779 -352 5635 -470 
Q 5491 -589 5216 -646 
Q 4941 -704 4474 -749 
Q 4442 -557 4381 -400 
Q 4320 -243 4173 -45 
Q 4550 -83 4777 -70 
Q 5005 -58 5126 9 
Q 5248 77 5289 214 
Q 5331 352 5338 563 
L 5440 3584 
L 3699 3584 
z
M 5018 1216 
Q 4749 1107 4509 1011 
Q 4269 915 4038 816 
Q 3808 717 3581 611 
Q 3354 506 3110 390 
Q 3059 563 2995 713 
Q 2931 864 2848 1030 
Q 3123 1088 3379 1161 
Q 3635 1235 3894 1324 
Q 4154 1414 4426 1532 
Q 4698 1651 4998 1798 
Q 4986 1638 4989 1507 
Q 4992 1376 5018 1216 
z
M 4000 1811 
Q 3910 2054 3772 2304 
Q 3635 2554 3488 2714 
L 4026 2989 
Q 4128 2790 4275 2531 
Q 4422 2272 4550 2067 
L 4000 1811 
z
M 1824 998 
Q 2067 1069 2275 1149 
Q 2483 1229 2643 1299 
Q 2611 1146 2604 1018 
Q 2598 890 2611 723 
Q 2406 672 2156 595 
Q 1907 518 1641 416 
Q 1376 314 1117 195 
Q 858 77 627 -45 
Q 602 160 544 345 
Q 486 531 397 691 
Q 602 710 826 752 
Q 1050 794 1286 851 
L 1286 2995 
Q 1062 2995 873 2985 
Q 685 2976 557 2957 
L 557 3514 
Q 691 3494 876 3484 
Q 1062 3475 1286 3469 
Q 1286 3808 1283 4048 
Q 1280 4288 1277 4454 
Q 1274 4621 1264 4733 
Q 1254 4845 1248 4934 
Q 1395 4915 1555 4908 
Q 1715 4902 1882 4909 
Q 1958 4909 1968 4877 
Q 1978 4845 1907 4806 
Q 1862 4781 1843 4739 
Q 1824 4698 1824 4646 
L 1824 3469 
Q 2061 3475 2240 3484 
Q 2419 3494 2566 3514 
L 2566 2957 
Q 2426 2976 2246 2985 
Q 2067 2995 1824 3002 
L 1824 998 
z
" transform="scale(0.015625)"/>
       <path id="STHeitiTC-Medium-54cd" d="M 4429 2605 
L 3910 2605 
L 3910 1210 
L 4429 1210 
L 4429 2605 
z
M 4883 717 
Q 4755 736 4585 742 
Q 4416 749 4173 749 
Q 3930 749 3757 739 
Q 3584 730 3456 710 
Q 3482 1030 3488 1289 
Q 3494 1549 3494 1888 
Q 3494 2042 3494 2211 
Q 3494 2381 3488 2544 
Q 3482 2707 3475 2851 
Q 3469 2995 3456 3098 
Q 3590 3078 3756 3062 
Q 3923 3046 4173 3046 
Q 4416 3046 4582 3059 
Q 4749 3072 4883 3098 
Q 4870 2874 4864 2547 
Q 4858 2221 4858 1894 
Q 4858 1562 4864 1290 
Q 4870 1018 4883 717 
z
M 1075 851 
L 1075 -26 
L 544 -26 
Q 576 237 592 486 
Q 608 736 608 1005 
L 608 3738 
Q 608 3968 595 4201 
Q 582 4435 563 4544 
Q 762 4518 986 4508 
Q 1210 4499 1395 4499 
Q 1581 4499 1785 4508 
Q 1990 4518 2189 4544 
Q 2170 4416 2157 4211 
Q 2144 4006 2144 3738 
L 2144 1280 
Q 2144 1056 2150 848 
Q 2157 640 2189 397 
L 1683 397 
L 1683 851 
L 1075 851 
z
M 1683 1299 
L 1683 4038 
L 1075 4038 
L 1075 1299 
L 1683 1299 
z
M 3482 4250 
Q 3533 4506 3565 4736 
Q 3597 4966 3622 5229 
Q 3782 5178 3945 5152 
Q 4109 5126 4275 5126 
Q 4461 5126 4307 4986 
Q 4262 4947 4224 4892 
Q 4186 4838 4144 4755 
Q 4102 4672 4051 4550 
Q 4000 4429 3936 4250 
L 4602 4250 
Q 5152 4243 5440 4262 
Q 5728 4282 5850 4314 
Q 5830 4083 5824 3820 
Q 5818 3558 5818 3155 
L 5818 -115 
Q 5818 -230 5789 -310 
Q 5760 -390 5654 -451 
Q 5549 -512 5350 -566 
Q 5152 -621 4813 -685 
Q 4794 -550 4739 -406 
Q 4685 -262 4576 -58 
Q 4813 -70 4960 -60 
Q 5107 -51 5187 -22 
Q 5267 6 5292 64 
Q 5318 122 5318 211 
L 5318 3795 
L 3053 3795 
L 3053 -621 
L 2502 -621 
Q 2534 -282 2550 22 
Q 2566 326 2566 691 
L 2566 3155 
Q 2566 3354 2563 3517 
Q 2560 3680 2557 3817 
Q 2554 3955 2544 4073 
Q 2534 4192 2522 4314 
Q 2637 4288 2851 4272 
Q 3066 4256 3482 4250 
z
" transform="scale(0.015625)"/>
       <path id="STHeitiTC-Medium-5e94" d="M 2605 781 
Q 2566 966 2496 1193 
Q 2426 1421 2333 1661 
Q 2240 1901 2134 2141 
Q 2029 2381 1920 2598 
L 2438 2778 
Q 2624 2374 2813 1907 
Q 3002 1440 3162 998 
L 2605 781 
z
M 5920 3872 
Q 5830 3885 5680 3894 
Q 5530 3904 5331 3910 
Q 5133 3917 4896 3920 
Q 4659 3923 4403 3923 
L 1606 3923 
Q 1606 3245 1596 2729 
Q 1587 2214 1561 1811 
Q 1536 1408 1491 1091 
Q 1446 774 1366 492 
Q 1286 211 1168 -61 
Q 1050 -333 883 -646 
Q 749 -506 633 -419 
Q 518 -333 365 -262 
Q 538 -32 669 198 
Q 800 429 889 701 
Q 979 973 1027 1309 
Q 1075 1645 1091 2093 
Q 1107 2541 1084 3117 
Q 1062 3693 1018 4448 
Q 1158 4435 1366 4425 
Q 1574 4416 1878 4409 
Q 2182 4403 2601 4400 
Q 3021 4397 3584 4397 
Q 4141 4397 4544 4400 
Q 4947 4403 5225 4409 
Q 5504 4416 5667 4425 
Q 5830 4435 5920 4448 
L 5920 3872 
z
M 3622 1389 
Q 3610 1837 3507 2275 
Q 3405 2714 3206 3213 
L 3757 3354 
Q 3891 2893 4006 2413 
Q 4122 1933 4198 1510 
L 3622 1389 
z
M 3334 4435 
Q 3277 4621 3193 4819 
Q 3110 5018 3040 5126 
L 3712 5306 
Q 3763 5139 3814 4960 
Q 3866 4781 3923 4550 
L 3334 4435 
z
M 4506 186 
Q 4992 192 5360 205 
Q 5728 218 6035 250 
L 6035 -339 
Q 5632 -307 5104 -291 
Q 4576 -275 3821 -275 
Q 3424 -275 3101 -278 
Q 2778 -282 2509 -291 
Q 2240 -301 2016 -310 
Q 1792 -320 1594 -339 
L 1587 250 
Q 1798 230 2019 220 
Q 2240 211 2512 201 
Q 2784 192 3136 189 
Q 3488 186 3962 186 
Q 4115 397 4288 771 
Q 4461 1146 4621 1584 
Q 4781 2022 4909 2470 
Q 5037 2918 5094 3277 
Q 5267 3187 5452 3123 
Q 5638 3059 5747 3027 
Q 5837 3002 5843 2973 
Q 5850 2944 5766 2886 
Q 5715 2854 5638 2723 
Q 5562 2592 5472 2368 
Q 5389 2163 5267 1875 
Q 5146 1587 5011 1283 
Q 4877 979 4742 688 
Q 4608 397 4506 186 
z
" transform="scale(0.015625)"/>
       <path id="STHeitiTC-Medium-6d" d="M 5613 384 
L 5075 384 
L 5075 2285 
Q 5075 2739 5020 2950 
Q 4966 3162 4784 3306 
Q 4602 3450 4304 3450 
Q 4006 3450 3744 3258 
Q 3482 3066 3379 2736 
Q 3277 2406 3277 1760 
L 3277 384 
L 2758 384 
L 2758 2170 
Q 2758 2694 2704 2924 
Q 2650 3155 2464 3302 
Q 2278 3450 1996 3450 
Q 1715 3450 1462 3274 
Q 1210 3098 1088 2813 
Q 966 2528 966 1869 
L 966 384 
L 442 384 
L 442 3872 
L 966 3872 
L 966 3379 
Q 1414 3962 2086 3962 
Q 2451 3962 2748 3766 
Q 3046 3571 3174 3213 
Q 3392 3578 3718 3770 
Q 4045 3962 4410 3962 
Q 4909 3962 5261 3610 
Q 5613 3258 5613 2285 
L 5613 384 
z
" transform="scale(0.015625)"/>
       <path id="STHeitiTC-Medium-73" d="M 2259 3462 
L 1920 3110 
Q 1542 3462 1229 3462 
Q 1030 3462 896 3337 
Q 762 3213 762 3030 
Q 762 2848 912 2710 
Q 1062 2573 1446 2371 
Q 1830 2170 2038 1926 
Q 2246 1683 2246 1331 
Q 2246 883 1936 576 
Q 1626 269 1171 269 
Q 538 269 115 806 
L 448 1178 
Q 794 774 1152 774 
Q 1395 774 1568 934 
Q 1741 1094 1741 1308 
Q 1741 1523 1584 1667 
Q 1427 1811 1046 2003 
Q 666 2195 470 2428 
Q 275 2662 275 3043 
Q 275 3424 553 3693 
Q 832 3962 1289 3962 
Q 1747 3962 2259 3462 
z
" transform="scale(0.015625)"/>
      </defs>
      <use xlink:href="#STHeitiTC-Medium-5e73"/>
      <use xlink:href="#STHeitiTC-Medium-5747" transform="translate(99.999985 0)"/>
      <use xlink:href="#STHeitiTC-Medium-54cd" transform="translate(199.999969 0)"/>
      <use xlink:href="#STHeitiTC-Medium-5e94" transform="translate(299.999954 0)"/>
      <use xlink:href="#STHeitiTC-Medium-65f6" transform="translate(399.999939 0)"/>
      <use xlink:href="#STHeitiTC-Medium-95f4" transform="translate(499.999924 0)"/>
      <use xlink:href="#STHeitiTC-Medium-20" transform="translate(599.999908 0)"/>
      <use xlink:href="#STHeitiTC-Medium-28" transform="translate(624.999893 0)"/>
      <use xlink:href="#STHeitiTC-Medium-6d" transform="translate(661.899887 0)"/>
      <use xlink:href="#STHeitiTC-Medium-73" transform="translate(755.699875 0)"/>
      <use xlink:href="#STHeitiTC-Medium-29" transform="translate(794.499863 0)"/>
     </g>
    </g>
   </g>
   <g id="line2d_23">
    <path d="M 51.168125 270.687871 
L 62.208928 270.977952 
L 73.249732 266.208601 
L 84.290535 260.405112 
L 95.331338 262.435608 
L 106.372141 256.398107 
L 117.412945 244.279062 
L 128.453748 250.648522 
L 139.494551 254.553411 
L 150.535354 237.389677 
L 161.576158 231.937081 
L 172.616961 221.790011 
L 183.657764 202.632847 
L 194.698568 235.775379 
L 205.739371 211.59347 
L 216.780174 192.655545 
L 227.820977 156.159698 
L 238.861781 211.718074 
L 249.902584 229.710172 
L 260.943387 179.978649 
L 271.98419 198.442974 
L 283.024994 207.479855 
L 294.065797 246.15375 
L 305.1066 198.377514 
L 316.147404 195.518137 
L 327.188207 233.078117 
L 338.22901 250.963111 
L 349.269813 242.488247 
L 360.310617 245.704767 
L 371.35142 232.169303 
L 382.392223 208.088847 
L 393.433026 225.933586 
L 404.47383 215.662542 
L 415.514633 227.885657 
L 426.555436 254.044403 
L 437.59624 252.191791 
L 448.637043 225.499513 
L 459.677846 155.052645 
L 470.718649 185.68476 
L 481.759453 184.976564 
L 492.800256 203.357254 
L 503.841059 213.885461 
L 514.881862 249.571334 
L 525.922666 218.403101 
L 536.963469 172.386628 
L 548.004272 191.907242 
L 559.045076 236.598145 
L 570.085879 215.630781 
L 581.126682 217.031246 
L 592.167485 207.841587 
L 603.208289 202.516332 
L 614.249092 207.148222 
L 625.289895 182.433439 
L 636.330698 228.221922 
L 647.371502 215.240318 
L 658.412305 216.561909 
L 669.453108 209.789757 
L 680.493911 103.998534 
L 691.534715 216.083693 
L 702.575518 245.988208 
" clip-path="url(#pd82f042fcc)" style="fill: none; stroke: #1f77b4; stroke-width: 1.5; stroke-linecap: square"/>
   </g>
   <g id="line2d_24">
    <path d="M 51.168125 297.986373 
L 62.208928 301.487976 
L 73.249732 298.431992 
L 84.290535 294.407918 
L 95.331338 295.173483 
L 106.372141 291.280083 
L 117.412945 281.994443 
L 128.453748 283.455289 
L 139.494551 290.09418 
L 150.535354 277.218864 
L 161.576158 275.10075 
L 172.616961 266.67923 
L 183.657764 243.245246 
L 194.698568 270.504585 
L 205.739371 261.413959 
L 216.780174 254.523282 
L 227.820977 226.366147 
L 238.861781 247.302434 
L 249.902584 276.896724 
L 260.943387 251.053858 
L 271.98419 252.65024 
L 283.024994 257.805432 
L 294.065797 283.804865 
L 305.1066 249.016589 
L 316.147404 254.932315 
L 327.188207 269.088521 
L 338.22901 285.448526 
L 349.269813 284.866177 
L 360.310617 283.471367 
L 371.35142 271.268384 
L 382.392223 261.579181 
L 393.433026 265.687093 
L 404.47383 260.739321 
L 415.514633 273.268715 
L 426.555436 284.262793 
L 437.59624 292.165906 
L 448.637043 266.735393 
L 459.677846 242.137601 
L 470.718649 243.861688 
L 481.759453 259.46137 
L 492.800256 260.270185 
L 503.841059 260.999726 
L 514.881862 285.709417 
L 525.922666 273.825333 
L 536.963469 246.202358 
L 548.004272 254.198041 
L 559.045076 272.905727 
L 570.085879 273.856733 
L 581.126682 258.95565 
L 592.167485 259.433724 
L 603.208289 250.800797 
L 614.249092 268.869432 
L 625.289895 252.471089 
L 636.330698 264.140759 
L 647.371502 257.387996 
L 658.412305 264.895952 
L 669.453108 257.61492 
L 680.493911 238.978184 
L 691.534715 239.420651 
L 702.575518 282.599015 
" clip-path="url(#pd82f042fcc)" style="fill: none; stroke: #ff7f0e; stroke-width: 1.5; stroke-linecap: square"/>
   </g>
   <g id="line2d_25">
    <path d="M 51.168125 302.587244 
L 62.208928 300.901547 
L 73.249732 297.606181 
L 84.290535 293.971773 
L 95.331338 295.055859 
L 106.372141 290.950294 
L 117.412945 278.2855 
L 128.453748 283.201511 
L 139.494551 288.761911 
L 150.535354 276.437531 
L 161.576158 266.520904 
L 172.616961 259.850264 
L 183.657764 246.907683 
L 194.698568 265.067048 
L 205.739371 258.085973 
L 216.780174 236.556429 
L 227.820977 204.396719 
L 238.861781 248.051205 
L 249.902584 271.386317 
L 260.943387 237.849622 
L 271.98419 244.111075 
L 283.024994 256.058523 
L 294.065797 282.663309 
L 305.1066 248.530661 
L 316.147404 243.667656 
L 327.188207 261.110026 
L 338.22901 287.258398 
L 349.269813 273.852373 
L 360.310617 284.21682 
L 371.35142 263.610558 
L 382.392223 254.601429 
L 393.433026 261.267296 
L 404.47383 258.484886 
L 415.514633 266.495967 
L 426.555436 286.247181 
L 437.59624 286.741031 
L 448.637043 266.952402 
L 459.677846 226.549749 
L 470.718649 232.30291 
L 481.759453 243.884848 
L 492.800256 237.595471 
L 503.841059 253.131532 
L 514.881862 281.250705 
L 525.922666 275.329639 
L 536.963469 233.641508 
L 548.004272 233.209214 
L 559.045076 273.56159 
L 570.085879 261.725701 
L 581.126682 250.616571 
L 592.167485 251.140796 
L 603.208289 253.483402 
L 614.249092 254.025792 
L 625.289895 241.235037 
L 636.330698 263.657665 
L 647.371502 242.560483 
L 658.412305 262.270183 
L 669.453108 241.44678 
L 680.493911 208.224737 
L 691.534715 244.960172 
L 702.575518 284.811047 
" clip-path="url(#pd82f042fcc)" style="fill: none; stroke: #2ca02c; stroke-width: 1.5; stroke-linecap: square"/>
   </g>
   <g id="line2d_26">
    <path d="M 51.168125 24.694631 
L 709.2 24.694631 
" clip-path="url(#pd82f042fcc)" style="fill: none; stroke-dasharray: 1.5,2.475; stroke-dashoffset: 0; stroke: #ff0000; stroke-width: 1.5"/>
   </g>
   <g id="patch_3">
    <path d="M 51.168125 316.481875 
L 51.168125 10.8 
" style="fill: none; stroke: #000000; stroke-width: 0.8; stroke-linejoin: miter; stroke-linecap: square"/>
   </g>
   <g id="patch_4">
    <path d="M 709.2 316.481875 
L 709.2 10.8 
" style="fill: none; stroke: #000000; stroke-width: 0.8; stroke-linejoin: miter; stroke-linecap: square"/>
   </g>
   <g id="patch_5">
    <path d="M 51.168125 316.481875 
L 709.2 316.481875 
" style="fill: none; stroke: #000000; stroke-width: 0.8; stroke-linejoin: miter; stroke-linecap: square"/>
   </g>
   <g id="patch_6">
    <path d="M 51.168125 10.8 
L 709.2 10.8 
" style="fill: none; stroke: #000000; stroke-width: 0.8; stroke-linejoin: miter; stroke-linecap: square"/>
   </g>
   <g id="legend_1">
    <g id="patch_7">
     <path d="M 543.165625 77.36875 
L 702.2 77.36875 
Q 704.2 77.36875 704.2 75.36875 
L 704.2 17.8 
Q 704.2 15.8 702.2 15.8 
L 543.165625 15.8 
Q 541.165625 15.8 541.165625 17.8 
L 541.165625 75.36875 
Q 541.165625 77.36875 543.165625 77.36875 
z
" style="fill: #ffffff; opacity: 0.8; stroke: #cccccc; stroke-linejoin: miter"/>
    </g>
    <g id="line2d_27">
     <path d="M 545.165625 24.4 
L 555.165625 24.4 
L 565.165625 24.4 
" style="fill: none; stroke: #1f77b4; stroke-width: 1.5; stroke-linecap: square"/>
    </g>
    <g id="text_14">
     <!-- 分页查询AI预测结果 -->
     <g transform="translate(573.165625 27.9) scale(0.1 -0.1)">
      <defs>
       <path id="STHeitiTC-Medium-5206" d="M 6131 2669 
Q 5990 2579 5856 2400 
Q 5722 2221 5664 2054 
Q 5318 2310 5046 2550 
Q 4774 2790 4563 3049 
Q 4352 3309 4205 3606 
Q 4058 3904 3968 4282 
L 3597 4282 
Q 3373 4282 3142 4272 
Q 2912 4262 2726 4243 
L 2726 4768 
Q 2918 4749 3104 4736 
Q 3290 4723 3456 4723 
Q 3744 4723 3981 4732 
Q 4218 4742 4390 4768 
Q 4461 4352 4598 4035 
Q 4736 3718 4947 3472 
Q 5158 3226 5452 3034 
Q 5747 2842 6131 2669 
z
M 2470 4211 
Q 2374 4173 2278 4048 
Q 2182 3923 2131 3808 
Q 1971 3469 1836 3222 
Q 1702 2976 1555 2768 
Q 1408 2560 1222 2361 
Q 1037 2163 781 1920 
Q 691 2042 553 2147 
Q 416 2253 262 2330 
Q 877 2746 1267 3309 
Q 1658 3872 1888 4570 
Q 2035 4486 2185 4425 
Q 2336 4365 2464 4352 
Q 2541 4339 2544 4291 
Q 2547 4243 2470 4211 
z
M 2381 2074 
Q 2106 2074 1920 2064 
Q 1734 2054 1530 2029 
L 1530 2624 
Q 1683 2598 2016 2585 
Q 2349 2573 2854 2573 
Q 3155 2573 3481 2576 
Q 3808 2579 4096 2582 
Q 4384 2586 4614 2589 
Q 4845 2592 4954 2598 
L 4736 109 
Q 4717 -90 4659 -218 
Q 4602 -346 4470 -432 
Q 4339 -518 4121 -576 
Q 3904 -634 3565 -678 
Q 3533 -506 3462 -330 
Q 3392 -154 3270 6 
Q 3539 -19 3712 -12 
Q 3885 -6 3990 58 
Q 4096 122 4147 250 
Q 4198 378 4218 589 
L 4346 2074 
L 2912 2074 
Q 2880 1632 2777 1235 
Q 2675 838 2490 563 
Q 2336 339 2192 163 
Q 2048 -13 1894 -157 
Q 1741 -301 1568 -422 
Q 1395 -544 1184 -666 
Q 1075 -538 921 -426 
Q 768 -314 595 -243 
Q 1126 -26 1475 249 
Q 1824 525 1978 768 
Q 2163 1062 2259 1363 
Q 2355 1664 2381 2074 
z
" transform="scale(0.015625)"/>
       <path id="STHeitiTC-Medium-9875" d="M 5261 -698 
Q 5146 -570 4931 -410 
Q 4717 -250 4467 -86 
Q 4218 77 3958 221 
Q 3699 365 3494 461 
L 3846 922 
Q 4051 813 4297 681 
Q 4544 550 4793 409 
Q 5043 269 5283 128 
Q 5523 -13 5715 -134 
L 5261 -698 
z
M 3584 2406 
Q 3552 2381 3539 2285 
Q 3526 2189 3514 2048 
Q 3501 1830 3485 1660 
Q 3469 1491 3437 1344 
Q 3405 1197 3357 1059 
Q 3309 922 3238 774 
Q 2970 230 2358 -112 
Q 1747 -454 890 -646 
Q 819 -371 506 -83 
Q 915 -51 1296 48 
Q 1677 147 1981 300 
Q 2285 454 2493 665 
Q 2701 877 2771 1126 
Q 2861 1453 2902 1821 
Q 2944 2189 2925 2547 
Q 3085 2515 3261 2502 
Q 3437 2490 3539 2502 
Q 3629 2515 3635 2486 
Q 3642 2458 3584 2406 
z
M 3021 4269 
Q 2189 4269 1597 4256 
Q 1005 4243 557 4218 
L 557 4794 
Q 1043 4762 1676 4752 
Q 2310 4742 3226 4742 
Q 3686 4742 4067 4745 
Q 4448 4749 4774 4755 
Q 5101 4762 5376 4771 
Q 5651 4781 5894 4794 
L 5894 4218 
Q 5466 4243 4925 4256 
Q 4384 4269 3635 4269 
Q 3584 4090 3542 3882 
Q 3501 3674 3475 3488 
Q 3827 3488 4083 3491 
Q 4339 3494 4531 3497 
Q 4723 3501 4870 3510 
Q 5018 3520 5152 3533 
Q 5114 3347 5114 3040 
L 5114 1498 
Q 5114 1331 5123 1174 
Q 5133 1018 5158 870 
L 4538 870 
L 4538 3014 
L 1952 3014 
L 1952 806 
L 1338 806 
Q 1376 1094 1376 1434 
L 1376 3040 
Q 1376 3187 1369 3315 
Q 1363 3443 1344 3533 
Q 1472 3520 1859 3507 
Q 2246 3494 2938 3488 
Q 2970 3661 2989 3865 
Q 3008 4070 3021 4269 
z
" transform="scale(0.015625)"/>
       <path id="STHeitiTC-Medium-67e5" d="M 1805 1357 
L 1805 896 
L 4461 896 
L 4461 1357 
L 1805 1357 
z
M 4461 1741 
L 4461 2195 
L 1805 2195 
L 1805 1741 
L 4461 1741 
z
M 5741 -429 
Q 5504 -403 5235 -390 
Q 4966 -378 4649 -371 
Q 4333 -365 3961 -361 
Q 3590 -358 3142 -358 
Q 2694 -358 2320 -361 
Q 1946 -365 1629 -371 
Q 1312 -378 1046 -390 
Q 781 -403 544 -429 
L 544 122 
Q 781 102 1049 89 
Q 1318 77 1635 67 
Q 1952 58 2323 54 
Q 2694 51 3142 51 
Q 3590 51 3961 54 
Q 4333 58 4649 67 
Q 4966 77 5235 89 
Q 5504 102 5741 122 
L 5741 -429 
z
M 2886 4480 
Q 2880 4685 2861 4867 
Q 2842 5050 2822 5139 
Q 2989 5107 3136 5094 
Q 3283 5082 3450 5088 
Q 3654 5101 3507 4960 
Q 3437 4890 3405 4797 
Q 3373 4704 3373 4480 
Q 4166 4480 4745 4493 
Q 5325 4506 5754 4538 
L 5754 4045 
Q 5389 4077 4921 4086 
Q 4454 4096 3834 4102 
Q 4045 3834 4262 3648 
Q 4480 3462 4739 3334 
Q 4998 3206 5331 3126 
Q 5664 3046 6106 2989 
Q 6010 2886 5933 2723 
Q 5856 2560 5805 2426 
Q 5414 2522 5072 2653 
Q 4730 2784 4432 2979 
Q 4134 3174 3888 3449 
Q 3642 3725 3443 4102 
L 3373 4102 
L 3373 2592 
Q 3718 2592 3964 2595 
Q 4211 2598 4393 2604 
Q 4576 2611 4717 2620 
Q 4858 2630 4992 2643 
Q 4979 2579 4969 2492 
Q 4960 2406 4953 2313 
Q 4947 2221 4944 2128 
Q 4941 2035 4941 1971 
L 4941 1178 
Q 4941 1107 4944 1017 
Q 4947 928 4953 825 
Q 4960 723 4969 627 
Q 4979 531 4992 454 
Q 4845 467 4694 476 
Q 4544 486 4336 489 
Q 4128 493 3843 496 
Q 3558 499 3142 499 
Q 2726 499 2435 496 
Q 2144 493 1933 489 
Q 1722 486 1568 476 
Q 1414 467 1274 454 
Q 1306 589 1315 784 
Q 1325 979 1325 1178 
L 1325 2554 
Q 1178 2451 992 2339 
Q 806 2227 608 2118 
Q 563 2221 473 2358 
Q 384 2496 294 2605 
Q 582 2720 873 2880 
Q 1165 3040 1430 3232 
Q 1696 3424 1929 3641 
Q 2163 3859 2342 4102 
Q 1760 4096 1312 4086 
Q 864 4077 518 4045 
L 518 4538 
Q 954 4506 1530 4493 
Q 2106 4480 2886 4480 
z
M 2893 4102 
L 2797 4102 
Q 2682 3872 2554 3680 
Q 2426 3488 2266 3315 
Q 2106 3142 1901 2976 
Q 1696 2810 1434 2630 
Q 1549 2618 1683 2611 
Q 1818 2605 1987 2598 
Q 2157 2592 2377 2592 
Q 2598 2592 2893 2592 
L 2893 4102 
z
" transform="scale(0.015625)"/>
       <path id="STHeitiTC-Medium-8be2" d="M 1389 3821 
Q 1293 4077 1161 4320 
Q 1030 4563 832 4832 
L 1357 5094 
Q 1504 4845 1648 4595 
Q 1792 4346 1946 4096 
L 1389 3821 
z
M 4109 2067 
L 4109 2746 
L 3104 2746 
L 3104 2067 
L 4109 2067 
z
M 3104 1645 
L 3104 909 
L 4109 909 
L 4109 1645 
L 3104 1645 
z
M 4909 4237 
Q 5178 4237 5411 4253 
Q 5645 4269 5798 4301 
Q 5773 4115 5763 3948 
Q 5754 3782 5754 3597 
L 5754 294 
Q 5754 32 5712 -134 
Q 5670 -301 5552 -409 
Q 5434 -518 5213 -576 
Q 4992 -634 4634 -672 
Q 4627 -512 4569 -342 
Q 4512 -173 4403 -45 
Q 4698 -45 4867 -35 
Q 5037 -26 5123 19 
Q 5210 64 5235 160 
Q 5261 256 5261 422 
L 5261 3789 
L 3162 3789 
Q 3066 3622 2973 3468 
Q 2880 3315 2790 3174 
L 3616 3174 
Q 3923 3174 4192 3190 
Q 4461 3206 4627 3232 
Q 4602 3085 4592 2934 
Q 4582 2784 4582 2554 
L 4582 1018 
Q 4582 864 4585 749 
Q 4589 634 4592 531 
Q 4595 429 4604 336 
Q 4614 243 4627 134 
L 4109 134 
L 4109 486 
L 3104 486 
L 3104 -128 
L 2579 -128 
Q 2611 102 2620 310 
Q 2630 518 2630 762 
L 2630 2931 
Q 2547 2810 2470 2698 
Q 2394 2586 2310 2477 
Q 2202 2560 2080 2621 
Q 1958 2682 1830 2714 
Q 2042 2925 2243 3200 
Q 2445 3475 2624 3798 
Q 2803 4122 2950 4483 
Q 3098 4845 3206 5222 
Q 3354 5146 3546 5072 
Q 3738 4998 3878 4966 
Q 3949 4947 3949 4918 
Q 3949 4890 3866 4858 
Q 3827 4845 3792 4819 
Q 3757 4794 3709 4733 
Q 3661 4672 3590 4553 
Q 3520 4435 3405 4237 
L 4909 4237 
z
M 1056 2784 
Q 915 2784 812 2781 
Q 710 2778 627 2774 
Q 544 2771 477 2761 
Q 410 2752 339 2739 
L 339 3296 
Q 486 3270 627 3260 
Q 768 3251 973 3251 
Q 1229 3251 1357 3260 
Q 1485 3270 1606 3296 
Q 1574 3130 1555 2925 
Q 1536 2720 1536 2470 
L 1542 531 
Q 1690 678 1837 835 
Q 1984 992 2144 1178 
Q 2176 1024 2230 902 
Q 2285 781 2368 672 
L 1562 -141 
Q 1440 -262 1341 -384 
Q 1242 -506 1184 -608 
Q 1018 -320 768 -96 
Q 838 -45 915 6 
Q 992 58 1062 115 
L 1056 2784 
z
" transform="scale(0.015625)"/>
       <path id="STHeitiTC-Medium-41" d="M 4646 384 
L 4064 384 
L 3341 1952 
L 1408 1952 
L 691 384 
L 83 384 
L 2298 5254 
L 2464 5254 
L 4646 384 
z
M 3091 2509 
L 2381 4090 
L 1664 2509 
L 3091 2509 
z
" transform="scale(0.015625)"/>
       <path id="STHeitiTC-Medium-49" d="M 998 384 
L 448 384 
L 448 5069 
L 998 5069 
L 998 384 
z
" transform="scale(0.015625)"/>
       <path id="STHeitiTC-Medium-9884" d="M 5613 -646 
Q 5491 -512 5347 -368 
Q 5203 -224 5049 -83 
Q 4896 58 4739 186 
Q 4582 314 4435 416 
L 4768 838 
Q 5062 608 5379 349 
Q 5696 90 5990 -166 
L 5613 -646 
z
M 4659 2586 
Q 4634 2560 4595 2425 
Q 4557 2291 4550 2189 
Q 4544 2042 4534 1907 
Q 4525 1773 4515 1638 
Q 4506 1504 4486 1360 
Q 4467 1216 4442 1037 
Q 4352 461 3907 70 
Q 3462 -320 2688 -646 
Q 2611 -538 2499 -422 
Q 2387 -307 2227 -179 
Q 3104 45 3517 403 
Q 3930 762 3987 1293 
Q 4006 1498 4019 1677 
Q 4032 1856 4038 2025 
Q 4045 2195 4041 2361 
Q 4038 2528 4026 2714 
Q 4186 2682 4362 2666 
Q 4538 2650 4640 2662 
Q 4749 2675 4659 2586 
z
M 4032 4333 
Q 3686 4326 3430 4316 
Q 3174 4307 2963 4282 
L 2963 4838 
Q 3232 4806 3574 4793 
Q 3917 4781 4422 4781 
Q 4928 4781 5286 4793 
Q 5645 4806 5914 4838 
L 5914 4282 
Q 5670 4307 5353 4320 
Q 5037 4333 4608 4333 
Q 4550 4147 4496 3926 
Q 4442 3706 4390 3501 
Q 4851 3501 5158 3510 
Q 5466 3520 5690 3552 
Q 5670 3443 5660 3264 
Q 5651 3085 5651 2758 
L 5651 1613 
Q 5651 1389 5660 1200 
Q 5670 1011 5702 813 
L 5139 813 
L 5139 3085 
L 3494 3085 
L 3494 787 
L 2950 787 
Q 3008 1210 3008 1587 
L 3008 2758 
Q 3008 3046 2998 3228 
Q 2989 3411 2970 3552 
Q 3155 3526 3372 3516 
Q 3590 3507 3904 3501 
Q 3974 3712 4006 3913 
Q 4038 4115 4032 4333 
z
M 1786 -26 
Q 1786 -154 1754 -240 
Q 1722 -326 1626 -390 
Q 1530 -454 1360 -496 
Q 1190 -538 922 -570 
Q 909 -422 857 -284 
Q 806 -147 678 32 
Q 1005 -58 1139 -6 
Q 1274 45 1274 230 
L 1274 2496 
Q 704 2490 403 2458 
L 403 2976 
Q 570 2950 822 2940 
Q 1075 2931 1453 2931 
Q 1325 3123 1142 3321 
Q 960 3520 768 3674 
L 1120 3974 
Q 1216 3885 1315 3785 
Q 1414 3686 1510 3578 
L 1958 4307 
Q 1638 4307 1401 4304 
Q 1165 4301 998 4297 
Q 832 4294 720 4284 
Q 608 4275 544 4269 
L 544 4800 
Q 678 4774 976 4761 
Q 1274 4749 1658 4749 
Q 2035 4749 2323 4761 
Q 2611 4774 2739 4800 
Q 2637 4640 2534 4483 
Q 2432 4326 2323 4147 
Q 2214 3968 2083 3757 
Q 1952 3546 1792 3283 
Q 1843 3232 1884 3187 
Q 1926 3142 1971 3091 
L 1779 2931 
Q 2182 2938 2448 2954 
Q 2714 2970 2842 2989 
L 2554 1754 
L 2061 1850 
L 2278 2496 
L 1786 2496 
L 1786 -26 
z
" transform="scale(0.015625)"/>
       <path id="STHeitiTC-Medium-7ed3" d="M 2611 544 
Q 2573 435 2573 304 
Q 2573 173 2592 64 
Q 2131 -6 1811 -64 
Q 1491 -122 1264 -176 
Q 1037 -230 886 -281 
Q 736 -333 621 -390 
Q 608 -218 573 -70 
Q 538 77 461 275 
Q 608 269 784 278 
Q 960 288 1209 320 
Q 1459 352 1798 406 
Q 2138 461 2611 544 
z
M 1114 2694 
Q 973 2682 822 2653 
Q 672 2624 557 2573 
Q 538 2739 506 2860 
Q 474 2982 422 3104 
Q 538 3130 666 3283 
Q 794 3437 925 3696 
Q 1056 3955 1187 4313 
Q 1318 4672 1440 5114 
Q 1600 5005 1744 4921 
Q 1888 4838 1997 4806 
Q 2099 4774 2108 4736 
Q 2118 4698 2061 4666 
Q 2035 4646 1987 4588 
Q 1939 4531 1833 4364 
Q 1728 4198 1545 3894 
Q 1363 3590 1062 3091 
L 1824 3142 
Q 2080 3603 2202 3878 
Q 2330 3776 2454 3699 
Q 2579 3622 2650 3597 
Q 2810 3546 2650 3482 
Q 2630 3475 2569 3401 
Q 2509 3328 2365 3120 
Q 2221 2912 1971 2534 
Q 1722 2157 1325 1549 
Q 1485 1562 1638 1574 
Q 1792 1587 1945 1603 
Q 2099 1619 2265 1635 
Q 2432 1651 2618 1670 
Q 2573 1568 2550 1424 
Q 2528 1280 2541 1171 
L 1389 1075 
Q 1165 1056 1005 1024 
Q 845 992 672 934 
Q 659 1267 563 1504 
Q 653 1530 749 1584 
Q 845 1638 966 1769 
Q 1088 1901 1241 2131 
Q 1395 2362 1606 2739 
L 1114 2694 
z
M 3430 -109 
L 3430 -659 
L 2848 -659 
Q 2880 -416 2899 -147 
Q 2918 122 2918 314 
L 2918 1139 
Q 2918 1325 2905 1523 
Q 2893 1722 2874 1850 
Q 2989 1837 3097 1827 
Q 3206 1818 3360 1814 
Q 3514 1811 3731 1808 
Q 3949 1805 4275 1805 
Q 4576 1805 4781 1808 
Q 4986 1811 5133 1814 
Q 5280 1818 5389 1827 
Q 5498 1837 5613 1850 
Q 5594 1728 5581 1526 
Q 5568 1325 5568 1139 
L 5568 474 
Q 5568 378 5571 253 
Q 5574 128 5580 -9 
Q 5587 -147 5600 -291 
Q 5613 -435 5626 -563 
L 5056 -563 
L 5056 -109 
L 3430 -109 
z
M 5056 333 
L 5056 1363 
L 3430 1363 
L 3430 333 
L 5056 333 
z
M 4480 2886 
Q 4845 2893 5129 2905 
Q 5414 2918 5619 2950 
L 5619 2381 
Q 5139 2438 4211 2438 
Q 3744 2438 3424 2425 
Q 3104 2413 2848 2381 
L 2848 2950 
Q 3072 2918 3334 2905 
Q 3597 2893 3962 2886 
L 3962 3706 
Q 3123 3693 2643 3648 
L 2643 4237 
Q 2886 4205 3216 4192 
Q 3546 4179 3962 4173 
Q 3962 4550 3946 4787 
Q 3930 5024 3910 5152 
Q 3974 5139 4064 5129 
Q 4154 5120 4240 5113 
Q 4326 5107 4393 5107 
Q 4461 5107 4493 5107 
Q 4595 5120 4601 5078 
Q 4608 5037 4525 4986 
Q 4480 4954 4480 4845 
L 4480 4173 
Q 4947 4179 5331 4192 
Q 5715 4205 5971 4237 
L 5971 3648 
Q 5715 3674 5331 3686 
Q 4947 3699 4480 3706 
L 4480 2886 
z
" transform="scale(0.015625)"/>
       <path id="STHeitiTC-Medium-679c" d="M 3021 4397 
L 1696 4397 
L 1696 3712 
L 3021 3712 
L 3021 4397 
z
M 3526 2656 
L 4858 2656 
L 4858 3322 
L 3526 3322 
L 3526 2656 
z
M 1696 2656 
L 3021 2656 
L 3021 3322 
L 1696 3322 
L 1696 2656 
z
M 4858 4397 
L 3526 4397 
L 3526 3712 
L 4858 3712 
L 4858 4397 
z
M 2912 1299 
Q 2483 736 1974 304 
Q 1466 -128 800 -461 
Q 698 -275 589 -169 
Q 480 -64 294 32 
Q 608 128 886 243 
Q 1165 358 1424 512 
Q 1683 666 1926 858 
Q 2170 1050 2419 1299 
Q 1997 1299 1702 1292 
Q 1408 1286 1193 1280 
Q 979 1274 825 1264 
Q 672 1254 538 1242 
L 538 1754 
Q 691 1741 883 1731 
Q 1075 1722 1356 1718 
Q 1638 1715 2038 1708 
Q 2438 1702 3021 1702 
L 3021 2253 
Q 2304 2253 1859 2243 
Q 1414 2234 1146 2208 
Q 1171 2355 1180 2499 
Q 1190 2643 1190 2816 
L 1190 4275 
Q 1190 4454 1184 4604 
Q 1178 4755 1146 4883 
Q 1299 4864 1488 4851 
Q 1677 4838 1929 4828 
Q 2182 4819 2512 4812 
Q 2842 4806 3277 4806 
Q 3706 4806 4038 4812 
Q 4371 4819 4627 4828 
Q 4883 4838 5072 4851 
Q 5261 4864 5408 4883 
Q 5382 4749 5372 4611 
Q 5363 4474 5363 4275 
L 5363 2810 
Q 5363 2605 5376 2461 
Q 5389 2317 5408 2208 
Q 5146 2234 4656 2243 
Q 4166 2253 3526 2253 
L 3526 1702 
Q 4480 1702 5075 1715 
Q 5670 1728 5978 1754 
L 5978 1242 
Q 5715 1267 5209 1283 
Q 4704 1299 3994 1299 
Q 4211 1030 4441 854 
Q 4672 678 4931 566 
Q 5190 454 5481 396 
Q 5773 339 6099 320 
Q 5952 154 5875 -9 
Q 5798 -173 5766 -352 
Q 5299 -211 4972 -60 
Q 4646 90 4406 282 
Q 4166 474 3990 720 
Q 3814 966 3648 1299 
L 3526 1299 
L 3526 525 
Q 3526 256 3536 -54 
Q 3546 -365 3578 -717 
L 2963 -717 
Q 2995 -352 3008 -51 
Q 3021 250 3021 525 
L 3021 1299 
L 2912 1299 
z
" transform="scale(0.015625)"/>
      </defs>
      <use xlink:href="#STHeitiTC-Medium-5206"/>
      <use xlink:href="#STHeitiTC-Medium-9875" transform="translate(99.999985 0)"/>
      <use xlink:href="#STHeitiTC-Medium-67e5" transform="translate(199.999969 0)"/>
      <use xlink:href="#STHeitiTC-Medium-8be2" transform="translate(299.999954 0)"/>
      <use xlink:href="#STHeitiTC-Medium-41" transform="translate(399.999939 0)"/>
      <use xlink:href="#STHeitiTC-Medium-49" transform="translate(473.999924 0)"/>
      <use xlink:href="#STHeitiTC-Medium-9884" transform="translate(496.599915 0)"/>
      <use xlink:href="#STHeitiTC-Medium-6d4b" transform="translate(596.599899 0)"/>
      <use xlink:href="#STHeitiTC-Medium-7ed3" transform="translate(696.599884 0)"/>
      <use xlink:href="#STHeitiTC-Medium-679c" transform="translate(796.599869 0)"/>
     </g>
    </g>
    <g id="line2d_28">
     <path d="M 545.165625 38.920312 
L 555.165625 38.920312 
L 565.165625 38.920312 
" style="fill: none; stroke: #ff7f0e; stroke-width: 1.5; stroke-linecap: square"/>
    </g>
    <g id="text_15">
     <!-- 获取备件列表 -->
     <g transform="translate(573.165625 42.420312) scale(0.1 -0.1)">
      <defs>
       <path id="STHeitiTC-Medium-83b7" d="M 5037 2624 
Q 4973 2771 4889 2928 
Q 4806 3085 4704 3213 
L 5120 3437 
Q 5344 3200 5504 2912 
L 5037 2624 
z
M 3680 4563 
Q 3680 4685 3677 4768 
Q 3674 4851 3670 4918 
Q 3667 4986 3657 5040 
Q 3648 5094 3642 5158 
Q 3770 5146 3907 5146 
Q 4045 5146 4173 5158 
Q 4230 5165 4240 5133 
Q 4250 5101 4198 5069 
Q 4166 5043 4147 4988 
Q 4128 4934 4128 4877 
L 4128 4563 
Q 4659 4563 5104 4572 
Q 5549 4582 5869 4614 
L 5869 4064 
Q 5549 4096 5104 4109 
Q 4659 4122 4128 4122 
L 4128 3674 
L 3680 3674 
L 3680 4122 
L 2573 4122 
L 2573 3629 
L 2093 3629 
L 2093 4122 
Q 1587 4115 1158 4105 
Q 730 4096 422 4064 
L 422 4614 
Q 742 4582 1161 4572 
Q 1581 4563 2093 4563 
Q 2086 4749 2080 4851 
Q 2074 4954 2054 5062 
Q 2182 5050 2336 5050 
Q 2490 5050 2618 5062 
Q 2675 5069 2684 5037 
Q 2694 5005 2643 4973 
Q 2611 4947 2592 4892 
Q 2573 4838 2573 4781 
L 2573 4563 
L 3680 4563 
z
M 1645 2496 
Q 1459 2368 1235 2205 
Q 1011 2042 730 1837 
Q 666 1939 579 2035 
Q 493 2131 384 2208 
Q 621 2304 877 2448 
Q 1133 2592 1376 2778 
Q 1229 2906 1069 3021 
Q 909 3136 762 3219 
L 1043 3514 
Q 1210 3424 1389 3302 
Q 1568 3181 1722 3053 
Q 1856 3168 1977 3296 
Q 2099 3424 2208 3552 
Q 2323 3462 2416 3398 
Q 2509 3334 2656 3245 
Q 2739 3194 2742 3165 
Q 2746 3136 2643 3123 
Q 2605 3117 2467 3040 
Q 2330 2963 2010 2746 
Q 2336 2323 2445 1705 
Q 2554 1088 2426 371 
Q 2381 141 2304 -22 
Q 2227 -186 2089 -301 
Q 1952 -416 1744 -496 
Q 1536 -576 1229 -640 
Q 1197 -493 1139 -365 
Q 1082 -237 973 -70 
Q 1235 -58 1411 -16 
Q 1587 26 1699 99 
Q 1811 173 1868 288 
Q 1926 403 1958 570 
Q 2080 1261 1997 1734 
Q 1747 1376 1452 1040 
Q 1158 704 838 442 
Q 762 538 666 627 
Q 570 717 442 813 
Q 826 1056 1187 1392 
Q 1549 1728 1862 2150 
Q 1773 2342 1645 2496 
z
M 4141 1402 
Q 4090 1197 4038 1040 
Q 3987 883 3923 742 
Q 3802 474 3693 278 
Q 3584 83 3456 -77 
Q 3328 -237 3155 -390 
Q 2982 -544 2733 -723 
Q 2650 -608 2554 -515 
Q 2458 -422 2310 -333 
Q 2682 -102 2950 160 
Q 3219 422 3424 800 
Q 3565 1062 3638 1334 
Q 3712 1606 3750 2022 
Q 3392 2016 3110 2003 
Q 2829 1990 2605 1965 
L 2605 2522 
Q 2829 2496 3120 2480 
Q 3411 2464 3782 2458 
Q 3789 2643 3792 2787 
Q 3795 2931 3792 3049 
Q 3789 3168 3779 3264 
Q 3770 3360 3757 3450 
Q 3942 3418 4096 3411 
Q 4250 3405 4416 3418 
Q 4486 3424 4496 3398 
Q 4506 3373 4448 3328 
Q 4390 3283 4368 3212 
Q 4346 3142 4333 2976 
Q 4314 2694 4294 2458 
Q 4794 2458 5165 2474 
Q 5536 2490 5818 2522 
L 5818 1965 
Q 5530 1997 5152 2013 
Q 4774 2029 4262 2029 
Q 4429 1222 4893 720 
Q 5357 218 6010 0 
Q 5882 -154 5798 -294 
Q 5715 -435 5645 -595 
Q 5101 -326 4733 150 
Q 4365 627 4141 1402 
z
" transform="scale(0.015625)"/>
       <path id="STHeitiTC-Medium-53d6" d="M 2362 2944 
L 1338 2944 
L 1338 2080 
L 2362 2080 
L 2362 2944 
z
M 2362 1651 
L 1338 1651 
L 1338 704 
Q 1626 742 1882 790 
Q 2138 838 2362 890 
L 2362 1651 
z
M 2854 563 
Q 2854 230 2870 -54 
Q 2886 -339 2918 -666 
L 2298 -666 
Q 2330 -378 2342 -128 
Q 2355 122 2362 397 
Q 1869 301 1552 237 
Q 1235 173 1024 121 
Q 813 70 672 28 
Q 531 -13 397 -70 
Q 384 109 349 269 
Q 314 429 256 595 
Q 410 608 554 617 
Q 698 627 845 646 
L 845 4282 
Q 685 4275 547 4265 
Q 410 4256 307 4230 
L 307 4781 
Q 378 4768 480 4755 
Q 582 4742 745 4736 
Q 909 4730 1152 4726 
Q 1395 4723 1747 4723 
Q 2099 4723 2342 4726 
Q 2586 4730 2749 4736 
Q 2912 4742 3014 4755 
Q 3117 4768 3194 4781 
L 3194 4230 
Q 3117 4243 3033 4252 
Q 2950 4262 2854 4275 
L 2854 563 
z
M 2362 4288 
L 1338 4288 
L 1338 3373 
L 2362 3373 
L 2362 4288 
z
M 3974 4038 
Q 3981 3014 4112 2336 
Q 4243 1658 4422 1389 
Q 4723 2029 4841 2704 
Q 4960 3379 4992 4045 
Q 4666 4045 4419 4045 
Q 4173 4045 3974 4038 
z
M 3533 4032 
Q 3475 4026 3417 4026 
Q 3360 4026 3309 4019 
L 3309 4525 
Q 3578 4506 3882 4499 
Q 4186 4493 4550 4493 
Q 4730 4493 4874 4493 
Q 5018 4493 5146 4499 
Q 5274 4506 5395 4509 
Q 5517 4512 5645 4525 
Q 5555 3840 5462 3302 
Q 5370 2765 5264 2333 
Q 5158 1901 5036 1568 
Q 4915 1235 4774 966 
Q 4928 800 5078 681 
Q 5229 563 5392 476 
Q 5555 390 5737 329 
Q 5920 269 6144 224 
Q 6054 109 5996 19 
Q 5939 -70 5894 -140 
Q 5850 -211 5818 -281 
Q 5786 -352 5747 -429 
Q 5350 -211 5033 16 
Q 4717 243 4480 486 
Q 4256 160 4006 -93 
Q 3757 -346 3475 -576 
Q 3373 -467 3222 -352 
Q 3072 -237 2931 -160 
Q 3315 70 3616 323 
Q 3917 576 4147 902 
Q 4051 1114 3977 1290 
Q 3904 1466 3849 1651 
Q 3795 1837 3750 2048 
Q 3706 2259 3670 2534 
Q 3635 2810 3603 3174 
Q 3571 3539 3533 4032 
z
" transform="scale(0.015625)"/>
       <path id="STHeitiTC-Medium-5907" d="M 1830 691 
L 1830 115 
L 3027 115 
L 3027 691 
L 1830 691 
z
M 3027 1094 
L 3027 1632 
L 1830 1632 
L 1830 1094 
L 3027 1094 
z
M 4666 1094 
L 4666 1632 
L 3482 1632 
L 3482 1094 
L 4666 1094 
z
M 3482 691 
L 3482 115 
L 4666 115 
L 4666 691 
L 3482 691 
z
M 2221 4122 
Q 2445 3834 2723 3590 
Q 3002 3347 3251 3194 
Q 3635 3398 3897 3638 
Q 4160 3878 4365 4122 
L 2221 4122 
z
M 1939 3814 
Q 1754 3590 1594 3408 
Q 1434 3226 1274 3072 
Q 1203 3162 1088 3251 
Q 973 3341 832 3386 
Q 1286 3776 1680 4272 
Q 2074 4768 2298 5280 
Q 2451 5210 2649 5155 
Q 2848 5101 2976 5088 
Q 3059 5082 3052 5027 
Q 3046 4973 2970 4941 
Q 2842 4890 2723 4800 
Q 2605 4710 2470 4563 
L 4096 4563 
Q 4429 4563 4697 4572 
Q 4966 4582 5229 4614 
Q 5101 4352 4973 4137 
Q 4845 3923 4675 3728 
Q 4506 3533 4278 3347 
Q 4051 3162 3738 2950 
Q 4198 2778 4806 2688 
Q 5414 2598 6118 2630 
Q 6061 2541 6025 2467 
Q 5990 2394 5971 2323 
Q 5952 2253 5945 2182 
Q 5939 2112 5939 2029 
Q 4998 2118 4326 2294 
Q 3654 2470 3251 2682 
Q 2938 2534 2451 2361 
Q 1965 2189 1427 2035 
L 3667 2035 
Q 3885 2035 4080 2038 
Q 4275 2042 4457 2045 
Q 4640 2048 4819 2057 
Q 4998 2067 5184 2080 
Q 5165 1888 5165 1453 
L 5165 147 
Q 5165 -109 5171 -265 
Q 5178 -422 5197 -570 
L 4666 -570 
L 4666 -288 
L 1830 -288 
L 1830 -704 
L 1286 -704 
Q 1306 -531 1318 -352 
Q 1331 -173 1331 13 
L 1331 2010 
Q 1158 1958 985 1913 
Q 813 1869 627 1824 
Q 557 1984 473 2118 
Q 390 2253 282 2362 
Q 1037 2496 1664 2646 
Q 2291 2797 2784 2982 
Q 2515 3181 2304 3395 
Q 2093 3610 1939 3814 
z
" transform="scale(0.015625)"/>
       <path id="STHeitiTC-Medium-4ef6" d="M 1792 -691 
L 1222 -691 
Q 1254 -410 1276 -19 
Q 1299 371 1299 736 
L 1299 3014 
Q 1158 2771 1004 2528 
Q 851 2285 659 1997 
Q 589 2106 493 2221 
Q 397 2336 269 2445 
Q 422 2611 544 2771 
Q 666 2931 774 3100 
Q 883 3270 982 3452 
Q 1082 3635 1178 3846 
Q 1312 4147 1433 4480 
Q 1555 4813 1645 5101 
Q 1805 5030 1939 4982 
Q 2074 4934 2240 4890 
Q 2349 4864 2345 4819 
Q 2342 4774 2214 4691 
Q 2189 4672 2089 4499 
Q 1990 4326 1792 3923 
L 1792 -691 
z
M 2957 3110 
Q 2880 2874 2809 2694 
Q 2739 2515 2637 2278 
Q 2515 2323 2374 2358 
Q 2234 2394 2099 2413 
Q 2368 2874 2563 3482 
Q 2758 4090 2867 4755 
Q 2995 4704 3152 4659 
Q 3309 4614 3456 4582 
Q 3546 4563 3482 4480 
Q 3437 4416 3398 4342 
Q 3360 4269 3318 4166 
Q 3277 4064 3225 3920 
Q 3174 3776 3110 3565 
L 4032 3565 
L 4032 4154 
Q 4032 4486 4019 4742 
Q 4006 4998 3987 5126 
Q 4128 5107 4288 5104 
Q 4448 5101 4608 5114 
Q 4730 5120 4742 5072 
Q 4755 5024 4653 4960 
Q 4614 4934 4595 4816 
Q 4576 4698 4576 4467 
L 4576 3565 
Q 5018 3571 5360 3584 
Q 5702 3597 5882 3616 
L 5882 3046 
Q 5696 3066 5353 3085 
Q 5011 3104 4576 3110 
L 4576 1837 
Q 5075 1843 5452 1859 
Q 5830 1875 6125 1901 
L 6125 1293 
Q 5830 1325 5452 1344 
Q 5075 1363 4576 1370 
L 4576 467 
Q 4576 358 4579 214 
Q 4582 70 4592 -86 
Q 4602 -243 4611 -396 
Q 4621 -550 4634 -685 
L 3974 -685 
Q 4000 -461 4016 -141 
Q 4032 179 4032 467 
L 4032 1370 
Q 3475 1363 3040 1344 
Q 2605 1325 2298 1293 
L 2298 1901 
Q 2611 1875 3043 1859 
Q 3475 1843 4032 1837 
L 4032 3110 
L 2957 3110 
z
" transform="scale(0.015625)"/>
       <path id="STHeitiTC-Medium-5217" d="M 5837 4954 
Q 5792 4922 5779 4886 
Q 5766 4851 5766 4762 
L 5766 250 
Q 5766 6 5734 -147 
Q 5702 -301 5590 -397 
Q 5478 -493 5264 -553 
Q 5050 -614 4678 -678 
Q 4627 -346 4352 6 
Q 4653 -6 4829 0 
Q 5005 6 5097 51 
Q 5190 96 5216 179 
Q 5242 262 5242 397 
L 5242 4070 
Q 5242 4448 5232 4713 
Q 5222 4979 5210 5133 
Q 5338 5107 5501 5094 
Q 5664 5082 5779 5088 
Q 5875 5094 5888 5052 
Q 5901 5011 5837 4954 
z
M 4614 4154 
Q 4544 4109 4544 3949 
L 4544 1747 
Q 4544 1555 4550 1356 
Q 4557 1158 4576 934 
L 4013 934 
Q 4026 1171 4032 1363 
Q 4038 1555 4038 1747 
L 4038 3590 
Q 4038 3834 4032 4003 
Q 4026 4173 4013 4301 
Q 4160 4275 4310 4272 
Q 4461 4269 4582 4282 
Q 4666 4294 4675 4249 
Q 4685 4205 4614 4154 
z
M 3507 3379 
Q 3424 2656 3264 2067 
Q 3104 1478 2886 1062 
Q 2778 864 2602 643 
Q 2426 422 2198 208 
Q 1971 -6 1705 -208 
Q 1440 -410 1165 -576 
Q 1133 -531 1075 -467 
Q 1018 -403 950 -339 
Q 883 -275 812 -220 
Q 742 -166 691 -134 
Q 890 -58 1114 70 
Q 1338 198 1555 358 
Q 1773 518 1965 700 
Q 2157 883 2291 1069 
Q 2221 1146 2125 1248 
Q 2029 1350 1923 1449 
Q 1818 1549 1709 1641 
Q 1600 1734 1517 1798 
L 1888 2163 
Q 2061 2022 2224 1878 
Q 2387 1734 2560 1568 
Q 2637 1728 2691 1872 
Q 2746 2016 2790 2169 
Q 2835 2323 2867 2502 
Q 2899 2682 2931 2912 
L 1894 2912 
Q 1811 2714 1702 2506 
Q 1594 2298 1472 2096 
Q 1350 1894 1219 1708 
Q 1088 1523 966 1382 
Q 877 1491 752 1574 
Q 627 1658 493 1696 
Q 736 1907 941 2188 
Q 1146 2470 1306 2796 
Q 1466 3123 1571 3481 
Q 1677 3840 1728 4205 
Q 1363 4198 1097 4185 
Q 832 4173 608 4147 
L 608 4730 
Q 896 4698 1261 4682 
Q 1626 4666 2163 4666 
Q 2707 4666 3068 4682 
Q 3430 4698 3718 4730 
L 3718 4147 
Q 3443 4179 3097 4195 
Q 2752 4211 2246 4211 
Q 2202 3821 2054 3379 
L 3507 3379 
z
" transform="scale(0.015625)"/>
       <path id="STHeitiTC-Medium-8868" d="M 4070 1062 
Q 4301 1203 4461 1308 
Q 4621 1414 4736 1510 
Q 4851 1606 4934 1692 
Q 5018 1779 5094 1882 
Q 5139 1843 5206 1788 
Q 5274 1734 5344 1683 
Q 5414 1632 5478 1587 
Q 5542 1542 5581 1517 
Q 5658 1466 5645 1430 
Q 5632 1395 5523 1402 
Q 5478 1402 5408 1382 
Q 5338 1363 5203 1296 
Q 5069 1229 4851 1110 
Q 4634 992 4288 794 
Q 4563 512 5004 291 
Q 5446 70 5997 19 
Q 5824 -115 5696 -294 
Q 5568 -474 5542 -589 
Q 5024 -403 4611 -124 
Q 4198 154 3891 550 
Q 3680 819 3510 1110 
Q 3341 1402 3181 1715 
L 3629 1946 
Q 3699 1754 3801 1539 
Q 3904 1325 4070 1062 
z
M 2989 3981 
Q 2573 3981 2243 3977 
Q 1914 3974 1638 3968 
Q 1363 3962 1126 3952 
Q 890 3942 666 3930 
L 666 4461 
Q 896 4448 1136 4438 
Q 1376 4429 1648 4425 
Q 1920 4422 2246 4419 
Q 2573 4416 2989 4416 
Q 2982 4672 2969 4861 
Q 2957 5050 2944 5152 
Q 3027 5139 3123 5126 
Q 3219 5114 3305 5107 
Q 3392 5101 3465 5097 
Q 3539 5094 3578 5094 
Q 3648 5101 3670 5072 
Q 3693 5043 3616 4986 
Q 3565 4954 3536 4848 
Q 3507 4742 3507 4653 
L 3507 4416 
Q 4262 4416 4841 4429 
Q 5421 4442 5843 4461 
L 5843 3930 
Q 5421 3955 4841 3968 
Q 4262 3981 3507 3981 
L 3507 3456 
Q 3866 3456 4134 3459 
Q 4403 3462 4624 3468 
Q 4845 3475 5037 3488 
Q 5229 3501 5440 3514 
L 5440 3008 
Q 5229 3021 5037 3030 
Q 4845 3040 4624 3043 
Q 4403 3046 4134 3049 
Q 3866 3053 3507 3053 
L 3507 2554 
Q 4045 2554 4397 2557 
Q 4749 2560 5011 2566 
Q 5274 2573 5510 2582 
Q 5747 2592 6054 2611 
L 6054 2099 
Q 5715 2112 5468 2121 
Q 5222 2131 4944 2134 
Q 4666 2138 4288 2141 
Q 3910 2144 3302 2144 
Q 3142 1920 2908 1677 
Q 2675 1434 2387 1190 
L 2387 -32 
L 3571 454 
Q 3552 173 3654 -19 
Q 3328 -141 3027 -259 
Q 2726 -378 2480 -483 
Q 2234 -589 2051 -675 
Q 1869 -762 1773 -813 
Q 1734 -685 1660 -544 
Q 1587 -403 1504 -301 
Q 1702 -269 1914 -205 
L 1914 838 
Q 1581 614 1254 438 
Q 928 262 704 173 
Q 621 378 541 499 
Q 461 621 339 723 
Q 634 768 950 893 
Q 1267 1018 1574 1200 
Q 1882 1382 2163 1622 
Q 2445 1862 2675 2144 
Q 2195 2144 1888 2141 
Q 1581 2138 1353 2134 
Q 1126 2131 924 2121 
Q 723 2112 448 2099 
L 448 2611 
Q 646 2598 806 2588 
Q 966 2579 1116 2572 
Q 1267 2566 1433 2563 
Q 1600 2560 1814 2557 
Q 2029 2554 2313 2554 
Q 2598 2554 2989 2554 
L 2989 3053 
Q 2643 3053 2374 3049 
Q 2106 3046 1882 3043 
Q 1658 3040 1459 3030 
Q 1261 3021 1056 3008 
L 1056 3514 
Q 1267 3501 1462 3488 
Q 1658 3475 1882 3468 
Q 2106 3462 2374 3459 
Q 2643 3456 2989 3456 
L 2989 3981 
z
" transform="scale(0.015625)"/>
      </defs>
      <use xlink:href="#STHeitiTC-Medium-83b7"/>
      <use xlink:href="#STHeitiTC-Medium-53d6" transform="translate(99.999985 0)"/>
      <use xlink:href="#STHeitiTC-Medium-5907" transform="translate(199.999969 0)"/>
      <use xlink:href="#STHeitiTC-Medium-4ef6" transform="translate(299.999954 0)"/>
      <use xlink:href="#STHeitiTC-Medium-5217" transform="translate(399.999939 0)"/>
      <use xlink:href="#STHeitiTC-Medium-8868" transform="translate(499.999924 0)"/>
     </g>
    </g>
    <g id="line2d_29">
     <path d="M 545.165625 53.35 
L 555.165625 53.35 
L 565.165625 53.35 
" style="fill: none; stroke: #2ca02c; stroke-width: 1.5; stroke-linecap: square"/>
    </g>
    <g id="text_16">
     <!-- 获取采购订单数据 -->
     <g transform="translate(573.165625 56.85) scale(0.1 -0.1)">
      <defs>
       <path id="STHeitiTC-Medium-91c7" d="M 1555 2637 
Q 1504 2886 1408 3184 
Q 1312 3482 1222 3699 
L 1747 3853 
Q 1888 3520 1968 3277 
Q 2048 3034 2106 2784 
L 1555 2637 
z
M 5299 3693 
Q 5242 3654 5152 3555 
Q 5062 3456 4950 3309 
Q 4838 3162 4713 2979 
Q 4589 2797 4467 2586 
Q 4378 2643 4246 2710 
Q 4115 2778 3949 2829 
Q 4173 3123 4361 3456 
Q 4550 3789 4653 4083 
Q 4723 4051 4822 4006 
Q 4922 3962 5018 3923 
Q 5114 3885 5187 3856 
Q 5261 3827 5280 3821 
Q 5363 3795 5366 3769 
Q 5370 3744 5299 3693 
z
M 2874 2976 
Q 2848 3488 2707 3962 
L 3290 4038 
Q 3360 3808 3414 3552 
Q 3469 3296 3501 3046 
L 2874 2976 
z
M 5466 4576 
Q 5536 4512 5523 4473 
Q 5510 4435 5421 4448 
Q 5197 4474 4665 4435 
Q 4134 4397 3411 4282 
Q 3149 4243 2883 4204 
Q 2618 4166 2323 4131 
Q 2029 4096 1702 4064 
Q 1376 4032 998 4006 
Q 966 4141 908 4297 
Q 851 4454 794 4576 
Q 1011 4570 1251 4576 
Q 1491 4582 1779 4601 
Q 2067 4621 2419 4659 
Q 2771 4698 3213 4749 
Q 3546 4787 3814 4828 
Q 4083 4870 4307 4912 
Q 4531 4954 4720 5002 
Q 4909 5050 5094 5101 
Q 5158 4960 5260 4816 
Q 5363 4672 5466 4576 
z
M 3456 371 
Q 3456 96 3465 -189 
Q 3475 -474 3494 -698 
L 2867 -698 
Q 2899 -442 2908 -179 
Q 2918 83 2918 371 
L 2918 1754 
L 2848 1754 
Q 2707 1414 2512 1123 
Q 2317 832 2064 573 
Q 1811 314 1488 80 
Q 1165 -154 774 -384 
Q 685 -256 547 -137 
Q 410 -19 262 51 
Q 979 339 1510 761 
Q 2042 1184 2374 1747 
Q 1594 1741 1136 1721 
Q 678 1702 442 1683 
L 442 2214 
Q 576 2202 781 2192 
Q 986 2182 1286 2176 
Q 1587 2170 1990 2166 
Q 2394 2163 2912 2163 
Q 2899 2310 2886 2438 
Q 2874 2566 2861 2656 
Q 3008 2637 3197 2627 
Q 3386 2618 3514 2630 
Q 3610 2643 3622 2611 
Q 3635 2579 3558 2509 
Q 3526 2477 3497 2381 
Q 3469 2285 3456 2163 
Q 3981 2163 4381 2166 
Q 4781 2170 5081 2176 
Q 5382 2182 5587 2192 
Q 5792 2202 5926 2214 
L 5926 1702 
Q 5683 1722 5193 1734 
Q 4704 1747 3866 1754 
Q 4109 1491 4345 1292 
Q 4582 1094 4848 947 
Q 5114 800 5424 697 
Q 5734 595 6131 531 
Q 6010 378 5910 182 
Q 5811 -13 5773 -141 
Q 5094 90 4496 544 
Q 3898 998 3456 1722 
L 3456 371 
z
" transform="scale(0.015625)"/>
       <path id="STHeitiTC-Medium-8d2d" d="M 2707 -307 
Q 2522 -26 2326 214 
Q 2131 454 1920 640 
L 2272 922 
Q 2509 710 2717 486 
Q 2925 262 3136 -13 
L 2707 -307 
z
M 2086 3661 
Q 2067 3629 2048 3529 
Q 2029 3430 2029 3283 
Q 2029 2835 2013 2361 
Q 1997 1888 1958 1408 
Q 1939 1165 1852 905 
Q 1766 646 1622 393 
Q 1478 141 1280 -102 
Q 1082 -346 845 -550 
Q 736 -429 633 -352 
Q 531 -275 358 -186 
Q 691 -6 905 205 
Q 1120 416 1251 640 
Q 1382 864 1443 1094 
Q 1504 1325 1523 1549 
Q 1574 2131 1580 2681 
Q 1587 3232 1536 3827 
Q 1702 3795 1830 3782 
Q 1958 3770 2029 3770 
Q 2118 3770 2128 3750 
Q 2138 3731 2086 3661 
z
M 2419 1178 
L 2419 4256 
L 1184 4256 
L 1184 1005 
L 685 1005 
Q 698 1152 710 1309 
Q 723 1466 723 1632 
L 723 4243 
Q 723 4390 713 4521 
Q 704 4653 691 4742 
Q 845 4730 1107 4726 
Q 1370 4723 1766 4723 
Q 2144 4723 2448 4726 
Q 2752 4730 2899 4742 
Q 2880 4557 2880 4243 
L 2880 1805 
Q 2880 1638 2886 1478 
Q 2893 1318 2906 1178 
L 2419 1178 
z
M 4614 1274 
Q 4570 1498 4525 1706 
Q 4480 1914 4429 2067 
L 4832 2157 
Q 4941 1766 5027 1411 
Q 5114 1056 5197 672 
L 4730 538 
Q 4717 627 4707 713 
Q 4698 800 4685 890 
L 3776 736 
Q 3674 717 3549 681 
Q 3424 646 3315 595 
Q 3302 749 3270 854 
Q 3238 960 3174 1088 
Q 3264 1120 3312 1187 
Q 3360 1254 3411 1370 
Q 3514 1626 3597 1843 
Q 3680 2061 3741 2269 
Q 3802 2477 3843 2681 
Q 3885 2886 3917 3117 
Q 4083 3066 4240 3034 
Q 4397 3002 4474 2989 
Q 4640 2970 4506 2842 
Q 4461 2803 4393 2678 
Q 4326 2554 4288 2445 
Q 4134 2022 4000 1724 
Q 3866 1427 3718 1152 
L 4614 1274 
z
M 4998 4109 
Q 5242 4109 5536 4121 
Q 5830 4134 6035 4154 
L 5901 282 
Q 5894 51 5849 -125 
Q 5805 -301 5670 -419 
Q 5536 -538 5289 -602 
Q 5043 -666 4634 -672 
Q 4582 -493 4528 -358 
Q 4474 -224 4384 -70 
Q 4659 -109 4854 -105 
Q 5050 -102 5171 -41 
Q 5293 19 5347 134 
Q 5402 250 5408 435 
L 5504 3674 
L 3872 3674 
Q 3731 3373 3603 3158 
Q 3475 2944 3309 2714 
Q 3245 2778 3139 2838 
Q 3034 2899 2918 2931 
Q 3302 3424 3597 4186 
Q 3667 4365 3721 4617 
Q 3776 4870 3802 5139 
Q 3974 5062 4134 5024 
Q 4294 4986 4442 4973 
Q 4550 4960 4435 4838 
Q 4384 4787 4288 4611 
Q 4192 4435 4051 4109 
L 4998 4109 
z
" transform="scale(0.015625)"/>
       <path id="STHeitiTC-Medium-8ba2" d="M 1728 -294 
Q 1632 -384 1565 -445 
Q 1498 -506 1453 -554 
Q 1408 -602 1379 -640 
Q 1350 -678 1325 -723 
Q 1216 -531 1120 -384 
Q 1024 -237 896 -96 
Q 1043 0 1120 144 
Q 1197 288 1197 525 
L 1197 2682 
Q 870 2682 649 2669 
Q 429 2656 282 2630 
L 282 3283 
Q 429 3264 614 3251 
Q 800 3238 1037 3238 
Q 1261 3238 1437 3248 
Q 1613 3258 1798 3283 
Q 1766 3142 1747 2924 
Q 1728 2707 1728 2490 
L 1728 397 
Q 1818 480 1930 592 
Q 2042 704 2157 822 
Q 2272 941 2387 1062 
Q 2502 1184 2598 1293 
Q 2630 1094 2694 915 
Q 2758 736 2810 666 
L 1728 -294 
z
M 1549 3667 
Q 1459 3936 1296 4243 
Q 1133 4550 934 4832 
L 1472 5075 
Q 1645 4806 1827 4508 
Q 2010 4211 2150 3955 
L 1549 3667 
z
M 4998 243 
Q 4998 -19 4966 -179 
Q 4934 -339 4812 -435 
Q 4691 -531 4451 -585 
Q 4211 -640 3789 -691 
Q 3782 -538 3734 -387 
Q 3686 -237 3565 6 
Q 3859 -13 4028 -6 
Q 4198 0 4284 35 
Q 4371 70 4396 137 
Q 4422 205 4422 314 
L 4422 4058 
Q 3795 4058 3283 4042 
Q 2771 4026 2515 4006 
L 2515 4570 
Q 2643 4557 2857 4547 
Q 3072 4538 3341 4531 
Q 3610 4525 3917 4521 
Q 4224 4518 4550 4518 
Q 5037 4518 5446 4531 
Q 5856 4544 6118 4570 
L 6118 4006 
Q 5920 4032 5632 4041 
Q 5344 4051 4998 4058 
L 4998 243 
z
" transform="scale(0.015625)"/>
       <path id="STHeitiTC-Medium-5355" d="M 2387 4013 
Q 2246 4218 2086 4426 
Q 1926 4634 1734 4826 
L 2150 5133 
Q 2317 4941 2496 4752 
Q 2675 4563 2880 4384 
L 2387 4013 
z
M 2938 3507 
L 1651 3507 
L 1651 2861 
L 2938 2861 
L 2938 3507 
z
M 3456 2861 
L 4787 2861 
L 4787 3507 
L 3456 3507 
L 3456 2861 
z
M 3456 1811 
L 4787 1811 
L 4787 2470 
L 3456 2470 
L 3456 1811 
z
M 2938 2470 
L 1651 2470 
L 1651 1811 
L 2938 1811 
L 2938 2470 
z
M 3456 890 
Q 4294 890 4896 902 
Q 5498 915 5971 947 
L 5971 397 
Q 5498 429 4896 441 
Q 4294 454 3456 454 
Q 3456 122 3465 -179 
Q 3475 -480 3501 -768 
L 2893 -768 
Q 2925 -480 2931 -182 
Q 2938 115 2938 454 
Q 2099 454 1497 441 
Q 896 429 429 397 
L 429 947 
Q 896 915 1497 902 
Q 2099 890 2938 890 
L 2938 1402 
Q 2278 1408 1830 1405 
Q 1382 1402 1094 1389 
Q 1107 1517 1113 1635 
Q 1120 1754 1120 1907 
L 1120 3398 
Q 1120 3558 1117 3692 
Q 1114 3827 1101 3949 
Q 1466 3936 2096 3926 
Q 2726 3917 3565 3917 
Q 3808 4390 3939 4684 
Q 4070 4979 4122 5190 
Q 4288 5107 4467 5043 
Q 4646 4979 4800 4954 
Q 4890 4941 4893 4880 
Q 4896 4819 4819 4800 
Q 4787 4794 4736 4758 
Q 4685 4723 4598 4627 
Q 4512 4531 4377 4361 
Q 4243 4192 4051 3917 
Q 4467 3917 4771 3926 
Q 5075 3936 5299 3949 
Q 5286 3827 5286 3696 
Q 5286 3565 5286 3411 
L 5286 1933 
Q 5286 1754 5289 1629 
Q 5293 1504 5306 1382 
Q 5018 1395 4570 1401 
Q 4122 1408 3456 1402 
L 3456 890 
z
" transform="scale(0.015625)"/>
       <path id="STHeitiTC-Medium-6570" d="M 3200 1472 
Q 3117 1190 3049 1014 
Q 2982 838 2899 691 
Q 3046 640 3180 585 
Q 3315 531 3450 461 
Q 3347 352 3286 269 
Q 3226 186 3168 64 
Q 3040 134 2912 201 
Q 2784 269 2637 326 
Q 2496 179 2323 67 
Q 2150 -45 1926 -137 
Q 1702 -230 1417 -310 
Q 1133 -390 781 -474 
Q 717 -346 595 -198 
Q 474 -51 346 45 
Q 934 58 1392 157 
Q 1850 256 2157 493 
Q 1914 563 1635 617 
Q 1357 672 1030 717 
Q 1126 883 1216 1072 
Q 1306 1261 1395 1485 
Q 877 1485 563 1446 
L 563 1901 
Q 742 1882 982 1872 
Q 1222 1862 1530 1856 
Q 1574 1984 1616 2115 
Q 1658 2246 1696 2394 
Q 1843 2336 1955 2310 
Q 2067 2285 2214 2272 
Q 2342 2259 2345 2233 
Q 2349 2208 2253 2144 
Q 2221 2118 2173 2060 
Q 2125 2003 2048 1856 
Q 2368 1856 2598 1859 
Q 2829 1862 3001 1865 
Q 3174 1869 3302 1878 
Q 3430 1888 3552 1901 
L 3552 1446 
Q 3482 1459 3376 1465 
Q 3270 1472 3200 1472 
z
M 1862 1491 
Q 1811 1389 1753 1261 
Q 1696 1133 1626 979 
Q 1869 941 2077 902 
Q 2285 864 2470 819 
Q 2541 928 2614 1107 
Q 2688 1286 2739 1485 
Q 2515 1491 2291 1491 
Q 2067 1491 1862 1491 
z
M 4378 2739 
Q 4384 2291 4441 1936 
Q 4499 1581 4627 1299 
Q 4813 1722 4931 2288 
Q 5050 2854 5088 3642 
L 4352 3642 
Q 4294 3450 4201 3245 
Q 4109 3040 3997 2838 
Q 3885 2637 3760 2448 
Q 3635 2259 3520 2112 
Q 3366 2355 3206 2458 
Q 3398 2720 3561 3037 
Q 3725 3354 3846 3699 
Q 3968 4045 4045 4403 
Q 4122 4762 4147 5107 
Q 4294 5056 4486 5021 
Q 4678 4986 4800 4973 
Q 4870 4966 4880 4924 
Q 4890 4883 4781 4832 
Q 4768 4826 4745 4797 
Q 4723 4768 4691 4688 
Q 4659 4608 4608 4461 
Q 4557 4314 4480 4064 
L 5216 4064 
Q 5498 4064 5690 4077 
Q 5882 4090 6003 4115 
L 6003 3597 
Q 5926 3610 5808 3622 
Q 5690 3635 5562 3635 
Q 5530 3110 5472 2688 
Q 5414 2266 5337 1923 
Q 5261 1581 5158 1315 
Q 5056 1050 4934 832 
Q 5114 627 5386 476 
Q 5658 326 6112 186 
Q 5978 58 5898 -80 
Q 5818 -218 5754 -429 
Q 5523 -288 5350 -176 
Q 5178 -64 5046 35 
Q 4915 134 4819 227 
Q 4723 320 4640 416 
Q 4416 166 4064 -70 
Q 3712 -307 3194 -531 
Q 3136 -429 3037 -313 
Q 2938 -198 2803 -90 
Q 3008 -45 3229 41 
Q 3450 128 3658 246 
Q 3866 365 4048 512 
Q 4230 659 4365 826 
Q 4269 998 4195 1216 
Q 4122 1434 4067 1677 
Q 4013 1920 3984 2173 
Q 3955 2426 3955 2675 
L 4378 2739 
z
M 1549 3462 
Q 1331 3462 1059 3452 
Q 787 3443 589 3424 
L 589 3878 
Q 832 3853 1139 3843 
Q 1446 3834 1850 3834 
L 1850 4435 
Q 1850 4614 1834 4774 
Q 1818 4934 1786 5101 
Q 1933 5088 2073 5081 
Q 2214 5075 2362 5075 
Q 2451 5075 2464 5036 
Q 2477 4998 2406 4966 
Q 2349 4934 2333 4902 
Q 2317 4870 2317 4781 
L 2317 3834 
Q 2675 3834 2995 3846 
Q 3315 3859 3507 3878 
L 3507 3424 
Q 3328 3443 3005 3456 
Q 2682 3469 2317 3469 
Q 2317 3174 2326 2937 
Q 2336 2701 2362 2451 
L 1805 2451 
Q 1830 2682 1840 2899 
Q 1850 3117 1850 3392 
Q 1734 3162 1625 2992 
Q 1517 2822 1392 2678 
Q 1267 2534 1113 2403 
Q 960 2272 755 2125 
Q 685 2234 573 2326 
Q 461 2419 282 2509 
Q 666 2630 1002 2896 
Q 1338 3162 1549 3462 
z
M 3386 4634 
Q 3360 4621 3331 4592 
Q 3302 4563 3260 4499 
Q 3219 4435 3158 4329 
Q 3098 4224 3014 4058 
Q 2944 4077 2832 4093 
Q 2720 4109 2560 4122 
Q 2669 4288 2733 4451 
Q 2797 4614 2861 4858 
Q 2995 4813 3142 4777 
Q 3290 4742 3386 4730 
Q 3456 4717 3459 4691 
Q 3462 4666 3386 4634 
z
M 973 4090 
Q 966 4237 947 4397 
Q 928 4557 883 4742 
L 1389 4806 
Q 1434 4640 1462 4477 
Q 1491 4314 1510 4166 
L 973 4090 
z
M 3046 2451 
Q 2918 2598 2774 2752 
Q 2630 2906 2464 3053 
L 2790 3302 
Q 2970 3149 3104 3017 
Q 3238 2886 3360 2765 
L 3046 2451 
z
" transform="scale(0.015625)"/>
       <path id="STHeitiTC-Medium-636e" d="M 3021 3648 
L 5229 3648 
L 5229 4314 
L 3021 4314 
L 3021 3648 
z
M 1222 3181 
Q 960 3181 774 3168 
Q 589 3155 442 3123 
L 442 3667 
Q 589 3635 774 3625 
Q 960 3616 1222 3616 
Q 1222 4000 1219 4233 
Q 1216 4467 1209 4614 
Q 1203 4762 1187 4854 
Q 1171 4947 1146 5050 
Q 1318 5018 1443 5008 
Q 1568 4998 1702 5005 
Q 2010 5018 1798 4845 
Q 1728 4794 1705 4746 
Q 1683 4698 1683 4614 
L 1683 3622 
Q 1843 3629 1968 3638 
Q 2093 3648 2202 3667 
L 2202 3123 
Q 2093 3142 1968 3155 
Q 1843 3168 1683 3174 
L 1683 2291 
Q 1965 2413 2234 2560 
Q 2227 2413 2246 2278 
Q 2266 2144 2304 2042 
Q 2157 1997 2000 1945 
Q 1843 1894 1683 1830 
L 1683 122 
Q 1683 -77 1660 -198 
Q 1638 -320 1545 -397 
Q 1453 -474 1261 -528 
Q 1069 -582 730 -640 
Q 717 -467 662 -316 
Q 608 -166 461 26 
Q 883 -45 1052 6 
Q 1222 58 1222 205 
L 1222 1632 
Q 787 1421 474 1178 
Q 461 1325 435 1504 
Q 410 1683 358 1856 
Q 826 1978 1222 2112 
L 1222 3181 
z
M 5184 1082 
L 3731 1082 
L 3731 141 
L 5184 141 
L 5184 1082 
z
M 4621 1459 
Q 4870 1459 5046 1462 
Q 5222 1466 5347 1469 
Q 5472 1472 5558 1481 
Q 5645 1491 5715 1504 
Q 5690 1395 5683 1267 
Q 5677 1139 5677 966 
L 5677 96 
Q 5677 -77 5686 -227 
Q 5696 -378 5722 -544 
L 5184 -544 
L 5184 -282 
L 3731 -282 
L 3731 -614 
L 3194 -614 
Q 3226 -448 3232 -294 
Q 3238 -141 3238 32 
L 3238 966 
Q 3238 1120 3228 1257 
Q 3219 1395 3200 1504 
Q 3277 1491 3357 1484 
Q 3437 1478 3545 1475 
Q 3654 1472 3801 1465 
Q 3949 1459 4160 1459 
L 4160 2150 
Q 3808 2144 3555 2131 
Q 3302 2118 3091 2086 
L 3091 2605 
Q 3309 2579 3558 2566 
Q 3808 2554 4160 2547 
L 4160 3238 
L 3021 3238 
Q 3021 2752 3008 2365 
Q 2995 1978 2960 1654 
Q 2925 1331 2870 1056 
Q 2816 781 2729 525 
Q 2643 269 2524 9 
Q 2406 -250 2246 -538 
Q 2150 -461 2022 -409 
Q 1894 -358 1734 -346 
Q 1920 -70 2057 202 
Q 2195 474 2291 774 
Q 2387 1075 2441 1417 
Q 2496 1760 2515 2170 
Q 2528 2387 2531 2684 
Q 2534 2982 2531 3328 
Q 2528 3674 2518 4045 
Q 2509 4416 2490 4774 
Q 2573 4755 2678 4742 
Q 2784 4730 2957 4720 
Q 3130 4710 3392 4707 
Q 3654 4704 4051 4704 
Q 4435 4704 4716 4710 
Q 4998 4717 5196 4726 
Q 5395 4736 5526 4749 
Q 5658 4762 5734 4774 
Q 5715 4614 5702 4403 
Q 5690 4192 5690 3968 
Q 5690 3744 5699 3571 
Q 5709 3398 5734 3174 
Q 5568 3206 5286 3222 
Q 5005 3238 4621 3238 
L 4621 2547 
Q 5536 2547 6035 2605 
L 6035 2086 
Q 5786 2118 5437 2134 
Q 5088 2150 4621 2150 
L 4621 1459 
z
" transform="scale(0.015625)"/>
      </defs>
      <use xlink:href="#STHeitiTC-Medium-83b7"/>
      <use xlink:href="#STHeitiTC-Medium-53d6" transform="translate(99.999985 0)"/>
      <use xlink:href="#STHeitiTC-Medium-91c7" transform="translate(199.999969 0)"/>
      <use xlink:href="#STHeitiTC-Medium-8d2d" transform="translate(299.999954 0)"/>
      <use xlink:href="#STHeitiTC-Medium-8ba2" transform="translate(399.999939 0)"/>
      <use xlink:href="#STHeitiTC-Medium-5355" transform="translate(499.999924 0)"/>
      <use xlink:href="#STHeitiTC-Medium-6570" transform="translate(599.999908 0)"/>
      <use xlink:href="#STHeitiTC-Medium-636e" transform="translate(699.999893 0)"/>
     </g>
    </g>
    <g id="line2d_30">
     <path d="M 545.165625 68.539062 
L 555.165625 68.539062 
L 565.165625 68.539062 
" style="fill: none; stroke-dasharray: 1.5,2.475; stroke-dashoffset: 0; stroke: #ff0000; stroke-width: 1.5"/>
    </g>
    <g id="text_17">
     <!-- 整体 P99 响应时间 (98.0 ms) -->
     <g transform="translate(573.165625 72.039062) scale(0.1 -0.1)">
      <defs>
       <path id="STHeitiTC-Medium-6574" d="M 2982 1875 
Q 2854 2022 2691 2160 
Q 2528 2298 2368 2394 
L 2675 2643 
Q 2822 2534 2982 2412 
Q 3142 2291 3296 2163 
L 2982 1875 
z
M 2227 3072 
L 2918 3072 
L 2918 3494 
L 2227 3494 
L 2227 3072 
z
M 1824 3494 
L 1120 3494 
L 1120 3072 
L 1824 3072 
L 1824 3494 
z
M 1824 2746 
Q 1581 2304 1318 2038 
Q 1056 1773 755 1587 
Q 653 1709 579 1763 
Q 506 1818 358 1875 
Q 704 2022 982 2246 
Q 1261 2470 1466 2771 
Q 1222 2771 1043 2771 
Q 864 2771 691 2758 
Q 730 2957 730 3251 
Q 730 3411 720 3561 
Q 710 3712 691 3821 
Q 806 3814 924 3808 
Q 1043 3802 1177 3798 
Q 1312 3795 1469 3795 
Q 1626 3795 1824 3795 
L 1824 4186 
Q 1382 4186 1081 4176 
Q 781 4166 538 4141 
L 538 4589 
Q 800 4557 1094 4547 
Q 1389 4538 1824 4538 
Q 1824 4800 1814 4915 
Q 1805 5030 1779 5120 
Q 2048 5082 2234 5101 
Q 2342 5114 2352 5088 
Q 2362 5062 2298 4992 
Q 2266 4960 2246 4838 
Q 2227 4717 2227 4538 
Q 2630 4538 2912 4547 
Q 3194 4557 3430 4576 
L 3430 4141 
Q 3194 4160 2912 4169 
Q 2630 4179 2227 4186 
L 2227 3795 
Q 2611 3795 2864 3801 
Q 3117 3808 3347 3821 
Q 3334 3712 3328 3565 
Q 3322 3418 3322 3251 
Q 3322 3104 3328 2973 
Q 3334 2842 3347 2746 
Q 3123 2758 2867 2764 
Q 2611 2771 2227 2771 
Q 2227 2483 2240 2268 
Q 2253 2054 2285 1875 
L 1766 1875 
Q 1798 2048 1811 2259 
Q 1824 2470 1824 2746 
z
M 4653 2445 
Q 4454 2259 4217 2118 
Q 3981 1978 3706 1856 
Q 3661 1958 3581 2054 
Q 3501 2150 3392 2221 
Q 3987 2432 4346 2733 
Q 4224 2874 4121 3037 
Q 4019 3200 3942 3386 
L 4307 3539 
Q 4429 3238 4614 3014 
Q 4922 3418 5005 3987 
L 4218 3987 
Q 4109 3750 3987 3552 
Q 3866 3354 3731 3162 
Q 3565 3290 3379 3334 
Q 3533 3558 3648 3763 
Q 3763 3968 3846 4179 
Q 3930 4390 3987 4620 
Q 4045 4851 4083 5126 
Q 4230 5075 4368 5040 
Q 4506 5005 4621 4992 
Q 4691 4979 4694 4953 
Q 4698 4928 4614 4858 
Q 4582 4832 4534 4739 
Q 4486 4646 4384 4384 
L 5210 4384 
Q 5478 4384 5651 4393 
Q 5824 4403 5933 4422 
L 5933 3962 
Q 5837 3974 5741 3977 
Q 5645 3981 5478 3987 
Q 5389 3590 5254 3289 
Q 5120 2989 4934 2746 
Q 5139 2618 5404 2534 
Q 5670 2451 6035 2394 
Q 5907 2291 5843 2169 
Q 5779 2048 5728 1875 
Q 5434 1978 5162 2118 
Q 4890 2259 4653 2445 
z
M 3418 13 
Q 3846 13 4198 16 
Q 4550 19 4851 25 
Q 5152 32 5411 41 
Q 5670 51 5907 64 
L 5907 -461 
Q 5658 -448 5382 -438 
Q 5107 -429 4784 -422 
Q 4461 -416 4073 -413 
Q 3686 -410 3219 -410 
Q 2746 -410 2362 -413 
Q 1978 -416 1654 -422 
Q 1331 -429 1056 -438 
Q 781 -448 531 -461 
L 531 64 
Q 774 51 1043 44 
Q 1312 38 1619 26 
L 1619 410 
Q 1619 582 1609 752 
Q 1600 922 1581 1024 
Q 1715 998 1872 992 
Q 2029 986 2106 992 
Q 2253 998 2150 896 
Q 2106 851 2090 755 
Q 2074 659 2074 550 
L 2074 13 
L 2957 13 
L 2957 1338 
Q 2650 1338 2390 1331 
Q 2131 1325 1907 1321 
Q 1683 1318 1491 1308 
Q 1299 1299 1120 1286 
L 1120 1754 
Q 1318 1741 1532 1731 
Q 1747 1722 2000 1718 
Q 2253 1715 2553 1712 
Q 2854 1709 3226 1709 
Q 3597 1709 3897 1712 
Q 4198 1715 4448 1721 
Q 4698 1728 4912 1734 
Q 5126 1741 5325 1754 
L 5325 1286 
Q 5139 1299 4940 1308 
Q 4742 1318 4512 1324 
Q 4282 1331 4013 1334 
Q 3744 1338 3418 1338 
L 3418 902 
Q 3808 902 4077 902 
Q 4346 902 4547 905 
Q 4749 909 4902 912 
Q 5056 915 5216 928 
L 5216 499 
Q 5069 506 4915 512 
Q 4762 518 4560 521 
Q 4358 525 4083 528 
Q 3808 531 3418 531 
L 3418 13 
z
" transform="scale(0.015625)"/>
       <path id="STHeitiTC-Medium-4f53" d="M 1069 2810 
Q 947 2573 828 2358 
Q 710 2144 582 1920 
Q 416 2157 186 2336 
Q 454 2630 678 3043 
Q 902 3456 1043 3904 
Q 1152 4243 1232 4566 
Q 1312 4890 1357 5133 
Q 1523 5069 1712 5017 
Q 1901 4966 2029 4941 
Q 2176 4915 2035 4800 
Q 2016 4787 1984 4732 
Q 1952 4678 1894 4572 
Q 1837 4467 1753 4297 
Q 1670 4128 1562 3885 
L 1562 -685 
L 992 -685 
Q 1024 -352 1046 -13 
Q 1069 326 1069 672 
L 1069 2810 
z
M 3469 3475 
Q 3424 3008 3321 2595 
Q 3219 2182 3049 1798 
Q 2880 1414 2640 1046 
Q 2400 678 2074 307 
Q 1901 563 1677 749 
Q 2195 1216 2553 1897 
Q 2912 2579 3078 3469 
Q 2739 3462 2464 3449 
Q 2189 3437 1952 3418 
L 1952 3974 
Q 2278 3949 2688 3936 
Q 3098 3923 3654 3917 
Q 3654 4192 3651 4387 
Q 3648 4582 3641 4729 
Q 3635 4877 3625 4989 
Q 3616 5101 3597 5210 
Q 3731 5184 3888 5174 
Q 4045 5165 4173 5171 
Q 4378 5184 4211 5043 
Q 4166 5011 4150 4947 
Q 4134 4883 4134 4819 
L 4134 3917 
Q 4730 3917 5165 3929 
Q 5600 3942 5939 3974 
L 5939 3418 
Q 5651 3443 5302 3456 
Q 4954 3469 4499 3475 
Q 4589 3072 4745 2678 
Q 4902 2285 5088 2010 
Q 5312 1683 5597 1427 
Q 5882 1171 6208 1005 
Q 5965 755 5773 397 
Q 5402 723 5098 1084 
Q 4794 1446 4646 1766 
Q 4486 2112 4374 2544 
Q 4262 2976 4192 3475 
L 4134 3475 
L 4134 966 
Q 4390 973 4595 982 
Q 4800 992 4947 1018 
L 4947 499 
Q 4800 518 4595 531 
Q 4390 544 4134 550 
Q 4141 262 4157 -29 
Q 4173 -320 4205 -627 
L 3584 -627 
Q 3616 -320 3632 -29 
Q 3648 262 3654 550 
Q 3354 544 3120 531 
Q 2886 518 2720 499 
L 2720 1018 
Q 2886 992 3120 982 
Q 3354 973 3654 966 
L 3654 3475 
L 3469 3475 
z
" transform="scale(0.015625)"/>
       <path id="STHeitiTC-Medium-50" d="M 512 5069 
L 1472 5069 
Q 2291 5069 2547 5005 
Q 2803 4941 3017 4774 
Q 3232 4608 3353 4358 
Q 3475 4109 3475 3795 
Q 3475 3482 3356 3232 
Q 3238 2982 3017 2819 
Q 2797 2656 2477 2589 
Q 2157 2522 1344 2522 
L 1062 2522 
L 1062 384 
L 512 384 
L 512 5069 
z
M 1062 3053 
L 1792 3053 
Q 2438 3040 2672 3257 
Q 2906 3475 2906 3802 
Q 2906 4531 1830 4531 
L 1062 4531 
L 1062 3053 
z
" transform="scale(0.015625)"/>
       <path id="STHeitiTC-Medium-39" d="M 1984 2355 
Q 1798 2310 1613 2310 
Q 1043 2310 656 2716 
Q 269 3123 269 3737 
Q 269 4352 697 4768 
Q 1126 5184 1747 5184 
Q 2368 5184 2777 4758 
Q 3187 4333 3187 3738 
Q 3187 3411 3052 3081 
Q 2918 2752 2662 2368 
L 1248 250 
L 787 544 
L 1984 2355 
z
M 1728 2803 
Q 2112 2803 2381 3075 
Q 2650 3347 2650 3724 
Q 2650 4102 2381 4374 
Q 2112 4646 1728 4646 
Q 1344 4646 1075 4377 
Q 806 4109 806 3725 
Q 806 3341 1075 3072 
Q 1344 2803 1728 2803 
z
" transform="scale(0.015625)"/>
       <path id="STHeitiTC-Medium-2e" d="M 966 1478 
Q 1146 1478 1270 1353 
Q 1395 1229 1395 1046 
Q 1395 864 1270 739 
Q 1146 614 970 614 
Q 794 614 666 742 
Q 538 870 538 1049 
Q 538 1229 666 1353 
Q 794 1478 966 1478 
z
" transform="scale(0.015625)"/>
      </defs>
      <use xlink:href="#STHeitiTC-Medium-6574"/>
      <use xlink:href="#STHeitiTC-Medium-4f53" transform="translate(99.999985 0)"/>
      <use xlink:href="#STHeitiTC-Medium-20" transform="translate(199.999969 0)"/>
      <use xlink:href="#STHeitiTC-Medium-50" transform="translate(224.999954 0)"/>
      <use xlink:href="#STHeitiTC-Medium-39" transform="translate(284.199951 0)"/>
      <use xlink:href="#STHeitiTC-Medium-39" transform="translate(339.599945 0)"/>
      <use xlink:href="#STHeitiTC-Medium-20" transform="translate(394.999939 0)"/>
      <use xlink:href="#STHeitiTC-Medium-54cd" transform="translate(419.999924 0)"/>
      <use xlink:href="#STHeitiTC-Medium-5e94" transform="translate(519.999908 0)"/>
      <use xlink:href="#STHeitiTC-Medium-65f6" transform="translate(619.999893 0)"/>
      <use xlink:href="#STHeitiTC-Medium-95f4" transform="translate(719.999878 0)"/>
      <use xlink:href="#STHeitiTC-Medium-20" transform="translate(819.999863 0)"/>
      <use xlink:href="#STHeitiTC-Medium-28" transform="translate(844.999847 0)"/>
      <use xlink:href="#STHeitiTC-Medium-39" transform="translate(881.899841 0)"/>
      <use xlink:href="#STHeitiTC-Medium-38" transform="translate(937.299835 0)"/>
      <use xlink:href="#STHeitiTC-Medium-2e" transform="translate(992.699829 0)"/>
      <use xlink:href="#STHeitiTC-Medium-30" transform="translate(1020.399826 0)"/>
      <use xlink:href="#STHeitiTC-Medium-20" transform="translate(1075.79982 0)"/>
      <use xlink:href="#STHeitiTC-Medium-6d" transform="translate(1100.799805 0)"/>
      <use xlink:href="#STHeitiTC-Medium-73" transform="translate(1194.599792 0)"/>
      <use xlink:href="#STHeitiTC-Medium-29" transform="translate(1233.39978 0)"/>
     </g>
    </g>
   </g>
  </g>
 </g>
 <defs>
  <clipPath id="pd82f042fcc">
   <rect x="51.168125" y="10.8" width="658.031875" height="305.681875"/>
  </clipPath>
 </defs>
</svg>
