<?xml version="1.0" encoding="utf-8" standalone="no"?>
<!DOCTYPE svg PUBLIC "-//W3C//DTD SVG 1.1//EN"
  "http://www.w3.org/Graphics/SVG/1.1/DTD/svg11.dtd">
<svg xmlns:xlink="http://www.w3.org/1999/xlink" width="720pt" height="432pt" viewBox="0 0 720 432" xmlns="http://www.w3.org/2000/svg" version="1.1">
 <metadata>
  <rdf:RDF xmlns:dc="http://purl.org/dc/elements/1.1/" xmlns:cc="http://creativecommons.org/ns#" xmlns:rdf="http://www.w3.org/1999/02/22-rdf-syntax-ns#">
   <cc:Work>
    <dc:type rdf:resource="http://purl.org/dc/dcmitype/StillImage"/>
    <dc:date>2026-07-02T09:39:28.614017</dc:date>
    <dc:format>image/svg+xml</dc:format>
    <dc:creator>
     <cc:Agent>
      <dc:title>Matplotlib v3.10.9, https://matplotlib.org/</dc:title>
     </cc:Agent>
    </dc:creator>
   </cc:Work>
  </rdf:RDF>
 </metadata>
 <defs>
  <style type="text/css">*{stroke-linejoin: round; stroke-linecap: butt}</style>
 </defs>
 <g id="figure_1">
  <g id="patch_1">
   <path d="M 0 432 
L 720 432 
L 720 0 
L 0 0 
z
" style="fill: #ffffff"/>
  </g>
  <g id="axes_1">
   <g id="patch_2">
    <path d="M 51.213125 403.76 
L 709.2 403.76 
L 709.2 10.8 
L 51.213125 10.8 
z
" style="fill: #ffffff"/>
   </g>
   <g id="patch_3">
    <path d="M 81.121619 403.76 
L 107.129006 403.76 
L 107.129006 351.330334 
L 81.121619 351.330334 
z
" clip-path="url(#pcc828edfa9)" style="fill: #1f77b4; opacity: 0.8; stroke: #000000; stroke-linejoin: miter"/>
   </g>
   <g id="patch_4">
    <path d="M 185.151165 403.76 
L 211.158551 403.76 
L 211.158551 365.726705 
L 185.151165 365.726705 
z
" clip-path="url(#pcc828edfa9)" style="fill: #1f77b4; opacity: 0.8; stroke: #000000; stroke-linejoin: miter"/>
   </g>
   <g id="patch_5">
    <path d="M 289.18071 403.76 
L 315.188097 403.76 
L 315.188097 303.352102 
L 289.18071 303.352102 
z
" clip-path="url(#pcc828edfa9)" style="fill: #1f77b4; opacity: 0.8; stroke: #000000; stroke-linejoin: miter"/>
   </g>
   <g id="patch_6">
    <path d="M 393.210256 403.76 
L 419.217642 403.76 
L 419.217642 277.489462 
L 393.210256 277.489462 
z
" clip-path="url(#pcc828edfa9)" style="fill: #1f77b4; opacity: 0.8; stroke: #000000; stroke-linejoin: miter"/>
   </g>
   <g id="patch_7">
    <path d="M 497.239801 403.76 
L 523.247188 403.76 
L 523.247188 222.721518 
L 497.239801 222.721518 
z
" clip-path="url(#pcc828edfa9)" style="fill: #1f77b4; opacity: 0.8; stroke: #000000; stroke-linejoin: miter"/>
   </g>
   <g id="patch_8">
    <path d="M 601.269347 403.76 
L 627.276733 403.76 
L 627.276733 29.512381 
L 601.269347 29.512381 
z
" clip-path="url(#pcc828edfa9)" style="fill: #1f77b4; opacity: 0.8; stroke: #000000; stroke-linejoin: miter"/>
   </g>
   <g id="patch_9">
    <path d="M 107.129006 403.76 
L 133.136392 403.76 
L 133.136392 375.015664 
L 107.129006 375.015664 
z
" clip-path="url(#pcc828edfa9)" style="fill: #ff7f0e; opacity: 0.8; stroke: #000000; stroke-linejoin: miter"/>
   </g>
   <g id="patch_10">
    <path d="M 211.158551 403.76 
L 237.165938 403.76 
L 237.165938 383.982687 
L 211.158551 383.982687 
z
" clip-path="url(#pcc828edfa9)" style="fill: #ff7f0e; opacity: 0.8; stroke: #000000; stroke-linejoin: miter"/>
   </g>
   <g id="patch_11">
    <path d="M 315.188097 403.76 
L 341.195483 403.76 
L 341.195483 345.949392 
L 315.188097 345.949392 
z
" clip-path="url(#pcc828edfa9)" style="fill: #ff7f0e; opacity: 0.8; stroke: #000000; stroke-linejoin: miter"/>
   </g>
   <g id="patch_12">
    <path d="M 419.217642 403.76 
L 445.225028 403.76 
L 445.225028 332.257406 
L 419.217642 332.257406 
z
" clip-path="url(#pcc828edfa9)" style="fill: #ff7f0e; opacity: 0.8; stroke: #000000; stroke-linejoin: miter"/>
   </g>
   <g id="patch_13">
    <path d="M 523.247188 403.76 
L 549.254574 403.76 
L 549.254574 297.266775 
L 523.247188 297.266775 
z
" clip-path="url(#pcc828edfa9)" style="fill: #ff7f0e; opacity: 0.8; stroke: #000000; stroke-linejoin: miter"/>
   </g>
   <g id="patch_14">
    <path d="M 627.276733 403.76 
L 653.284119 403.76 
L 653.284119 166.432242 
L 627.276733 166.432242 
z
" clip-path="url(#pcc828edfa9)" style="fill: #ff7f0e; opacity: 0.8; stroke: #000000; stroke-linejoin: miter"/>
   </g>
   <g id="patch_15">
    <path d="M 133.136392 403.76 
L 159.143778 403.76 
L 159.143778 371.767405 
L 133.136392 371.767405 
z
" clip-path="url(#pcc828edfa9)" style="fill: #2ca02c; opacity: 0.8; stroke: #000000; stroke-linejoin: miter"/>
   </g>
   <g id="patch_16">
    <path d="M 237.165938 403.76 
L 263.173324 403.76 
L 263.173324 380.940023 
L 237.165938 380.940023 
z
" clip-path="url(#pcc828edfa9)" style="fill: #2ca02c; opacity: 0.8; stroke: #000000; stroke-linejoin: miter"/>
   </g>
   <g id="patch_17">
    <path d="M 341.195483 403.76 
L 367.202869 403.76 
L 367.202869 338.342733 
L 341.195483 338.342733 
z
" clip-path="url(#pcc828edfa9)" style="fill: #2ca02c; opacity: 0.8; stroke: #000000; stroke-linejoin: miter"/>
   </g>
   <g id="patch_18">
    <path d="M 445.225028 403.76 
L 471.232415 403.76 
L 471.232415 323.129415 
L 445.225028 323.129415 
z
" clip-path="url(#pcc828edfa9)" style="fill: #2ca02c; opacity: 0.8; stroke: #000000; stroke-linejoin: miter"/>
   </g>
   <g id="patch_19">
    <path d="M 549.254574 403.76 
L 575.26196 403.76 
L 575.26196 285.096121 
L 549.254574 285.096121 
z
" clip-path="url(#pcc828edfa9)" style="fill: #2ca02c; opacity: 0.8; stroke: #000000; stroke-linejoin: miter"/>
   </g>
   <g id="patch_20">
    <path d="M 653.284119 403.76 
L 679.291506 403.76 
L 679.291506 125.356283 
L 653.284119 125.356283 
z
" clip-path="url(#pcc828edfa9)" style="fill: #2ca02c; opacity: 0.8; stroke: #000000; stroke-linejoin: miter"/>
   </g>
   <g id="matplotlib.axis_1">
    <g id="xtick_1">
     <g id="line2d_1">
      <defs>
       <path id="mc02d47654b" d="M 0 0 
L 0 3.5 
" style="stroke: #000000; stroke-width: 0.8"/>
      </defs>
      <g>
       <use xlink:href="#mc02d47654b" x="120.132699" y="403.76" style="stroke: #000000; stroke-width: 0.8"/>
      </g>
     </g>
     <g id="text_1">
      <!-- 平均值 -->
      <g transform="translate(103.632699 419.67) scale(0.11 -0.11)">
       <defs>
        <path id="STHeitiTC-Medium-5e73" d="M 1773 2240 
Q 1683 2605 1552 2918 
Q 1421 3232 1261 3482 
L 1779 3693 
Q 1939 3398 2070 3104 
Q 2202 2810 2330 2464 
L 1773 2240 
z
M 5274 3539 
Q 5350 3514 5344 3475 
Q 5338 3437 5267 3424 
Q 5235 3418 5174 3338 
Q 5114 3258 5062 3168 
Q 4902 2874 4774 2650 
Q 4646 2426 4499 2202 
Q 4378 2266 4237 2307 
Q 4096 2349 3962 2368 
Q 4243 2675 4406 3033 
Q 4570 3392 4666 3776 
Q 4832 3706 4998 3638 
Q 5165 3571 5274 3539 
z
M 3488 1882 
Q 4307 1882 4896 1894 
Q 5485 1907 5946 1939 
L 5946 1325 
Q 5485 1357 4896 1369 
Q 4307 1382 3488 1382 
L 3488 262 
Q 3488 45 3504 -224 
Q 3520 -493 3552 -762 
L 2880 -762 
Q 2906 -531 2922 -243 
Q 2938 45 2938 262 
L 2938 1382 
Q 2112 1382 1513 1366 
Q 915 1350 454 1325 
L 454 1939 
Q 928 1907 1520 1894 
Q 2112 1882 2938 1882 
L 2938 4269 
Q 2278 4262 1801 4249 
Q 1325 4237 954 4211 
L 954 4806 
Q 1363 4774 1900 4761 
Q 2438 4749 3200 4749 
Q 3962 4749 4496 4761 
Q 5030 4774 5440 4806 
L 5440 4211 
Q 5069 4237 4601 4249 
Q 4134 4262 3488 4269 
L 3488 1882 
z
" transform="scale(0.015625)"/>
        <path id="STHeitiTC-Medium-5747" d="M 3699 3584 
Q 3546 3258 3376 2960 
Q 3206 2662 2957 2285 
Q 2848 2368 2713 2425 
Q 2579 2483 2413 2534 
Q 2534 2656 2627 2774 
Q 2720 2893 2813 3037 
Q 2906 3181 3005 3376 
Q 3104 3571 3238 3853 
Q 3290 3968 3344 4121 
Q 3398 4275 3446 4444 
Q 3494 4614 3532 4790 
Q 3571 4966 3590 5126 
Q 3795 5062 3968 5027 
Q 4141 4992 4339 4960 
Q 4410 4947 4413 4915 
Q 4416 4883 4333 4832 
Q 4282 4800 4240 4752 
Q 4198 4704 4150 4614 
Q 4102 4525 4044 4384 
Q 3987 4243 3904 4038 
L 5062 4038 
Q 5338 4038 5587 4054 
Q 5837 4070 6003 4090 
L 5875 352 
Q 5862 38 5820 -157 
Q 5779 -352 5635 -470 
Q 5491 -589 5216 -646 
Q 4941 -704 4474 -749 
Q 4442 -557 4381 -400 
Q 4320 -243 4173 -45 
Q 4550 -83 4777 -70 
Q 5005 -58 5126 9 
Q 5248 77 5289 214 
Q 5331 352 5338 563 
L 5440 3584 
L 3699 3584 
z
M 5018 1216 
Q 4749 1107 4509 1011 
Q 4269 915 4038 816 
Q 3808 717 3581 611 
Q 3354 506 3110 390 
Q 3059 563 2995 713 
Q 2931 864 2848 1030 
Q 3123 1088 3379 1161 
Q 3635 1235 3894 1324 
Q 4154 1414 4426 1532 
Q 4698 1651 4998 1798 
Q 4986 1638 4989 1507 
Q 4992 1376 5018 1216 
z
M 4000 1811 
Q 3910 2054 3772 2304 
Q 3635 2554 3488 2714 
L 4026 2989 
Q 4128 2790 4275 2531 
Q 4422 2272 4550 2067 
L 4000 1811 
z
M 1824 998 
Q 2067 1069 2275 1149 
Q 2483 1229 2643 1299 
Q 2611 1146 2604 1018 
Q 2598 890 2611 723 
Q 2406 672 2156 595 
Q 1907 518 1641 416 
Q 1376 314 1117 195 
Q 858 77 627 -45 
Q 602 160 544 345 
Q 486 531 397 691 
Q 602 710 826 752 
Q 1050 794 1286 851 
L 1286 2995 
Q 1062 2995 873 2985 
Q 685 2976 557 2957 
L 557 3514 
Q 691 3494 876 3484 
Q 1062 3475 1286 3469 
Q 1286 3808 1283 4048 
Q 1280 4288 1277 4454 
Q 1274 4621 1264 4733 
Q 1254 4845 1248 4934 
Q 1395 4915 1555 4908 
Q 1715 4902 1882 4909 
Q 1958 4909 1968 4877 
Q 1978 4845 1907 4806 
Q 1862 4781 1843 4739 
Q 1824 4698 1824 4646 
L 1824 3469 
Q 2061 3475 2240 3484 
Q 2419 3494 2566 3514 
L 2566 2957 
Q 2426 2976 2246 2985 
Q 2067 2995 1824 3002 
L 1824 998 
z
" transform="scale(0.015625)"/>
        <path id="STHeitiTC-Medium-503c" d="M 1594 -691 
L 1011 -691 
Q 1037 -416 1059 -38 
Q 1082 339 1082 685 
L 1082 3002 
Q 966 2797 854 2617 
Q 742 2438 640 2285 
Q 563 2406 467 2502 
Q 371 2598 230 2688 
Q 454 2950 675 3289 
Q 896 3629 1037 3974 
Q 1165 4275 1273 4585 
Q 1382 4896 1453 5152 
Q 1600 5075 1760 5008 
Q 1920 4941 2010 4922 
Q 2106 4902 2109 4857 
Q 2112 4813 2022 4762 
Q 1978 4736 1907 4624 
Q 1837 4512 1722 4243 
Q 1690 4173 1658 4102 
Q 1626 4032 1594 3962 
L 1594 -691 
z
M 2970 909 
L 4960 909 
L 4960 1402 
L 2970 1402 
L 2970 909 
z
M 4960 3091 
L 2970 3091 
L 2970 2624 
L 4960 2624 
L 4960 3091 
z
M 2970 1760 
L 4960 1760 
L 4960 2259 
L 2970 2259 
L 2970 1760 
z
M 2483 2848 
Q 2483 2899 2480 2992 
Q 2477 3085 2473 3190 
Q 2470 3296 2464 3392 
Q 2458 3488 2451 3546 
Q 2630 3533 2896 3520 
Q 3162 3507 3552 3501 
Q 3578 3648 3590 3801 
Q 3603 3955 3616 4122 
Q 3142 4115 2780 4108 
Q 2419 4102 2131 4083 
L 2131 4582 
Q 2426 4557 2790 4547 
Q 3155 4538 3642 4531 
Q 3648 4723 3648 4886 
Q 3648 5050 3635 5165 
Q 3699 5152 3795 5142 
Q 3891 5133 3990 5126 
Q 4090 5120 4179 5117 
Q 4269 5114 4326 5120 
Q 4378 5126 4387 5097 
Q 4397 5069 4346 5024 
Q 4288 4973 4249 4873 
Q 4211 4774 4173 4531 
Q 4794 4531 5261 4540 
Q 5728 4550 6067 4582 
L 6067 4083 
Q 5722 4109 5245 4118 
Q 4768 4128 4122 4122 
Q 4109 3994 4093 3840 
Q 4077 3686 4058 3501 
Q 4589 3501 4921 3510 
Q 5254 3520 5478 3546 
Q 5472 3494 5465 3408 
Q 5459 3322 5456 3222 
Q 5453 3123 5453 3024 
Q 5453 2925 5453 2848 
L 5453 38 
Q 5645 45 5817 54 
Q 5990 64 6163 83 
L 6163 -429 
Q 6067 -422 5932 -412 
Q 5798 -403 5561 -396 
Q 5325 -390 4953 -387 
Q 4582 -384 4019 -384 
Q 3456 -384 3094 -387 
Q 2733 -390 2499 -393 
Q 2266 -397 2128 -406 
Q 1990 -416 1875 -422 
L 1875 83 
Q 2150 58 2483 45 
L 2483 2848 
z
M 4960 544 
L 2970 544 
L 2970 38 
L 4960 38 
L 4960 544 
z
" transform="scale(0.015625)"/>
       </defs>
       <use xlink:href="#STHeitiTC-Medium-5e73"/>
       <use xlink:href="#STHeitiTC-Medium-5747" transform="translate(99.999985 0)"/>
       <use xlink:href="#STHeitiTC-Medium-503c" transform="translate(199.999969 0)"/>
      </g>
     </g>
    </g>
    <g id="xtick_2">
     <g id="line2d_2">
      <g>
       <use xlink:href="#mc02d47654b" x="224.162244" y="403.76" style="stroke: #000000; stroke-width: 0.8"/>
      </g>
     </g>
     <g id="text_2">
      <!-- 中位数 -->
      <g transform="translate(207.662244 419.67) scale(0.11 -0.11)">
       <defs>
        <path id="STHeitiTC-Medium-4e2d" d="M 3443 1453 
L 3443 518 
Q 3443 410 3446 266 
Q 3450 122 3459 -35 
Q 3469 -192 3481 -345 
Q 3494 -499 3507 -634 
L 2822 -634 
Q 2835 -518 2844 -364 
Q 2854 -211 2864 -51 
Q 2874 109 2880 259 
Q 2886 410 2886 518 
L 2886 1453 
L 1402 1453 
L 1402 998 
L 813 998 
Q 832 1203 845 1475 
Q 858 1747 858 1952 
L 858 3334 
Q 858 3501 845 3686 
Q 832 3872 813 3994 
Q 1050 3962 1565 3946 
Q 2080 3930 2886 3923 
L 2886 4224 
Q 2886 4448 2883 4605 
Q 2880 4762 2870 4874 
Q 2861 4986 2851 5056 
Q 2842 5126 2822 5178 
Q 3002 5158 3165 5148 
Q 3328 5139 3501 5139 
Q 3578 5139 3587 5116 
Q 3597 5094 3520 5024 
Q 3443 4954 3443 4672 
L 3443 3923 
Q 4288 3930 4816 3946 
Q 5344 3962 5581 3994 
Q 5574 3930 5568 3830 
Q 5562 3731 5558 3622 
Q 5555 3514 5552 3402 
Q 5549 3290 5549 3206 
L 5549 1978 
Q 5549 1786 5558 1526 
Q 5568 1267 5581 1062 
L 4973 1062 
L 4973 1453 
L 3443 1453 
z
M 4973 1933 
L 4973 3443 
L 3443 3443 
L 3443 1933 
L 4973 1933 
z
M 2886 1933 
L 2886 3443 
L 1402 3443 
L 1402 1933 
L 2886 1933 
z
" transform="scale(0.015625)"/>
        <path id="STHeitiTC-Medium-4f4d" d="M 3155 742 
Q 3066 1210 2931 1741 
Q 2797 2272 2611 2803 
L 3174 2950 
Q 3334 2445 3484 1913 
Q 3635 1382 3757 890 
L 3155 742 
z
M 6029 3450 
Q 5907 3469 5756 3481 
Q 5606 3494 5392 3504 
Q 5178 3514 4883 3517 
Q 4589 3520 4186 3520 
Q 3776 3520 3481 3517 
Q 3187 3514 2976 3504 
Q 2765 3494 2614 3481 
Q 2464 3469 2349 3450 
L 2349 4051 
Q 2470 4038 2620 4025 
Q 2771 4013 2982 4006 
Q 3194 4000 3488 3997 
Q 3782 3994 4186 3994 
Q 4589 3994 4883 3997 
Q 5178 4000 5392 4006 
Q 5606 4013 5756 4025 
Q 5907 4038 6029 4051 
L 6029 3450 
z
M 3942 4102 
Q 3878 4320 3779 4541 
Q 3680 4762 3552 4966 
L 4173 5197 
Q 4250 5024 4365 4797 
Q 4480 4570 4595 4352 
L 3942 4102 
z
M 1152 2643 
Q 922 2246 627 1888 
Q 557 2035 461 2172 
Q 365 2310 237 2406 
Q 358 2515 496 2672 
Q 634 2829 768 3024 
Q 902 3219 1027 3446 
Q 1152 3674 1248 3923 
Q 1363 4230 1459 4556 
Q 1555 4883 1606 5139 
Q 1760 5069 1939 5008 
Q 2118 4947 2246 4922 
Q 2349 4902 2352 4857 
Q 2355 4813 2253 4755 
Q 2234 4742 2195 4688 
Q 2157 4634 2096 4515 
Q 2035 4397 1939 4195 
Q 1843 3994 1702 3693 
L 1702 -685 
L 1082 -685 
Q 1107 -410 1129 -32 
Q 1152 346 1152 691 
L 1152 2643 
z
M 4109 230 
Q 4211 608 4307 995 
Q 4403 1382 4480 1753 
Q 4557 2125 4617 2461 
Q 4678 2797 4717 3066 
Q 4794 3040 4899 3011 
Q 5005 2982 5104 2960 
Q 5203 2938 5289 2922 
Q 5376 2906 5421 2906 
Q 5485 2906 5488 2877 
Q 5491 2848 5434 2803 
Q 5408 2784 5382 2739 
Q 5357 2694 5318 2595 
Q 5280 2496 5225 2323 
Q 5171 2150 5094 1872 
Q 5018 1594 4912 1190 
Q 4806 787 4666 230 
Q 4954 230 5178 233 
Q 5402 237 5578 243 
Q 5754 250 5894 262 
Q 6035 275 6163 288 
L 6163 -346 
Q 6029 -333 5869 -320 
Q 5709 -307 5475 -297 
Q 5242 -288 4909 -281 
Q 4576 -275 4090 -275 
Q 3610 -275 3280 -278 
Q 2950 -282 2720 -291 
Q 2490 -301 2333 -313 
Q 2176 -326 2042 -346 
L 2042 288 
Q 2176 275 2317 262 
Q 2458 250 2640 243 
Q 2822 237 3052 233 
Q 3283 230 3590 230 
L 4109 230 
z
" transform="scale(0.015625)"/>
        <path id="STHeitiTC-Medium-6570" d="M 3200 1472 
Q 3117 1190 3049 1014 
Q 2982 838 2899 691 
Q 3046 640 3180 585 
Q 3315 531 3450 461 
Q 3347 352 3286 269 
Q 3226 186 3168 64 
Q 3040 134 2912 201 
Q 2784 269 2637 326 
Q 2496 179 2323 67 
Q 2150 -45 1926 -137 
Q 1702 -230 1417 -310 
Q 1133 -390 781 -474 
Q 717 -346 595 -198 
Q 474 -51 346 45 
Q 934 58 1392 157 
Q 1850 256 2157 493 
Q 1914 563 1635 617 
Q 1357 672 1030 717 
Q 1126 883 1216 1072 
Q 1306 1261 1395 1485 
Q 877 1485 563 1446 
L 563 1901 
Q 742 1882 982 1872 
Q 1222 1862 1530 1856 
Q 1574 1984 1616 2115 
Q 1658 2246 1696 2394 
Q 1843 2336 1955 2310 
Q 2067 2285 2214 2272 
Q 2342 2259 2345 2233 
Q 2349 2208 2253 2144 
Q 2221 2118 2173 2060 
Q 2125 2003 2048 1856 
Q 2368 1856 2598 1859 
Q 2829 1862 3001 1865 
Q 3174 1869 3302 1878 
Q 3430 1888 3552 1901 
L 3552 1446 
Q 3482 1459 3376 1465 
Q 3270 1472 3200 1472 
z
M 1862 1491 
Q 1811 1389 1753 1261 
Q 1696 1133 1626 979 
Q 1869 941 2077 902 
Q 2285 864 2470 819 
Q 2541 928 2614 1107 
Q 2688 1286 2739 1485 
Q 2515 1491 2291 1491 
Q 2067 1491 1862 1491 
z
M 4378 2739 
Q 4384 2291 4441 1936 
Q 4499 1581 4627 1299 
Q 4813 1722 4931 2288 
Q 5050 2854 5088 3642 
L 4352 3642 
Q 4294 3450 4201 3245 
Q 4109 3040 3997 2838 
Q 3885 2637 3760 2448 
Q 3635 2259 3520 2112 
Q 3366 2355 3206 2458 
Q 3398 2720 3561 3037 
Q 3725 3354 3846 3699 
Q 3968 4045 4045 4403 
Q 4122 4762 4147 5107 
Q 4294 5056 4486 5021 
Q 4678 4986 4800 4973 
Q 4870 4966 4880 4924 
Q 4890 4883 4781 4832 
Q 4768 4826 4745 4797 
Q 4723 4768 4691 4688 
Q 4659 4608 4608 4461 
Q 4557 4314 4480 4064 
L 5216 4064 
Q 5498 4064 5690 4077 
Q 5882 4090 6003 4115 
L 6003 3597 
Q 5926 3610 5808 3622 
Q 5690 3635 5562 3635 
Q 5530 3110 5472 2688 
Q 5414 2266 5337 1923 
Q 5261 1581 5158 1315 
Q 5056 1050 4934 832 
Q 5114 627 5386 476 
Q 5658 326 6112 186 
Q 5978 58 5898 -80 
Q 5818 -218 5754 -429 
Q 5523 -288 5350 -176 
Q 5178 -64 5046 35 
Q 4915 134 4819 227 
Q 4723 320 4640 416 
Q 4416 166 4064 -70 
Q 3712 -307 3194 -531 
Q 3136 -429 3037 -313 
Q 2938 -198 2803 -90 
Q 3008 -45 3229 41 
Q 3450 128 3658 246 
Q 3866 365 4048 512 
Q 4230 659 4365 826 
Q 4269 998 4195 1216 
Q 4122 1434 4067 1677 
Q 4013 1920 3984 2173 
Q 3955 2426 3955 2675 
L 4378 2739 
z
M 1549 3462 
Q 1331 3462 1059 3452 
Q 787 3443 589 3424 
L 589 3878 
Q 832 3853 1139 3843 
Q 1446 3834 1850 3834 
L 1850 4435 
Q 1850 4614 1834 4774 
Q 1818 4934 1786 5101 
Q 1933 5088 2073 5081 
Q 2214 5075 2362 5075 
Q 2451 5075 2464 5036 
Q 2477 4998 2406 4966 
Q 2349 4934 2333 4902 
Q 2317 4870 2317 4781 
L 2317 3834 
Q 2675 3834 2995 3846 
Q 3315 3859 3507 3878 
L 3507 3424 
Q 3328 3443 3005 3456 
Q 2682 3469 2317 3469 
Q 2317 3174 2326 2937 
Q 2336 2701 2362 2451 
L 1805 2451 
Q 1830 2682 1840 2899 
Q 1850 3117 1850 3392 
Q 1734 3162 1625 2992 
Q 1517 2822 1392 2678 
Q 1267 2534 1113 2403 
Q 960 2272 755 2125 
Q 685 2234 573 2326 
Q 461 2419 282 2509 
Q 666 2630 1002 2896 
Q 1338 3162 1549 3462 
z
M 3386 4634 
Q 3360 4621 3331 4592 
Q 3302 4563 3260 4499 
Q 3219 4435 3158 4329 
Q 3098 4224 3014 4058 
Q 2944 4077 2832 4093 
Q 2720 4109 2560 4122 
Q 2669 4288 2733 4451 
Q 2797 4614 2861 4858 
Q 2995 4813 3142 4777 
Q 3290 4742 3386 4730 
Q 3456 4717 3459 4691 
Q 3462 4666 3386 4634 
z
M 973 4090 
Q 966 4237 947 4397 
Q 928 4557 883 4742 
L 1389 4806 
Q 1434 4640 1462 4477 
Q 1491 4314 1510 4166 
L 973 4090 
z
M 3046 2451 
Q 2918 2598 2774 2752 
Q 2630 2906 2464 3053 
L 2790 3302 
Q 2970 3149 3104 3017 
Q 3238 2886 3360 2765 
L 3046 2451 
z
" transform="scale(0.015625)"/>
       </defs>
       <use xlink:href="#STHeitiTC-Medium-4e2d"/>
       <use xlink:href="#STHeitiTC-Medium-4f4d" transform="translate(99.999985 0)"/>
       <use xlink:href="#STHeitiTC-Medium-6570" transform="translate(199.999969 0)"/>
      </g>
     </g>
    </g>
    <g id="xtick_3">
     <g id="line2d_3">
      <g>
       <use xlink:href="#mc02d47654b" x="328.19179" y="403.76" style="stroke: #000000; stroke-width: 0.8"/>
      </g>
     </g>
     <g id="text_3">
      <!-- P90 -->
      <g transform="translate(318.84093 419.67) scale(0.11 -0.11)">
       <defs>
        <path id="STHeitiTC-Medium-50" d="M 512 5069 
L 1472 5069 
Q 2291 5069 2547 5005 
Q 2803 4941 3017 4774 
Q 3232 4608 3353 4358 
Q 3475 4109 3475 3795 
Q 3475 3482 3356 3232 
Q 3238 2982 3017 2819 
Q 2797 2656 2477 2589 
Q 2157 2522 1344 2522 
L 1062 2522 
L 1062 384 
L 512 384 
L 512 5069 
z
M 1062 3053 
L 1792 3053 
Q 2438 3040 2672 3257 
Q 2906 3475 2906 3802 
Q 2906 4531 1830 4531 
L 1062 4531 
L 1062 3053 
z
" transform="scale(0.015625)"/>
        <path id="STHeitiTC-Medium-39" d="M 1984 2355 
Q 1798 2310 1613 2310 
Q 1043 2310 656 2716 
Q 269 3123 269 3737 
Q 269 4352 697 4768 
Q 1126 5184 1747 5184 
Q 2368 5184 2777 4758 
Q 3187 4333 3187 3738 
Q 3187 3411 3052 3081 
Q 2918 2752 2662 2368 
L 1248 250 
L 787 544 
L 1984 2355 
z
M 1728 2803 
Q 2112 2803 2381 3075 
Q 2650 3347 2650 3724 
Q 2650 4102 2381 4374 
Q 2112 4646 1728 4646 
Q 1344 4646 1075 4377 
Q 806 4109 806 3725 
Q 806 3341 1075 3072 
Q 1344 2803 1728 2803 
z
" transform="scale(0.015625)"/>
        <path id="STHeitiTC-Medium-30" d="M 1747 5184 
Q 2502 5184 2944 4547 
Q 3386 3910 3386 2723 
Q 3386 1536 2938 902 
Q 2490 269 1738 269 
Q 986 269 573 893 
Q 160 1517 160 2729 
Q 160 3942 573 4563 
Q 986 5184 1747 5184 
z
M 1760 774 
Q 2285 774 2576 1283 
Q 2867 1792 2867 2726 
Q 2867 3661 2566 4160 
Q 2266 4659 1757 4659 
Q 1248 4659 966 4160 
Q 685 3661 685 2714 
Q 685 774 1760 774 
z
" transform="scale(0.015625)"/>
       </defs>
       <use xlink:href="#STHeitiTC-Medium-50"/>
       <use xlink:href="#STHeitiTC-Medium-39" transform="translate(59.199997 0)"/>
       <use xlink:href="#STHeitiTC-Medium-30" transform="translate(114.599991 0)"/>
      </g>
     </g>
    </g>
    <g id="xtick_4">
     <g id="line2d_4">
      <g>
       <use xlink:href="#mc02d47654b" x="432.221335" y="403.76" style="stroke: #000000; stroke-width: 0.8"/>
      </g>
     </g>
     <g id="text_4">
      <!-- P95 -->
      <g transform="translate(422.870476 419.67) scale(0.11 -0.11)">
       <defs>
        <path id="STHeitiTC-Medium-35" d="M 3194 4544 
L 1549 4544 
L 1338 3398 
Q 1613 3469 1856 3469 
Q 2477 3469 2893 3030 
Q 3309 2592 3309 1913 
Q 3309 1235 2861 752 
Q 2413 269 1664 269 
Q 1088 269 691 621 
Q 294 973 211 1587 
L 768 1587 
Q 851 1203 1107 998 
Q 1363 794 1690 794 
Q 2125 794 2438 1123 
Q 2752 1453 2752 1939 
Q 2752 2374 2480 2656 
Q 2208 2938 1747 2938 
Q 1286 2938 672 2675 
L 1120 5069 
L 3194 5069 
L 3194 4544 
z
" transform="scale(0.015625)"/>
       </defs>
       <use xlink:href="#STHeitiTC-Medium-50"/>
       <use xlink:href="#STHeitiTC-Medium-39" transform="translate(59.199997 0)"/>
       <use xlink:href="#STHeitiTC-Medium-35" transform="translate(114.599991 0)"/>
      </g>
     </g>
    </g>
    <g id="xtick_5">
     <g id="line2d_5">
      <g>
       <use xlink:href="#mc02d47654b" x="536.250881" y="403.76" style="stroke: #000000; stroke-width: 0.8"/>
      </g>
     </g>
     <g id="text_5">
      <!-- P99 -->
      <g transform="translate(526.900021 419.67) scale(0.11 -0.11)">
       <use xlink:href="#STHeitiTC-Medium-50"/>
       <use xlink:href="#STHeitiTC-Medium-39" transform="translate(59.199997 0)"/>
       <use xlink:href="#STHeitiTC-Medium-39" transform="translate(114.599991 0)"/>
      </g>
     </g>
    </g>
    <g id="xtick_6">
     <g id="line2d_6">
      <g>
       <use xlink:href="#mc02d47654b" x="640.280426" y="403.76" style="stroke: #000000; stroke-width: 0.8"/>
      </g>
     </g>
     <g id="text_6">
      <!-- 最大值 -->
      <g transform="translate(623.780426 419.67) scale(0.11 -0.11)">
       <defs>
        <path id="STHeitiTC-Medium-6700" d="M 4659 3789 
L 1818 3789 
L 1818 3450 
L 4659 3450 
L 4659 3789 
z
M 5216 3053 
Q 5062 3066 4905 3075 
Q 4749 3085 4528 3088 
Q 4307 3091 4000 3094 
Q 3693 3098 3245 3098 
Q 2835 3098 2534 3094 
Q 2234 3091 2003 3088 
Q 1773 3085 1603 3075 
Q 1434 3066 1280 3053 
Q 1306 3110 1315 3187 
Q 1325 3264 1325 3456 
L 1325 4506 
Q 1325 4698 1315 4784 
Q 1306 4870 1280 4922 
Q 1434 4909 1613 4902 
Q 1792 4896 2025 4893 
Q 2259 4890 2556 4886 
Q 2854 4883 3245 4883 
Q 3661 4883 3965 4886 
Q 4269 4890 4496 4893 
Q 4723 4896 4892 4902 
Q 5062 4909 5216 4922 
Q 5197 4870 5187 4745 
Q 5178 4621 5178 4506 
L 5178 3456 
Q 5178 3347 5187 3244 
Q 5197 3142 5216 3053 
z
M 4659 4499 
L 1818 4499 
L 1818 4141 
L 4659 4141 
L 4659 4499 
z
M 2624 1600 
L 1523 1600 
L 1523 1152 
L 2624 1152 
L 2624 1600 
z
M 2624 826 
L 1523 826 
L 1523 333 
L 2624 461 
L 2624 826 
z
M 1523 2349 
L 1523 1939 
L 2624 1939 
L 2624 2349 
L 1523 2349 
z
M 1082 2342 
Q 973 2336 819 2326 
Q 666 2317 429 2298 
L 429 2816 
Q 659 2797 857 2784 
Q 1056 2771 1337 2764 
Q 1619 2758 2048 2755 
Q 2477 2752 3174 2752 
Q 3846 2752 4278 2755 
Q 4710 2758 5004 2764 
Q 5299 2771 5507 2784 
Q 5715 2797 5933 2816 
L 5933 2298 
Q 5709 2317 5497 2326 
Q 5286 2336 4979 2342 
Q 4672 2349 4217 2349 
Q 3763 2349 3066 2349 
L 3066 243 
Q 3066 -13 3075 -221 
Q 3085 -429 3110 -634 
L 2579 -634 
Q 2592 -467 2605 -300 
Q 2618 -134 2624 51 
L 1875 -51 
Q 1606 -90 1328 -141 
Q 1050 -192 659 -275 
Q 640 -134 605 3 
Q 570 141 531 256 
Q 698 262 832 268 
Q 966 275 1082 288 
L 1082 2342 
z
M 3962 1542 
Q 4019 1248 4131 979 
Q 4243 710 4397 512 
Q 4627 781 4774 1017 
Q 4922 1254 4986 1549 
Q 4659 1549 4406 1549 
Q 4154 1549 3962 1542 
z
M 3507 1530 
Q 3373 1517 3258 1510 
L 3258 1984 
Q 3520 1952 3805 1945 
Q 4090 1939 4454 1939 
Q 4806 1939 5075 1945 
Q 5344 1952 5594 1984 
Q 5466 1440 5261 1030 
Q 5056 621 4749 243 
Q 4992 96 5309 3 
Q 5626 -90 5971 -102 
Q 5882 -250 5821 -381 
Q 5760 -512 5722 -691 
Q 5338 -576 5011 -422 
Q 4685 -269 4442 -90 
Q 4282 -237 4058 -413 
Q 3834 -589 3565 -755 
Q 3494 -659 3382 -556 
Q 3270 -454 3136 -384 
Q 3411 -262 3670 -105 
Q 3930 51 4102 205 
Q 3725 659 3507 1530 
z
" transform="scale(0.015625)"/>
        <path id="STHeitiTC-Medium-5927" d="M 3283 2240 
Q 3245 2054 3200 1897 
Q 3155 1741 3097 1600 
Q 3040 1459 2973 1321 
Q 2906 1184 2829 1043 
Q 2598 614 2112 204 
Q 1626 -205 928 -550 
Q 819 -384 694 -275 
Q 570 -166 384 -58 
Q 691 32 940 134 
Q 1190 237 1401 365 
Q 1613 493 1801 656 
Q 1990 819 2182 1030 
Q 2451 1318 2624 1792 
Q 2797 2266 2848 2963 
Q 2131 2957 1587 2944 
Q 1043 2931 640 2906 
L 640 3520 
Q 1056 3488 1603 3475 
Q 2150 3462 2874 3456 
Q 2899 4051 2896 4435 
Q 2893 4819 2867 5094 
Q 3053 5069 3245 5056 
Q 3437 5043 3597 5056 
Q 3674 5062 3683 5036 
Q 3693 5011 3622 4960 
Q 3565 4915 3542 4822 
Q 3520 4730 3507 4582 
Q 3488 4262 3469 3971 
Q 3450 3680 3430 3456 
Q 4205 3456 4784 3472 
Q 5363 3488 5792 3520 
L 5792 2906 
Q 5357 2938 4771 2950 
Q 4186 2963 3398 2963 
Q 3526 2381 3811 1865 
Q 4096 1350 4518 934 
Q 4813 646 5213 438 
Q 5613 230 6016 173 
Q 5824 38 5696 -128 
Q 5568 -294 5478 -512 
Q 5267 -410 5049 -262 
Q 4832 -115 4630 51 
Q 4429 218 4256 397 
Q 4083 576 3962 742 
Q 3725 1062 3568 1417 
Q 3411 1773 3283 2240 
z
" transform="scale(0.015625)"/>
       </defs>
       <use xlink:href="#STHeitiTC-Medium-6700"/>
       <use xlink:href="#STHeitiTC-Medium-5927" transform="translate(99.999985 0)"/>
       <use xlink:href="#STHeitiTC-Medium-503c" transform="translate(199.999969 0)"/>
      </g>
     </g>
    </g>
   </g>
   <g id="matplotlib.axis_2">
    <g id="ytick_1">
     <g id="line2d_7">
      <path d="M 51.213125 403.76 
L 709.2 403.76 
" clip-path="url(#pcc828edfa9)" style="fill: none; stroke-dasharray: 2.96,1.28; stroke-dashoffset: 0; stroke: #b0b0b0; stroke-opacity: 0.5; stroke-width: 0.8"/>
     </g>
     <g id="line2d_8">
      <defs>
       <path id="m5c5ad1ab35" d="M 0 0 
L -3.5 0 
" style="stroke: #000000; stroke-width: 0.8"/>
      </defs>
      <g>
       <use xlink:href="#m5c5ad1ab35" x="51.213125" y="403.76" style="stroke: #000000; stroke-width: 0.8"/>
      </g>
     </g>
     <g id="text_7">
      <!-- 0 -->
      <g transform="translate(38.6725 407.81) scale(0.1 -0.1)">
       <use xlink:href="#STHeitiTC-Medium-30"/>
      </g>
     </g>
    </g>
    <g id="ytick_2">
     <g id="line2d_9">
      <path d="M 51.213125 327.693411 
L 709.2 327.693411 
" clip-path="url(#pcc828edfa9)" style="fill: none; stroke-dasharray: 2.96,1.28; stroke-dashoffset: 0; stroke: #b0b0b0; stroke-opacity: 0.5; stroke-width: 0.8"/>
     </g>
     <g id="line2d_10">
      <g>
       <use xlink:href="#m5c5ad1ab35" x="51.213125" y="327.693411" style="stroke: #000000; stroke-width: 0.8"/>
      </g>
     </g>
     <g id="text_8">
      <!-- 50 -->
      <g transform="translate(33.131875 331.743411) scale(0.1 -0.1)">
       <use xlink:href="#STHeitiTC-Medium-35"/>
       <use xlink:href="#STHeitiTC-Medium-30" transform="translate(55.399994 0)"/>
      </g>
     </g>
    </g>
    <g id="ytick_3">
     <g id="line2d_11">
      <path d="M 51.213125 251.626822 
L 709.2 251.626822 
" clip-path="url(#pcc828edfa9)" style="fill: none; stroke-dasharray: 2.96,1.28; stroke-dashoffset: 0; stroke: #b0b0b0; stroke-opacity: 0.5; stroke-width: 0.8"/>
     </g>
     <g id="line2d_12">
      <g>
       <use xlink:href="#m5c5ad1ab35" x="51.213125" y="251.626822" style="stroke: #000000; stroke-width: 0.8"/>
      </g>
     </g>
     <g id="text_9">
      <!-- 100 -->
      <g transform="translate(27.59125 255.676822) scale(0.1 -0.1)">
       <defs>
        <path id="STHeitiTC-Medium-31" d="M 2131 384 
L 1587 384 
L 1587 4531 
L 826 4531 
L 1158 5069 
L 2131 5069 
L 2131 384 
z
" transform="scale(0.015625)"/>
       </defs>
       <use xlink:href="#STHeitiTC-Medium-31"/>
       <use xlink:href="#STHeitiTC-Medium-30" transform="translate(55.399994 0)"/>
       <use xlink:href="#STHeitiTC-Medium-30" transform="translate(110.799988 0)"/>
      </g>
     </g>
    </g>
    <g id="ytick_4">
     <g id="line2d_13">
      <path d="M 51.213125 175.560232 
L 709.2 175.560232 
" clip-path="url(#pcc828edfa9)" style="fill: none; stroke-dasharray: 2.96,1.28; stroke-dashoffset: 0; stroke: #b0b0b0; stroke-opacity: 0.5; stroke-width: 0.8"/>
     </g>
     <g id="line2d_14">
      <g>
       <use xlink:href="#m5c5ad1ab35" x="51.213125" y="175.560232" style="stroke: #000000; stroke-width: 0.8"/>
      </g>
     </g>
     <g id="text_10">
      <!-- 150 -->
      <g transform="translate(27.59125 179.610232) scale(0.1 -0.1)">
       <use xlink:href="#STHeitiTC-Medium-31"/>
       <use xlink:href="#STHeitiTC-Medium-35" transform="translate(55.399994 0)"/>
       <use xlink:href="#STHeitiTC-Medium-30" transform="translate(110.799988 0)"/>
      </g>
     </g>
    </g>
    <g id="ytick_5">
     <g id="line2d_15">
      <path d="M 51.213125 99.493643 
L 709.2 99.493643 
" clip-path="url(#pcc828edfa9)" style="fill: none; stroke-dasharray: 2.96,1.28; stroke-dashoffset: 0; stroke: #b0b0b0; stroke-opacity: 0.5; stroke-width: 0.8"/>
     </g>
     <g id="line2d_16">
      <g>
       <use xlink:href="#m5c5ad1ab35" x="51.213125" y="99.493643" style="stroke: #000000; stroke-width: 0.8"/>
      </g>
     </g>
     <g id="text_11">
      <!-- 200 -->
      <g transform="translate(27.59125 103.543643) scale(0.1 -0.1)">
       <defs>
        <path id="STHeitiTC-Medium-32" d="M 3360 384 
L 90 384 
L 1914 2355 
Q 2374 2842 2566 3123 
Q 2758 3405 2758 3763 
Q 2758 4122 2480 4390 
Q 2202 4659 1789 4659 
Q 1376 4659 1101 4368 
Q 826 4077 787 3539 
L 256 3539 
Q 288 4294 736 4739 
Q 1184 5184 1821 5184 
Q 2458 5184 2877 4771 
Q 3296 4358 3296 3763 
Q 3296 3328 3065 2950 
Q 2835 2573 2368 2074 
L 1293 915 
L 3360 915 
L 3360 384 
z
" transform="scale(0.015625)"/>
       </defs>
       <use xlink:href="#STHeitiTC-Medium-32"/>
       <use xlink:href="#STHeitiTC-Medium-30" transform="translate(55.399994 0)"/>
       <use xlink:href="#STHeitiTC-Medium-30" transform="translate(110.799988 0)"/>
      </g>
     </g>
    </g>
    <g id="ytick_6">
     <g id="line2d_17">
      <path d="M 51.213125 23.427054 
L 709.2 23.427054 
" clip-path="url(#pcc828edfa9)" style="fill: none; stroke-dasharray: 2.96,1.28; stroke-dashoffset: 0; stroke: #b0b0b0; stroke-opacity: 0.5; stroke-width: 0.8"/>
     </g>
     <g id="line2d_18">
      <g>
       <use xlink:href="#m5c5ad1ab35" x="51.213125" y="23.427054" style="stroke: #000000; stroke-width: 0.8"/>
      </g>
     </g>
     <g id="text_12">
      <!-- 250 -->
      <g transform="translate(27.59125 27.477054) scale(0.1 -0.1)">
       <use xlink:href="#STHeitiTC-Medium-32"/>
       <use xlink:href="#STHeitiTC-Medium-35" transform="translate(55.399994 0)"/>
       <use xlink:href="#STHeitiTC-Medium-30" transform="translate(110.799988 0)"/>
      </g>
     </g>
    </g>
    <g id="text_13">
     <!-- 响应时间 (ms) -->
     <g transform="translate(21.995625 245.164375) rotate(-90) scale(0.12 -0.12)">
      <defs>
       <path id="STHeitiTC-Medium-54cd" d="M 4429 2605 
L 3910 2605 
L 3910 1210 
L 4429 1210 
L 4429 2605 
z
M 4883 717 
Q 4755 736 4585 742 
Q 4416 749 4173 749 
Q 3930 749 3757 739 
Q 3584 730 3456 710 
Q 3482 1030 3488 1289 
Q 3494 1549 3494 1888 
Q 3494 2042 3494 2211 
Q 3494 2381 3488 2544 
Q 3482 2707 3475 2851 
Q 3469 2995 3456 3098 
Q 3590 3078 3756 3062 
Q 3923 3046 4173 3046 
Q 4416 3046 4582 3059 
Q 4749 3072 4883 3098 
Q 4870 2874 4864 2547 
Q 4858 2221 4858 1894 
Q 4858 1562 4864 1290 
Q 4870 1018 4883 717 
z
M 1075 851 
L 1075 -26 
L 544 -26 
Q 576 237 592 486 
Q 608 736 608 1005 
L 608 3738 
Q 608 3968 595 4201 
Q 582 4435 563 4544 
Q 762 4518 986 4508 
Q 1210 4499 1395 4499 
Q 1581 4499 1785 4508 
Q 1990 4518 2189 4544 
Q 2170 4416 2157 4211 
Q 2144 4006 2144 3738 
L 2144 1280 
Q 2144 1056 2150 848 
Q 2157 640 2189 397 
L 1683 397 
L 1683 851 
L 1075 851 
z
M 1683 1299 
L 1683 4038 
L 1075 4038 
L 1075 1299 
L 1683 1299 
z
M 3482 4250 
Q 3533 4506 3565 4736 
Q 3597 4966 3622 5229 
Q 3782 5178 3945 5152 
Q 4109 5126 4275 5126 
Q 4461 5126 4307 4986 
Q 4262 4947 4224 4892 
Q 4186 4838 4144 4755 
Q 4102 4672 4051 4550 
Q 4000 4429 3936 4250 
L 4602 4250 
Q 5152 4243 5440 4262 
Q 5728 4282 5850 4314 
Q 5830 4083 5824 3820 
Q 5818 3558 5818 3155 
L 5818 -115 
Q 5818 -230 5789 -310 
Q 5760 -390 5654 -451 
Q 5549 -512 5350 -566 
Q 5152 -621 4813 -685 
Q 4794 -550 4739 -406 
Q 4685 -262 4576 -58 
Q 4813 -70 4960 -60 
Q 5107 -51 5187 -22 
Q 5267 6 5292 64 
Q 5318 122 5318 211 
L 5318 3795 
L 3053 3795 
L 3053 -621 
L 2502 -621 
Q 2534 -282 2550 22 
Q 2566 326 2566 691 
L 2566 3155 
Q 2566 3354 2563 3517 
Q 2560 3680 2557 3817 
Q 2554 3955 2544 4073 
Q 2534 4192 2522 4314 
Q 2637 4288 2851 4272 
Q 3066 4256 3482 4250 
z
" transform="scale(0.015625)"/>
       <path id="STHeitiTC-Medium-5e94" d="M 2605 781 
Q 2566 966 2496 1193 
Q 2426 1421 2333 1661 
Q 2240 1901 2134 2141 
Q 2029 2381 1920 2598 
L 2438 2778 
Q 2624 2374 2813 1907 
Q 3002 1440 3162 998 
L 2605 781 
z
M 5920 3872 
Q 5830 3885 5680 3894 
Q 5530 3904 5331 3910 
Q 5133 3917 4896 3920 
Q 4659 3923 4403 3923 
L 1606 3923 
Q 1606 3245 1596 2729 
Q 1587 2214 1561 1811 
Q 1536 1408 1491 1091 
Q 1446 774 1366 492 
Q 1286 211 1168 -61 
Q 1050 -333 883 -646 
Q 749 -506 633 -419 
Q 518 -333 365 -262 
Q 538 -32 669 198 
Q 800 429 889 701 
Q 979 973 1027 1309 
Q 1075 1645 1091 2093 
Q 1107 2541 1084 3117 
Q 1062 3693 1018 4448 
Q 1158 4435 1366 4425 
Q 1574 4416 1878 4409 
Q 2182 4403 2601 4400 
Q 3021 4397 3584 4397 
Q 4141 4397 4544 4400 
Q 4947 4403 5225 4409 
Q 5504 4416 5667 4425 
Q 5830 4435 5920 4448 
L 5920 3872 
z
M 3622 1389 
Q 3610 1837 3507 2275 
Q 3405 2714 3206 3213 
L 3757 3354 
Q 3891 2893 4006 2413 
Q 4122 1933 4198 1510 
L 3622 1389 
z
M 3334 4435 
Q 3277 4621 3193 4819 
Q 3110 5018 3040 5126 
L 3712 5306 
Q 3763 5139 3814 4960 
Q 3866 4781 3923 4550 
L 3334 4435 
z
M 4506 186 
Q 4992 192 5360 205 
Q 5728 218 6035 250 
L 6035 -339 
Q 5632 -307 5104 -291 
Q 4576 -275 3821 -275 
Q 3424 -275 3101 -278 
Q 2778 -282 2509 -291 
Q 2240 -301 2016 -310 
Q 1792 -320 1594 -339 
L 1587 250 
Q 1798 230 2019 220 
Q 2240 211 2512 201 
Q 2784 192 3136 189 
Q 3488 186 3962 186 
Q 4115 397 4288 771 
Q 4461 1146 4621 1584 
Q 4781 2022 4909 2470 
Q 5037 2918 5094 3277 
Q 5267 3187 5452 3123 
Q 5638 3059 5747 3027 
Q 5837 3002 5843 2973 
Q 5850 2944 5766 2886 
Q 5715 2854 5638 2723 
Q 5562 2592 5472 2368 
Q 5389 2163 5267 1875 
Q 5146 1587 5011 1283 
Q 4877 979 4742 688 
Q 4608 397 4506 186 
z
" transform="scale(0.015625)"/>
       <path id="STHeitiTC-Medium-65f6" d="M 3488 1306 
Q 3450 1446 3398 1606 
Q 3347 1766 3289 1926 
Q 3232 2086 3171 2236 
Q 3110 2387 3053 2515 
L 3571 2694 
Q 3597 2560 3648 2406 
Q 3699 2253 3763 2096 
Q 3827 1939 3904 1788 
Q 3981 1638 4058 1510 
L 3488 1306 
z
M 4666 3731 
Q 4666 4301 4650 4646 
Q 4634 4992 4595 5197 
Q 4749 5178 4928 5168 
Q 5107 5158 5216 5165 
Q 5318 5171 5340 5136 
Q 5363 5101 5306 5069 
Q 5235 5030 5212 4969 
Q 5190 4909 5190 4819 
L 5190 3738 
Q 5408 3744 5600 3757 
Q 5792 3770 5958 3782 
L 5958 3194 
Q 5798 3213 5606 3222 
Q 5414 3232 5190 3238 
L 5190 19 
Q 5190 -166 5155 -288 
Q 5120 -410 4998 -483 
Q 4877 -557 4653 -601 
Q 4429 -646 4045 -678 
Q 4006 -288 3776 6 
Q 4064 -13 4240 -9 
Q 4416 -6 4512 16 
Q 4608 38 4637 86 
Q 4666 134 4666 211 
L 4666 3245 
L 3891 3245 
Q 3533 3245 3225 3232 
Q 2918 3219 2682 3194 
L 2682 3782 
Q 2912 3757 3225 3744 
Q 3539 3731 3891 3731 
L 4666 3731 
z
M 2010 4090 
L 979 4090 
L 979 2765 
L 2010 2765 
L 2010 4090 
z
M 2010 2317 
L 979 2317 
L 979 998 
L 2010 998 
L 2010 2317 
z
M 979 -288 
L 442 -288 
Q 474 -26 480 176 
Q 486 378 486 563 
L 486 3885 
Q 486 4051 480 4249 
Q 474 4448 448 4595 
Q 595 4563 835 4553 
Q 1075 4544 1498 4544 
Q 1914 4544 2157 4553 
Q 2400 4563 2541 4595 
Q 2515 4454 2508 4252 
Q 2502 4051 2502 3885 
L 2502 832 
Q 2502 608 2512 419 
Q 2522 230 2547 -13 
L 2010 -13 
L 2010 570 
L 979 570 
L 979 -288 
z
" transform="scale(0.015625)"/>
       <path id="STHeitiTC-Medium-95f4" d="M 1786 3898 
Q 1677 4186 1545 4410 
Q 1414 4634 1229 4851 
L 1741 5114 
Q 1926 4870 2064 4672 
Q 2202 4474 2342 4237 
L 1786 3898 
z
M 5715 4806 
Q 5702 4742 5699 4678 
Q 5696 4614 5693 4528 
Q 5690 4442 5690 4323 
Q 5690 4205 5690 4038 
L 5690 -51 
Q 5690 -256 5670 -371 
Q 5651 -486 5558 -553 
Q 5466 -621 5264 -659 
Q 5062 -698 4698 -742 
Q 4678 -576 4633 -432 
Q 4589 -288 4480 -96 
Q 4723 -128 4860 -134 
Q 4998 -141 5065 -112 
Q 5133 -83 5149 -9 
Q 5165 64 5165 198 
L 5165 4282 
L 3680 4282 
Q 3187 4282 2822 4243 
L 2822 4806 
Q 3206 4781 3539 4774 
Q 3872 4768 4275 4768 
Q 4672 4768 5024 4774 
Q 5376 4781 5715 4806 
z
M 4416 467 
Q 4326 474 4233 480 
Q 4141 486 4009 492 
Q 3878 499 3692 499 
Q 3507 499 3238 499 
Q 2970 499 2784 499 
Q 2598 499 2464 492 
Q 2330 486 2234 480 
Q 2138 474 2048 467 
Q 2061 525 2067 662 
Q 2074 800 2074 934 
L 2074 2950 
Q 2074 3078 2067 3216 
Q 2061 3354 2048 3411 
Q 2138 3398 2234 3395 
Q 2330 3392 2464 3385 
Q 2598 3379 2784 3379 
Q 2970 3379 3238 3379 
Q 3507 3379 3692 3379 
Q 3878 3379 4009 3385 
Q 4141 3392 4233 3395 
Q 4326 3398 4416 3411 
Q 4403 3354 4393 3216 
Q 4384 3078 4384 2950 
L 4384 934 
Q 4384 800 4393 662 
Q 4403 525 4416 467 
z
M 1318 3680 
Q 1280 3635 1280 3488 
L 1280 -678 
L 678 -678 
Q 710 -397 723 -137 
Q 736 122 736 448 
L 736 3117 
Q 736 3347 729 3536 
Q 723 3725 710 3898 
Q 877 3866 1001 3856 
Q 1126 3846 1229 3853 
Q 1472 3872 1318 3680 
z
M 3878 2970 
L 2573 2970 
L 2573 2176 
L 3878 2176 
L 3878 2970 
z
M 3878 1760 
L 2573 1760 
L 2573 934 
L 3878 934 
L 3878 1760 
z
" transform="scale(0.015625)"/>
       <path id="STHeitiTC-Medium-20" transform="scale(0.015625)"/>
       <path id="STHeitiTC-Medium-28" d="M 2048 5779 
Q 1709 5082 1526 4237 
Q 1344 3392 1344 2541 
Q 1344 877 1888 -442 
L 1312 -442 
Q 787 819 787 2483 
Q 787 4275 1440 5779 
L 2048 5779 
z
" transform="scale(0.015625)"/>
       <path id="STHeitiTC-Medium-6d" d="M 5613 384 
L 5075 384 
L 5075 2285 
Q 5075 2739 5020 2950 
Q 4966 3162 4784 3306 
Q 4602 3450 4304 3450 
Q 4006 3450 3744 3258 
Q 3482 3066 3379 2736 
Q 3277 2406 3277 1760 
L 3277 384 
L 2758 384 
L 2758 2170 
Q 2758 2694 2704 2924 
Q 2650 3155 2464 3302 
Q 2278 3450 1996 3450 
Q 1715 3450 1462 3274 
Q 1210 3098 1088 2813 
Q 966 2528 966 1869 
L 966 384 
L 442 384 
L 442 3872 
L 966 3872 
L 966 3379 
Q 1414 3962 2086 3962 
Q 2451 3962 2748 3766 
Q 3046 3571 3174 3213 
Q 3392 3578 3718 3770 
Q 4045 3962 4410 3962 
Q 4909 3962 5261 3610 
Q 5613 3258 5613 2285 
L 5613 384 
z
" transform="scale(0.015625)"/>
       <path id="STHeitiTC-Medium-73" d="M 2259 3462 
L 1920 3110 
Q 1542 3462 1229 3462 
Q 1030 3462 896 3337 
Q 762 3213 762 3030 
Q 762 2848 912 2710 
Q 1062 2573 1446 2371 
Q 1830 2170 2038 1926 
Q 2246 1683 2246 1331 
Q 2246 883 1936 576 
Q 1626 269 1171 269 
Q 538 269 115 806 
L 448 1178 
Q 794 774 1152 774 
Q 1395 774 1568 934 
Q 1741 1094 1741 1308 
Q 1741 1523 1584 1667 
Q 1427 1811 1046 2003 
Q 666 2195 470 2428 
Q 275 2662 275 3043 
Q 275 3424 553 3693 
Q 832 3962 1289 3962 
Q 1747 3962 2259 3462 
z
" transform="scale(0.015625)"/>
       <path id="STHeitiTC-Medium-29" d="M 922 5779 
Q 1574 4275 1574 2483 
Q 1574 819 1050 -442 
L 474 -442 
Q 1018 877 1018 2541 
Q 1018 3392 835 4237 
Q 653 5082 314 5779 
L 922 5779 
z
" transform="scale(0.015625)"/>
      </defs>
      <use xlink:href="#STHeitiTC-Medium-54cd"/>
      <use xlink:href="#STHeitiTC-Medium-5e94" transform="translate(99.999985 0)"/>
      <use xlink:href="#STHeitiTC-Medium-65f6" transform="translate(199.999969 0)"/>
      <use xlink:href="#STHeitiTC-Medium-95f4" transform="translate(299.999954 0)"/>
      <use xlink:href="#STHeitiTC-Medium-20" transform="translate(399.999939 0)"/>
      <use xlink:href="#STHeitiTC-Medium-28" transform="translate(424.999924 0)"/>
      <use xlink:href="#STHeitiTC-Medium-6d" transform="translate(461.899918 0)"/>
      <use xlink:href="#STHeitiTC-Medium-73" transform="translate(555.699905 0)"/>
      <use xlink:href="#STHeitiTC-Medium-29" transform="translate(594.499893 0)"/>
     </g>
    </g>
   </g>
   <g id="patch_21">
    <path d="M 51.213125 403.76 
L 51.213125 10.8 
" style="fill: none; stroke: #000000; stroke-width: 0.8; stroke-linejoin: miter; stroke-linecap: square"/>
   </g>
   <g id="patch_22">
    <path d="M 709.2 403.76 
L 709.2 10.8 
" style="fill: none; stroke: #000000; stroke-width: 0.8; stroke-linejoin: miter; stroke-linecap: square"/>
   </g>
   <g id="patch_23">
    <path d="M 51.213125 403.76 
L 709.2 403.76 
" style="fill: none; stroke: #000000; stroke-width: 0.8; stroke-linejoin: miter; stroke-linecap: square"/>
   </g>
   <g id="patch_24">
    <path d="M 51.213125 10.8 
L 709.2 10.8 
" style="fill: none; stroke: #000000; stroke-width: 0.8; stroke-linejoin: miter; stroke-linecap: square"/>
   </g>
   <g id="legend_1">
    <g id="patch_25">
     <path d="M 58.213125 62.179688 
L 179.8725 62.179688 
Q 181.8725 62.179688 181.8725 60.179688 
L 181.8725 17.8 
Q 181.8725 15.8 179.8725 15.8 
L 58.213125 15.8 
Q 56.213125 15.8 56.213125 17.8 
L 56.213125 60.179688 
Q 56.213125 62.179688 58.213125 62.179688 
z
" style="fill: #ffffff; opacity: 0.8; stroke: #cccccc; stroke-linejoin: miter"/>
    </g>
    <g id="patch_26">
     <path d="M 60.213125 27.9 
L 80.213125 27.9 
L 80.213125 20.9 
L 60.213125 20.9 
z
" style="fill: #1f77b4; opacity: 0.8; stroke: #000000; stroke-linejoin: miter"/>
    </g>
    <g id="text_14">
     <!-- 分页查询AI预测结果 -->
     <g transform="translate(88.213125 27.9) scale(0.1 -0.1)">
      <defs>
       <path id="STHeitiTC-Medium-5206" d="M 6131 2669 
Q 5990 2579 5856 2400 
Q 5722 2221 5664 2054 
Q 5318 2310 5046 2550 
Q 4774 2790 4563 3049 
Q 4352 3309 4205 3606 
Q 4058 3904 3968 4282 
L 3597 4282 
Q 3373 4282 3142 4272 
Q 2912 4262 2726 4243 
L 2726 4768 
Q 2918 4749 3104 4736 
Q 3290 4723 3456 4723 
Q 3744 4723 3981 4732 
Q 4218 4742 4390 4768 
Q 4461 4352 4598 4035 
Q 4736 3718 4947 3472 
Q 5158 3226 5452 3034 
Q 5747 2842 6131 2669 
z
M 2470 4211 
Q 2374 4173 2278 4048 
Q 2182 3923 2131 3808 
Q 1971 3469 1836 3222 
Q 1702 2976 1555 2768 
Q 1408 2560 1222 2361 
Q 1037 2163 781 1920 
Q 691 2042 553 2147 
Q 416 2253 262 2330 
Q 877 2746 1267 3309 
Q 1658 3872 1888 4570 
Q 2035 4486 2185 4425 
Q 2336 4365 2464 4352 
Q 2541 4339 2544 4291 
Q 2547 4243 2470 4211 
z
M 2381 2074 
Q 2106 2074 1920 2064 
Q 1734 2054 1530 2029 
L 1530 2624 
Q 1683 2598 2016 2585 
Q 2349 2573 2854 2573 
Q 3155 2573 3481 2576 
Q 3808 2579 4096 2582 
Q 4384 2586 4614 2589 
Q 4845 2592 4954 2598 
L 4736 109 
Q 4717 -90 4659 -218 
Q 4602 -346 4470 -432 
Q 4339 -518 4121 -576 
Q 3904 -634 3565 -678 
Q 3533 -506 3462 -330 
Q 3392 -154 3270 6 
Q 3539 -19 3712 -12 
Q 3885 -6 3990 58 
Q 4096 122 4147 250 
Q 4198 378 4218 589 
L 4346 2074 
L 2912 2074 
Q 2880 1632 2777 1235 
Q 2675 838 2490 563 
Q 2336 339 2192 163 
Q 2048 -13 1894 -157 
Q 1741 -301 1568 -422 
Q 1395 -544 1184 -666 
Q 1075 -538 921 -426 
Q 768 -314 595 -243 
Q 1126 -26 1475 249 
Q 1824 525 1978 768 
Q 2163 1062 2259 1363 
Q 2355 1664 2381 2074 
z
" transform="scale(0.015625)"/>
       <path id="STHeitiTC-Medium-9875" d="M 5261 -698 
Q 5146 -570 4931 -410 
Q 4717 -250 4467 -86 
Q 4218 77 3958 221 
Q 3699 365 3494 461 
L 3846 922 
Q 4051 813 4297 681 
Q 4544 550 4793 409 
Q 5043 269 5283 128 
Q 5523 -13 5715 -134 
L 5261 -698 
z
M 3584 2406 
Q 3552 2381 3539 2285 
Q 3526 2189 3514 2048 
Q 3501 1830 3485 1660 
Q 3469 1491 3437 1344 
Q 3405 1197 3357 1059 
Q 3309 922 3238 774 
Q 2970 230 2358 -112 
Q 1747 -454 890 -646 
Q 819 -371 506 -83 
Q 915 -51 1296 48 
Q 1677 147 1981 300 
Q 2285 454 2493 665 
Q 2701 877 2771 1126 
Q 2861 1453 2902 1821 
Q 2944 2189 2925 2547 
Q 3085 2515 3261 2502 
Q 3437 2490 3539 2502 
Q 3629 2515 3635 2486 
Q 3642 2458 3584 2406 
z
M 3021 4269 
Q 2189 4269 1597 4256 
Q 1005 4243 557 4218 
L 557 4794 
Q 1043 4762 1676 4752 
Q 2310 4742 3226 4742 
Q 3686 4742 4067 4745 
Q 4448 4749 4774 4755 
Q 5101 4762 5376 4771 
Q 5651 4781 5894 4794 
L 5894 4218 
Q 5466 4243 4925 4256 
Q 4384 4269 3635 4269 
Q 3584 4090 3542 3882 
Q 3501 3674 3475 3488 
Q 3827 3488 4083 3491 
Q 4339 3494 4531 3497 
Q 4723 3501 4870 3510 
Q 5018 3520 5152 3533 
Q 5114 3347 5114 3040 
L 5114 1498 
Q 5114 1331 5123 1174 
Q 5133 1018 5158 870 
L 4538 870 
L 4538 3014 
L 1952 3014 
L 1952 806 
L 1338 806 
Q 1376 1094 1376 1434 
L 1376 3040 
Q 1376 3187 1369 3315 
Q 1363 3443 1344 3533 
Q 1472 3520 1859 3507 
Q 2246 3494 2938 3488 
Q 2970 3661 2989 3865 
Q 3008 4070 3021 4269 
z
" transform="scale(0.015625)"/>
       <path id="STHeitiTC-Medium-67e5" d="M 1805 1357 
L 1805 896 
L 4461 896 
L 4461 1357 
L 1805 1357 
z
M 4461 1741 
L 4461 2195 
L 1805 2195 
L 1805 1741 
L 4461 1741 
z
M 5741 -429 
Q 5504 -403 5235 -390 
Q 4966 -378 4649 -371 
Q 4333 -365 3961 -361 
Q 3590 -358 3142 -358 
Q 2694 -358 2320 -361 
Q 1946 -365 1629 -371 
Q 1312 -378 1046 -390 
Q 781 -403 544 -429 
L 544 122 
Q 781 102 1049 89 
Q 1318 77 1635 67 
Q 1952 58 2323 54 
Q 2694 51 3142 51 
Q 3590 51 3961 54 
Q 4333 58 4649 67 
Q 4966 77 5235 89 
Q 5504 102 5741 122 
L 5741 -429 
z
M 2886 4480 
Q 2880 4685 2861 4867 
Q 2842 5050 2822 5139 
Q 2989 5107 3136 5094 
Q 3283 5082 3450 5088 
Q 3654 5101 3507 4960 
Q 3437 4890 3405 4797 
Q 3373 4704 3373 4480 
Q 4166 4480 4745 4493 
Q 5325 4506 5754 4538 
L 5754 4045 
Q 5389 4077 4921 4086 
Q 4454 4096 3834 4102 
Q 4045 3834 4262 3648 
Q 4480 3462 4739 3334 
Q 4998 3206 5331 3126 
Q 5664 3046 6106 2989 
Q 6010 2886 5933 2723 
Q 5856 2560 5805 2426 
Q 5414 2522 5072 2653 
Q 4730 2784 4432 2979 
Q 4134 3174 3888 3449 
Q 3642 3725 3443 4102 
L 3373 4102 
L 3373 2592 
Q 3718 2592 3964 2595 
Q 4211 2598 4393 2604 
Q 4576 2611 4717 2620 
Q 4858 2630 4992 2643 
Q 4979 2579 4969 2492 
Q 4960 2406 4953 2313 
Q 4947 2221 4944 2128 
Q 4941 2035 4941 1971 
L 4941 1178 
Q 4941 1107 4944 1017 
Q 4947 928 4953 825 
Q 4960 723 4969 627 
Q 4979 531 4992 454 
Q 4845 467 4694 476 
Q 4544 486 4336 489 
Q 4128 493 3843 496 
Q 3558 499 3142 499 
Q 2726 499 2435 496 
Q 2144 493 1933 489 
Q 1722 486 1568 476 
Q 1414 467 1274 454 
Q 1306 589 1315 784 
Q 1325 979 1325 1178 
L 1325 2554 
Q 1178 2451 992 2339 
Q 806 2227 608 2118 
Q 563 2221 473 2358 
Q 384 2496 294 2605 
Q 582 2720 873 2880 
Q 1165 3040 1430 3232 
Q 1696 3424 1929 3641 
Q 2163 3859 2342 4102 
Q 1760 4096 1312 4086 
Q 864 4077 518 4045 
L 518 4538 
Q 954 4506 1530 4493 
Q 2106 4480 2886 4480 
z
M 2893 4102 
L 2797 4102 
Q 2682 3872 2554 3680 
Q 2426 3488 2266 3315 
Q 2106 3142 1901 2976 
Q 1696 2810 1434 2630 
Q 1549 2618 1683 2611 
Q 1818 2605 1987 2598 
Q 2157 2592 2377 2592 
Q 2598 2592 2893 2592 
L 2893 4102 
z
" transform="scale(0.015625)"/>
       <path id="STHeitiTC-Medium-8be2" d="M 1389 3821 
Q 1293 4077 1161 4320 
Q 1030 4563 832 4832 
L 1357 5094 
Q 1504 4845 1648 4595 
Q 1792 4346 1946 4096 
L 1389 3821 
z
M 4109 2067 
L 4109 2746 
L 3104 2746 
L 3104 2067 
L 4109 2067 
z
M 3104 1645 
L 3104 909 
L 4109 909 
L 4109 1645 
L 3104 1645 
z
M 4909 4237 
Q 5178 4237 5411 4253 
Q 5645 4269 5798 4301 
Q 5773 4115 5763 3948 
Q 5754 3782 5754 3597 
L 5754 294 
Q 5754 32 5712 -134 
Q 5670 -301 5552 -409 
Q 5434 -518 5213 -576 
Q 4992 -634 4634 -672 
Q 4627 -512 4569 -342 
Q 4512 -173 4403 -45 
Q 4698 -45 4867 -35 
Q 5037 -26 5123 19 
Q 5210 64 5235 160 
Q 5261 256 5261 422 
L 5261 3789 
L 3162 3789 
Q 3066 3622 2973 3468 
Q 2880 3315 2790 3174 
L 3616 3174 
Q 3923 3174 4192 3190 
Q 4461 3206 4627 3232 
Q 4602 3085 4592 2934 
Q 4582 2784 4582 2554 
L 4582 1018 
Q 4582 864 4585 749 
Q 4589 634 4592 531 
Q 4595 429 4604 336 
Q 4614 243 4627 134 
L 4109 134 
L 4109 486 
L 3104 486 
L 3104 -128 
L 2579 -128 
Q 2611 102 2620 310 
Q 2630 518 2630 762 
L 2630 2931 
Q 2547 2810 2470 2698 
Q 2394 2586 2310 2477 
Q 2202 2560 2080 2621 
Q 1958 2682 1830 2714 
Q 2042 2925 2243 3200 
Q 2445 3475 2624 3798 
Q 2803 4122 2950 4483 
Q 3098 4845 3206 5222 
Q 3354 5146 3546 5072 
Q 3738 4998 3878 4966 
Q 3949 4947 3949 4918 
Q 3949 4890 3866 4858 
Q 3827 4845 3792 4819 
Q 3757 4794 3709 4733 
Q 3661 4672 3590 4553 
Q 3520 4435 3405 4237 
L 4909 4237 
z
M 1056 2784 
Q 915 2784 812 2781 
Q 710 2778 627 2774 
Q 544 2771 477 2761 
Q 410 2752 339 2739 
L 339 3296 
Q 486 3270 627 3260 
Q 768 3251 973 3251 
Q 1229 3251 1357 3260 
Q 1485 3270 1606 3296 
Q 1574 3130 1555 2925 
Q 1536 2720 1536 2470 
L 1542 531 
Q 1690 678 1837 835 
Q 1984 992 2144 1178 
Q 2176 1024 2230 902 
Q 2285 781 2368 672 
L 1562 -141 
Q 1440 -262 1341 -384 
Q 1242 -506 1184 -608 
Q 1018 -320 768 -96 
Q 838 -45 915 6 
Q 992 58 1062 115 
L 1056 2784 
z
" transform="scale(0.015625)"/>
       <path id="STHeitiTC-Medium-41" d="M 4646 384 
L 4064 384 
L 3341 1952 
L 1408 1952 
L 691 384 
L 83 384 
L 2298 5254 
L 2464 5254 
L 4646 384 
z
M 3091 2509 
L 2381 4090 
L 1664 2509 
L 3091 2509 
z
" transform="scale(0.015625)"/>
       <path id="STHeitiTC-Medium-49" d="M 998 384 
L 448 384 
L 448 5069 
L 998 5069 
L 998 384 
z
" transform="scale(0.015625)"/>
       <path id="STHeitiTC-Medium-9884" d="M 5613 -646 
Q 5491 -512 5347 -368 
Q 5203 -224 5049 -83 
Q 4896 58 4739 186 
Q 4582 314 4435 416 
L 4768 838 
Q 5062 608 5379 349 
Q 5696 90 5990 -166 
L 5613 -646 
z
M 4659 2586 
Q 4634 2560 4595 2425 
Q 4557 2291 4550 2189 
Q 4544 2042 4534 1907 
Q 4525 1773 4515 1638 
Q 4506 1504 4486 1360 
Q 4467 1216 4442 1037 
Q 4352 461 3907 70 
Q 3462 -320 2688 -646 
Q 2611 -538 2499 -422 
Q 2387 -307 2227 -179 
Q 3104 45 3517 403 
Q 3930 762 3987 1293 
Q 4006 1498 4019 1677 
Q 4032 1856 4038 2025 
Q 4045 2195 4041 2361 
Q 4038 2528 4026 2714 
Q 4186 2682 4362 2666 
Q 4538 2650 4640 2662 
Q 4749 2675 4659 2586 
z
M 4032 4333 
Q 3686 4326 3430 4316 
Q 3174 4307 2963 4282 
L 2963 4838 
Q 3232 4806 3574 4793 
Q 3917 4781 4422 4781 
Q 4928 4781 5286 4793 
Q 5645 4806 5914 4838 
L 5914 4282 
Q 5670 4307 5353 4320 
Q 5037 4333 4608 4333 
Q 4550 4147 4496 3926 
Q 4442 3706 4390 3501 
Q 4851 3501 5158 3510 
Q 5466 3520 5690 3552 
Q 5670 3443 5660 3264 
Q 5651 3085 5651 2758 
L 5651 1613 
Q 5651 1389 5660 1200 
Q 5670 1011 5702 813 
L 5139 813 
L 5139 3085 
L 3494 3085 
L 3494 787 
L 2950 787 
Q 3008 1210 3008 1587 
L 3008 2758 
Q 3008 3046 2998 3228 
Q 2989 3411 2970 3552 
Q 3155 3526 3372 3516 
Q 3590 3507 3904 3501 
Q 3974 3712 4006 3913 
Q 4038 4115 4032 4333 
z
M 1786 -26 
Q 1786 -154 1754 -240 
Q 1722 -326 1626 -390 
Q 1530 -454 1360 -496 
Q 1190 -538 922 -570 
Q 909 -422 857 -284 
Q 806 -147 678 32 
Q 1005 -58 1139 -6 
Q 1274 45 1274 230 
L 1274 2496 
Q 704 2490 403 2458 
L 403 2976 
Q 570 2950 822 2940 
Q 1075 2931 1453 2931 
Q 1325 3123 1142 3321 
Q 960 3520 768 3674 
L 1120 3974 
Q 1216 3885 1315 3785 
Q 1414 3686 1510 3578 
L 1958 4307 
Q 1638 4307 1401 4304 
Q 1165 4301 998 4297 
Q 832 4294 720 4284 
Q 608 4275 544 4269 
L 544 4800 
Q 678 4774 976 4761 
Q 1274 4749 1658 4749 
Q 2035 4749 2323 4761 
Q 2611 4774 2739 4800 
Q 2637 4640 2534 4483 
Q 2432 4326 2323 4147 
Q 2214 3968 2083 3757 
Q 1952 3546 1792 3283 
Q 1843 3232 1884 3187 
Q 1926 3142 1971 3091 
L 1779 2931 
Q 2182 2938 2448 2954 
Q 2714 2970 2842 2989 
L 2554 1754 
L 2061 1850 
L 2278 2496 
L 1786 2496 
L 1786 -26 
z
" transform="scale(0.015625)"/>
       <path id="STHeitiTC-Medium-6d4b" d="M 1446 4013 
Q 1261 4186 1072 4320 
Q 883 4454 653 4582 
L 954 4973 
Q 1152 4858 1360 4726 
Q 1568 4595 1773 4461 
L 1446 4013 
z
M 3590 1171 
L 3590 4218 
L 2336 4218 
L 2336 1088 
L 1850 1088 
Q 1875 1299 1888 1577 
Q 1901 1856 1901 2099 
L 1901 3770 
Q 1901 4019 1888 4281 
Q 1875 4544 1862 4730 
Q 1946 4710 2038 4697 
Q 2131 4685 2252 4675 
Q 2374 4666 2537 4662 
Q 2701 4659 2931 4659 
Q 3168 4659 3341 4662 
Q 3514 4666 3642 4675 
Q 3770 4685 3869 4697 
Q 3968 4710 4070 4730 
Q 4064 4653 4057 4541 
Q 4051 4429 4044 4297 
Q 4038 4166 4035 4028 
Q 4032 3891 4032 3770 
L 4032 2131 
Q 4032 1862 4048 1603 
Q 4064 1344 4083 1171 
L 3590 1171 
z
M 1318 2400 
Q 1146 2534 896 2675 
Q 646 2816 416 2912 
L 710 3405 
Q 941 3283 1184 3152 
Q 1427 3021 1619 2912 
L 1318 2400 
z
M 4378 941 
Q 4390 1043 4403 1171 
Q 4416 1299 4425 1430 
Q 4435 1562 4438 1690 
Q 4442 1818 4442 1926 
L 4442 3520 
Q 4442 3635 4435 3760 
Q 4429 3885 4419 4009 
Q 4410 4134 4397 4246 
Q 4384 4358 4371 4435 
Q 4499 4403 4633 4403 
Q 4768 4403 4890 4416 
Q 4954 4429 4960 4393 
Q 4966 4358 4909 4307 
Q 4877 4275 4877 4122 
L 4877 1933 
Q 4877 1722 4889 1440 
Q 4902 1158 4922 941 
L 4378 941 
z
M 5914 4922 
Q 5875 4890 5862 4851 
Q 5850 4813 5850 4736 
L 5850 77 
Q 5850 -122 5830 -237 
Q 5811 -352 5721 -429 
Q 5632 -506 5440 -557 
Q 5248 -608 4902 -672 
Q 4870 -512 4812 -352 
Q 4755 -192 4646 -13 
Q 4890 -38 5040 -35 
Q 5190 -32 5273 6 
Q 5357 45 5385 134 
Q 5414 224 5414 371 
L 5414 4102 
Q 5414 4397 5398 4669 
Q 5382 4941 5363 5094 
Q 5491 5069 5603 5062 
Q 5715 5056 5862 5062 
Q 5958 5069 5971 5021 
Q 5984 4973 5914 4922 
z
M 3232 3578 
Q 3187 3514 3187 3002 
Q 3187 2611 3184 2323 
Q 3181 2035 3168 1814 
Q 3155 1594 3136 1421 
Q 3117 1248 3085 1088 
Q 3014 749 2787 345 
Q 2560 -58 2067 -550 
Q 1952 -429 1814 -342 
Q 1677 -256 1536 -205 
Q 1856 13 2070 233 
Q 2285 454 2419 681 
Q 2554 909 2621 1149 
Q 2688 1389 2720 1651 
Q 2752 1978 2749 2483 
Q 2746 2989 2714 3725 
Q 2810 3699 2957 3692 
Q 3104 3686 3187 3699 
Q 3258 3712 3270 3673 
Q 3283 3635 3232 3578 
z
M 1594 1568 
Q 1568 1472 1545 1376 
Q 1523 1280 1494 1171 
Q 1466 1062 1427 928 
Q 1389 794 1338 614 
Q 1261 333 1184 25 
Q 1107 -282 1043 -602 
Q 877 -474 745 -400 
Q 614 -326 454 -256 
Q 563 -51 684 214 
Q 806 480 915 845 
Q 941 934 976 1056 
Q 1011 1178 1043 1306 
Q 1075 1434 1104 1565 
Q 1133 1696 1152 1811 
Q 1242 1715 1344 1657 
Q 1446 1600 1594 1568 
z
M 4058 -294 
Q 3827 32 3622 265 
Q 3418 499 3181 685 
L 3526 1030 
Q 3750 838 4000 595 
Q 4250 352 4454 102 
L 4058 -294 
z
" transform="scale(0.015625)"/>
       <path id="STHeitiTC-Medium-7ed3" d="M 2611 544 
Q 2573 435 2573 304 
Q 2573 173 2592 64 
Q 2131 -6 1811 -64 
Q 1491 -122 1264 -176 
Q 1037 -230 886 -281 
Q 736 -333 621 -390 
Q 608 -218 573 -70 
Q 538 77 461 275 
Q 608 269 784 278 
Q 960 288 1209 320 
Q 1459 352 1798 406 
Q 2138 461 2611 544 
z
M 1114 2694 
Q 973 2682 822 2653 
Q 672 2624 557 2573 
Q 538 2739 506 2860 
Q 474 2982 422 3104 
Q 538 3130 666 3283 
Q 794 3437 925 3696 
Q 1056 3955 1187 4313 
Q 1318 4672 1440 5114 
Q 1600 5005 1744 4921 
Q 1888 4838 1997 4806 
Q 2099 4774 2108 4736 
Q 2118 4698 2061 4666 
Q 2035 4646 1987 4588 
Q 1939 4531 1833 4364 
Q 1728 4198 1545 3894 
Q 1363 3590 1062 3091 
L 1824 3142 
Q 2080 3603 2202 3878 
Q 2330 3776 2454 3699 
Q 2579 3622 2650 3597 
Q 2810 3546 2650 3482 
Q 2630 3475 2569 3401 
Q 2509 3328 2365 3120 
Q 2221 2912 1971 2534 
Q 1722 2157 1325 1549 
Q 1485 1562 1638 1574 
Q 1792 1587 1945 1603 
Q 2099 1619 2265 1635 
Q 2432 1651 2618 1670 
Q 2573 1568 2550 1424 
Q 2528 1280 2541 1171 
L 1389 1075 
Q 1165 1056 1005 1024 
Q 845 992 672 934 
Q 659 1267 563 1504 
Q 653 1530 749 1584 
Q 845 1638 966 1769 
Q 1088 1901 1241 2131 
Q 1395 2362 1606 2739 
L 1114 2694 
z
M 3430 -109 
L 3430 -659 
L 2848 -659 
Q 2880 -416 2899 -147 
Q 2918 122 2918 314 
L 2918 1139 
Q 2918 1325 2905 1523 
Q 2893 1722 2874 1850 
Q 2989 1837 3097 1827 
Q 3206 1818 3360 1814 
Q 3514 1811 3731 1808 
Q 3949 1805 4275 1805 
Q 4576 1805 4781 1808 
Q 4986 1811 5133 1814 
Q 5280 1818 5389 1827 
Q 5498 1837 5613 1850 
Q 5594 1728 5581 1526 
Q 5568 1325 5568 1139 
L 5568 474 
Q 5568 378 5571 253 
Q 5574 128 5580 -9 
Q 5587 -147 5600 -291 
Q 5613 -435 5626 -563 
L 5056 -563 
L 5056 -109 
L 3430 -109 
z
M 5056 333 
L 5056 1363 
L 3430 1363 
L 3430 333 
L 5056 333 
z
M 4480 2886 
Q 4845 2893 5129 2905 
Q 5414 2918 5619 2950 
L 5619 2381 
Q 5139 2438 4211 2438 
Q 3744 2438 3424 2425 
Q 3104 2413 2848 2381 
L 2848 2950 
Q 3072 2918 3334 2905 
Q 3597 2893 3962 2886 
L 3962 3706 
Q 3123 3693 2643 3648 
L 2643 4237 
Q 2886 4205 3216 4192 
Q 3546 4179 3962 4173 
Q 3962 4550 3946 4787 
Q 3930 5024 3910 5152 
Q 3974 5139 4064 5129 
Q 4154 5120 4240 5113 
Q 4326 5107 4393 5107 
Q 4461 5107 4493 5107 
Q 4595 5120 4601 5078 
Q 4608 5037 4525 4986 
Q 4480 4954 4480 4845 
L 4480 4173 
Q 4947 4179 5331 4192 
Q 5715 4205 5971 4237 
L 5971 3648 
Q 5715 3674 5331 3686 
Q 4947 3699 4480 3706 
L 4480 2886 
z
" transform="scale(0.015625)"/>
       <path id="STHeitiTC-Medium-679c" d="M 3021 4397 
L 1696 4397 
L 1696 3712 
L 3021 3712 
L 3021 4397 
z
M 3526 2656 
L 4858 2656 
L 4858 3322 
L 3526 3322 
L 3526 2656 
z
M 1696 2656 
L 3021 2656 
L 3021 3322 
L 1696 3322 
L 1696 2656 
z
M 4858 4397 
L 3526 4397 
L 3526 3712 
L 4858 3712 
L 4858 4397 
z
M 2912 1299 
Q 2483 736 1974 304 
Q 1466 -128 800 -461 
Q 698 -275 589 -169 
Q 480 -64 294 32 
Q 608 128 886 243 
Q 1165 358 1424 512 
Q 1683 666 1926 858 
Q 2170 1050 2419 1299 
Q 1997 1299 1702 1292 
Q 1408 1286 1193 1280 
Q 979 1274 825 1264 
Q 672 1254 538 1242 
L 538 1754 
Q 691 1741 883 1731 
Q 1075 1722 1356 1718 
Q 1638 1715 2038 1708 
Q 2438 1702 3021 1702 
L 3021 2253 
Q 2304 2253 1859 2243 
Q 1414 2234 1146 2208 
Q 1171 2355 1180 2499 
Q 1190 2643 1190 2816 
L 1190 4275 
Q 1190 4454 1184 4604 
Q 1178 4755 1146 4883 
Q 1299 4864 1488 4851 
Q 1677 4838 1929 4828 
Q 2182 4819 2512 4812 
Q 2842 4806 3277 4806 
Q 3706 4806 4038 4812 
Q 4371 4819 4627 4828 
Q 4883 4838 5072 4851 
Q 5261 4864 5408 4883 
Q 5382 4749 5372 4611 
Q 5363 4474 5363 4275 
L 5363 2810 
Q 5363 2605 5376 2461 
Q 5389 2317 5408 2208 
Q 5146 2234 4656 2243 
Q 4166 2253 3526 2253 
L 3526 1702 
Q 4480 1702 5075 1715 
Q 5670 1728 5978 1754 
L 5978 1242 
Q 5715 1267 5209 1283 
Q 4704 1299 3994 1299 
Q 4211 1030 4441 854 
Q 4672 678 4931 566 
Q 5190 454 5481 396 
Q 5773 339 6099 320 
Q 5952 154 5875 -9 
Q 5798 -173 5766 -352 
Q 5299 -211 4972 -60 
Q 4646 90 4406 282 
Q 4166 474 3990 720 
Q 3814 966 3648 1299 
L 3526 1299 
L 3526 525 
Q 3526 256 3536 -54 
Q 3546 -365 3578 -717 
L 2963 -717 
Q 2995 -352 3008 -51 
Q 3021 250 3021 525 
L 3021 1299 
L 2912 1299 
z
" transform="scale(0.015625)"/>
      </defs>
      <use xlink:href="#STHeitiTC-Medium-5206"/>
      <use xlink:href="#STHeitiTC-Medium-9875" transform="translate(99.999985 0)"/>
      <use xlink:href="#STHeitiTC-Medium-67e5" transform="translate(199.999969 0)"/>
      <use xlink:href="#STHeitiTC-Medium-8be2" transform="translate(299.999954 0)"/>
      <use xlink:href="#STHeitiTC-Medium-41" transform="translate(399.999939 0)"/>
      <use xlink:href="#STHeitiTC-Medium-49" transform="translate(473.999924 0)"/>
      <use xlink:href="#STHeitiTC-Medium-9884" transform="translate(496.599915 0)"/>
      <use xlink:href="#STHeitiTC-Medium-6d4b" transform="translate(596.599899 0)"/>
      <use xlink:href="#STHeitiTC-Medium-7ed3" transform="translate(696.599884 0)"/>
      <use xlink:href="#STHeitiTC-Medium-679c" transform="translate(796.599869 0)"/>
     </g>
    </g>
    <g id="patch_27">
     <path d="M 60.213125 42.420312 
L 80.213125 42.420312 
L 80.213125 35.420312 
L 60.213125 35.420312 
z
" style="fill: #ff7f0e; opacity: 0.8; stroke: #000000; stroke-linejoin: miter"/>
    </g>
    <g id="text_15">
     <!-- 获取备件列表 -->
     <g transform="translate(88.213125 42.420312) scale(0.1 -0.1)">
      <defs>
       <path id="STHeitiTC-Medium-83b7" d="M 5037 2624 
Q 4973 2771 4889 2928 
Q 4806 3085 4704 3213 
L 5120 3437 
Q 5344 3200 5504 2912 
L 5037 2624 
z
M 3680 4563 
Q 3680 4685 3677 4768 
Q 3674 4851 3670 4918 
Q 3667 4986 3657 5040 
Q 3648 5094 3642 5158 
Q 3770 5146 3907 5146 
Q 4045 5146 4173 5158 
Q 4230 5165 4240 5133 
Q 4250 5101 4198 5069 
Q 4166 5043 4147 4988 
Q 4128 4934 4128 4877 
L 4128 4563 
Q 4659 4563 5104 4572 
Q 5549 4582 5869 4614 
L 5869 4064 
Q 5549 4096 5104 4109 
Q 4659 4122 4128 4122 
L 4128 3674 
L 3680 3674 
L 3680 4122 
L 2573 4122 
L 2573 3629 
L 2093 3629 
L 2093 4122 
Q 1587 4115 1158 4105 
Q 730 4096 422 4064 
L 422 4614 
Q 742 4582 1161 4572 
Q 1581 4563 2093 4563 
Q 2086 4749 2080 4851 
Q 2074 4954 2054 5062 
Q 2182 5050 2336 5050 
Q 2490 5050 2618 5062 
Q 2675 5069 2684 5037 
Q 2694 5005 2643 4973 
Q 2611 4947 2592 4892 
Q 2573 4838 2573 4781 
L 2573 4563 
L 3680 4563 
z
M 1645 2496 
Q 1459 2368 1235 2205 
Q 1011 2042 730 1837 
Q 666 1939 579 2035 
Q 493 2131 384 2208 
Q 621 2304 877 2448 
Q 1133 2592 1376 2778 
Q 1229 2906 1069 3021 
Q 909 3136 762 3219 
L 1043 3514 
Q 1210 3424 1389 3302 
Q 1568 3181 1722 3053 
Q 1856 3168 1977 3296 
Q 2099 3424 2208 3552 
Q 2323 3462 2416 3398 
Q 2509 3334 2656 3245 
Q 2739 3194 2742 3165 
Q 2746 3136 2643 3123 
Q 2605 3117 2467 3040 
Q 2330 2963 2010 2746 
Q 2336 2323 2445 1705 
Q 2554 1088 2426 371 
Q 2381 141 2304 -22 
Q 2227 -186 2089 -301 
Q 1952 -416 1744 -496 
Q 1536 -576 1229 -640 
Q 1197 -493 1139 -365 
Q 1082 -237 973 -70 
Q 1235 -58 1411 -16 
Q 1587 26 1699 99 
Q 1811 173 1868 288 
Q 1926 403 1958 570 
Q 2080 1261 1997 1734 
Q 1747 1376 1452 1040 
Q 1158 704 838 442 
Q 762 538 666 627 
Q 570 717 442 813 
Q 826 1056 1187 1392 
Q 1549 1728 1862 2150 
Q 1773 2342 1645 2496 
z
M 4141 1402 
Q 4090 1197 4038 1040 
Q 3987 883 3923 742 
Q 3802 474 3693 278 
Q 3584 83 3456 -77 
Q 3328 -237 3155 -390 
Q 2982 -544 2733 -723 
Q 2650 -608 2554 -515 
Q 2458 -422 2310 -333 
Q 2682 -102 2950 160 
Q 3219 422 3424 800 
Q 3565 1062 3638 1334 
Q 3712 1606 3750 2022 
Q 3392 2016 3110 2003 
Q 2829 1990 2605 1965 
L 2605 2522 
Q 2829 2496 3120 2480 
Q 3411 2464 3782 2458 
Q 3789 2643 3792 2787 
Q 3795 2931 3792 3049 
Q 3789 3168 3779 3264 
Q 3770 3360 3757 3450 
Q 3942 3418 4096 3411 
Q 4250 3405 4416 3418 
Q 4486 3424 4496 3398 
Q 4506 3373 4448 3328 
Q 4390 3283 4368 3212 
Q 4346 3142 4333 2976 
Q 4314 2694 4294 2458 
Q 4794 2458 5165 2474 
Q 5536 2490 5818 2522 
L 5818 1965 
Q 5530 1997 5152 2013 
Q 4774 2029 4262 2029 
Q 4429 1222 4893 720 
Q 5357 218 6010 0 
Q 5882 -154 5798 -294 
Q 5715 -435 5645 -595 
Q 5101 -326 4733 150 
Q 4365 627 4141 1402 
z
" transform="scale(0.015625)"/>
       <path id="STHeitiTC-Medium-53d6" d="M 2362 2944 
L 1338 2944 
L 1338 2080 
L 2362 2080 
L 2362 2944 
z
M 2362 1651 
L 1338 1651 
L 1338 704 
Q 1626 742 1882 790 
Q 2138 838 2362 890 
L 2362 1651 
z
M 2854 563 
Q 2854 230 2870 -54 
Q 2886 -339 2918 -666 
L 2298 -666 
Q 2330 -378 2342 -128 
Q 2355 122 2362 397 
Q 1869 301 1552 237 
Q 1235 173 1024 121 
Q 813 70 672 28 
Q 531 -13 397 -70 
Q 384 109 349 269 
Q 314 429 256 595 
Q 410 608 554 617 
Q 698 627 845 646 
L 845 4282 
Q 685 4275 547 4265 
Q 410 4256 307 4230 
L 307 4781 
Q 378 4768 480 4755 
Q 582 4742 745 4736 
Q 909 4730 1152 4726 
Q 1395 4723 1747 4723 
Q 2099 4723 2342 4726 
Q 2586 4730 2749 4736 
Q 2912 4742 3014 4755 
Q 3117 4768 3194 4781 
L 3194 4230 
Q 3117 4243 3033 4252 
Q 2950 4262 2854 4275 
L 2854 563 
z
M 2362 4288 
L 1338 4288 
L 1338 3373 
L 2362 3373 
L 2362 4288 
z
M 3974 4038 
Q 3981 3014 4112 2336 
Q 4243 1658 4422 1389 
Q 4723 2029 4841 2704 
Q 4960 3379 4992 4045 
Q 4666 4045 4419 4045 
Q 4173 4045 3974 4038 
z
M 3533 4032 
Q 3475 4026 3417 4026 
Q 3360 4026 3309 4019 
L 3309 4525 
Q 3578 4506 3882 4499 
Q 4186 4493 4550 4493 
Q 4730 4493 4874 4493 
Q 5018 4493 5146 4499 
Q 5274 4506 5395 4509 
Q 5517 4512 5645 4525 
Q 5555 3840 5462 3302 
Q 5370 2765 5264 2333 
Q 5158 1901 5036 1568 
Q 4915 1235 4774 966 
Q 4928 800 5078 681 
Q 5229 563 5392 476 
Q 5555 390 5737 329 
Q 5920 269 6144 224 
Q 6054 109 5996 19 
Q 5939 -70 5894 -140 
Q 5850 -211 5818 -281 
Q 5786 -352 5747 -429 
Q 5350 -211 5033 16 
Q 4717 243 4480 486 
Q 4256 160 4006 -93 
Q 3757 -346 3475 -576 
Q 3373 -467 3222 -352 
Q 3072 -237 2931 -160 
Q 3315 70 3616 323 
Q 3917 576 4147 902 
Q 4051 1114 3977 1290 
Q 3904 1466 3849 1651 
Q 3795 1837 3750 2048 
Q 3706 2259 3670 2534 
Q 3635 2810 3603 3174 
Q 3571 3539 3533 4032 
z
" transform="scale(0.015625)"/>
       <path id="STHeitiTC-Medium-5907" d="M 1830 691 
L 1830 115 
L 3027 115 
L 3027 691 
L 1830 691 
z
M 3027 1094 
L 3027 1632 
L 1830 1632 
L 1830 1094 
L 3027 1094 
z
M 4666 1094 
L 4666 1632 
L 3482 1632 
L 3482 1094 
L 4666 1094 
z
M 3482 691 
L 3482 115 
L 4666 115 
L 4666 691 
L 3482 691 
z
M 2221 4122 
Q 2445 3834 2723 3590 
Q 3002 3347 3251 3194 
Q 3635 3398 3897 3638 
Q 4160 3878 4365 4122 
L 2221 4122 
z
M 1939 3814 
Q 1754 3590 1594 3408 
Q 1434 3226 1274 3072 
Q 1203 3162 1088 3251 
Q 973 3341 832 3386 
Q 1286 3776 1680 4272 
Q 2074 4768 2298 5280 
Q 2451 5210 2649 5155 
Q 2848 5101 2976 5088 
Q 3059 5082 3052 5027 
Q 3046 4973 2970 4941 
Q 2842 4890 2723 4800 
Q 2605 4710 2470 4563 
L 4096 4563 
Q 4429 4563 4697 4572 
Q 4966 4582 5229 4614 
Q 5101 4352 4973 4137 
Q 4845 3923 4675 3728 
Q 4506 3533 4278 3347 
Q 4051 3162 3738 2950 
Q 4198 2778 4806 2688 
Q 5414 2598 6118 2630 
Q 6061 2541 6025 2467 
Q 5990 2394 5971 2323 
Q 5952 2253 5945 2182 
Q 5939 2112 5939 2029 
Q 4998 2118 4326 2294 
Q 3654 2470 3251 2682 
Q 2938 2534 2451 2361 
Q 1965 2189 1427 2035 
L 3667 2035 
Q 3885 2035 4080 2038 
Q 4275 2042 4457 2045 
Q 4640 2048 4819 2057 
Q 4998 2067 5184 2080 
Q 5165 1888 5165 1453 
L 5165 147 
Q 5165 -109 5171 -265 
Q 5178 -422 5197 -570 
L 4666 -570 
L 4666 -288 
L 1830 -288 
L 1830 -704 
L 1286 -704 
Q 1306 -531 1318 -352 
Q 1331 -173 1331 13 
L 1331 2010 
Q 1158 1958 985 1913 
Q 813 1869 627 1824 
Q 557 1984 473 2118 
Q 390 2253 282 2362 
Q 1037 2496 1664 2646 
Q 2291 2797 2784 2982 
Q 2515 3181 2304 3395 
Q 2093 3610 1939 3814 
z
" transform="scale(0.015625)"/>
       <path id="STHeitiTC-Medium-4ef6" d="M 1792 -691 
L 1222 -691 
Q 1254 -410 1276 -19 
Q 1299 371 1299 736 
L 1299 3014 
Q 1158 2771 1004 2528 
Q 851 2285 659 1997 
Q 589 2106 493 2221 
Q 397 2336 269 2445 
Q 422 2611 544 2771 
Q 666 2931 774 3100 
Q 883 3270 982 3452 
Q 1082 3635 1178 3846 
Q 1312 4147 1433 4480 
Q 1555 4813 1645 5101 
Q 1805 5030 1939 4982 
Q 2074 4934 2240 4890 
Q 2349 4864 2345 4819 
Q 2342 4774 2214 4691 
Q 2189 4672 2089 4499 
Q 1990 4326 1792 3923 
L 1792 -691 
z
M 2957 3110 
Q 2880 2874 2809 2694 
Q 2739 2515 2637 2278 
Q 2515 2323 2374 2358 
Q 2234 2394 2099 2413 
Q 2368 2874 2563 3482 
Q 2758 4090 2867 4755 
Q 2995 4704 3152 4659 
Q 3309 4614 3456 4582 
Q 3546 4563 3482 4480 
Q 3437 4416 3398 4342 
Q 3360 4269 3318 4166 
Q 3277 4064 3225 3920 
Q 3174 3776 3110 3565 
L 4032 3565 
L 4032 4154 
Q 4032 4486 4019 4742 
Q 4006 4998 3987 5126 
Q 4128 5107 4288 5104 
Q 4448 5101 4608 5114 
Q 4730 5120 4742 5072 
Q 4755 5024 4653 4960 
Q 4614 4934 4595 4816 
Q 4576 4698 4576 4467 
L 4576 3565 
Q 5018 3571 5360 3584 
Q 5702 3597 5882 3616 
L 5882 3046 
Q 5696 3066 5353 3085 
Q 5011 3104 4576 3110 
L 4576 1837 
Q 5075 1843 5452 1859 
Q 5830 1875 6125 1901 
L 6125 1293 
Q 5830 1325 5452 1344 
Q 5075 1363 4576 1370 
L 4576 467 
Q 4576 358 4579 214 
Q 4582 70 4592 -86 
Q 4602 -243 4611 -396 
Q 4621 -550 4634 -685 
L 3974 -685 
Q 4000 -461 4016 -141 
Q 4032 179 4032 467 
L 4032 1370 
Q 3475 1363 3040 1344 
Q 2605 1325 2298 1293 
L 2298 1901 
Q 2611 1875 3043 1859 
Q 3475 1843 4032 1837 
L 4032 3110 
L 2957 3110 
z
" transform="scale(0.015625)"/>
       <path id="STHeitiTC-Medium-5217" d="M 5837 4954 
Q 5792 4922 5779 4886 
Q 5766 4851 5766 4762 
L 5766 250 
Q 5766 6 5734 -147 
Q 5702 -301 5590 -397 
Q 5478 -493 5264 -553 
Q 5050 -614 4678 -678 
Q 4627 -346 4352 6 
Q 4653 -6 4829 0 
Q 5005 6 5097 51 
Q 5190 96 5216 179 
Q 5242 262 5242 397 
L 5242 4070 
Q 5242 4448 5232 4713 
Q 5222 4979 5210 5133 
Q 5338 5107 5501 5094 
Q 5664 5082 5779 5088 
Q 5875 5094 5888 5052 
Q 5901 5011 5837 4954 
z
M 4614 4154 
Q 4544 4109 4544 3949 
L 4544 1747 
Q 4544 1555 4550 1356 
Q 4557 1158 4576 934 
L 4013 934 
Q 4026 1171 4032 1363 
Q 4038 1555 4038 1747 
L 4038 3590 
Q 4038 3834 4032 4003 
Q 4026 4173 4013 4301 
Q 4160 4275 4310 4272 
Q 4461 4269 4582 4282 
Q 4666 4294 4675 4249 
Q 4685 4205 4614 4154 
z
M 3507 3379 
Q 3424 2656 3264 2067 
Q 3104 1478 2886 1062 
Q 2778 864 2602 643 
Q 2426 422 2198 208 
Q 1971 -6 1705 -208 
Q 1440 -410 1165 -576 
Q 1133 -531 1075 -467 
Q 1018 -403 950 -339 
Q 883 -275 812 -220 
Q 742 -166 691 -134 
Q 890 -58 1114 70 
Q 1338 198 1555 358 
Q 1773 518 1965 700 
Q 2157 883 2291 1069 
Q 2221 1146 2125 1248 
Q 2029 1350 1923 1449 
Q 1818 1549 1709 1641 
Q 1600 1734 1517 1798 
L 1888 2163 
Q 2061 2022 2224 1878 
Q 2387 1734 2560 1568 
Q 2637 1728 2691 1872 
Q 2746 2016 2790 2169 
Q 2835 2323 2867 2502 
Q 2899 2682 2931 2912 
L 1894 2912 
Q 1811 2714 1702 2506 
Q 1594 2298 1472 2096 
Q 1350 1894 1219 1708 
Q 1088 1523 966 1382 
Q 877 1491 752 1574 
Q 627 1658 493 1696 
Q 736 1907 941 2188 
Q 1146 2470 1306 2796 
Q 1466 3123 1571 3481 
Q 1677 3840 1728 4205 
Q 1363 4198 1097 4185 
Q 832 4173 608 4147 
L 608 4730 
Q 896 4698 1261 4682 
Q 1626 4666 2163 4666 
Q 2707 4666 3068 4682 
Q 3430 4698 3718 4730 
L 3718 4147 
Q 3443 4179 3097 4195 
Q 2752 4211 2246 4211 
Q 2202 3821 2054 3379 
L 3507 3379 
z
" transform="scale(0.015625)"/>
       <path id="STHeitiTC-Medium-8868" d="M 4070 1062 
Q 4301 1203 4461 1308 
Q 4621 1414 4736 1510 
Q 4851 1606 4934 1692 
Q 5018 1779 5094 1882 
Q 5139 1843 5206 1788 
Q 5274 1734 5344 1683 
Q 5414 1632 5478 1587 
Q 5542 1542 5581 1517 
Q 5658 1466 5645 1430 
Q 5632 1395 5523 1402 
Q 5478 1402 5408 1382 
Q 5338 1363 5203 1296 
Q 5069 1229 4851 1110 
Q 4634 992 4288 794 
Q 4563 512 5004 291 
Q 5446 70 5997 19 
Q 5824 -115 5696 -294 
Q 5568 -474 5542 -589 
Q 5024 -403 4611 -124 
Q 4198 154 3891 550 
Q 3680 819 3510 1110 
Q 3341 1402 3181 1715 
L 3629 1946 
Q 3699 1754 3801 1539 
Q 3904 1325 4070 1062 
z
M 2989 3981 
Q 2573 3981 2243 3977 
Q 1914 3974 1638 3968 
Q 1363 3962 1126 3952 
Q 890 3942 666 3930 
L 666 4461 
Q 896 4448 1136 4438 
Q 1376 4429 1648 4425 
Q 1920 4422 2246 4419 
Q 2573 4416 2989 4416 
Q 2982 4672 2969 4861 
Q 2957 5050 2944 5152 
Q 3027 5139 3123 5126 
Q 3219 5114 3305 5107 
Q 3392 5101 3465 5097 
Q 3539 5094 3578 5094 
Q 3648 5101 3670 5072 
Q 3693 5043 3616 4986 
Q 3565 4954 3536 4848 
Q 3507 4742 3507 4653 
L 3507 4416 
Q 4262 4416 4841 4429 
Q 5421 4442 5843 4461 
L 5843 3930 
Q 5421 3955 4841 3968 
Q 4262 3981 3507 3981 
L 3507 3456 
Q 3866 3456 4134 3459 
Q 4403 3462 4624 3468 
Q 4845 3475 5037 3488 
Q 5229 3501 5440 3514 
L 5440 3008 
Q 5229 3021 5037 3030 
Q 4845 3040 4624 3043 
Q 4403 3046 4134 3049 
Q 3866 3053 3507 3053 
L 3507 2554 
Q 4045 2554 4397 2557 
Q 4749 2560 5011 2566 
Q 5274 2573 5510 2582 
Q 5747 2592 6054 2611 
L 6054 2099 
Q 5715 2112 5468 2121 
Q 5222 2131 4944 2134 
Q 4666 2138 4288 2141 
Q 3910 2144 3302 2144 
Q 3142 1920 2908 1677 
Q 2675 1434 2387 1190 
L 2387 -32 
L 3571 454 
Q 3552 173 3654 -19 
Q 3328 -141 3027 -259 
Q 2726 -378 2480 -483 
Q 2234 -589 2051 -675 
Q 1869 -762 1773 -813 
Q 1734 -685 1660 -544 
Q 1587 -403 1504 -301 
Q 1702 -269 1914 -205 
L 1914 838 
Q 1581 614 1254 438 
Q 928 262 704 173 
Q 621 378 541 499 
Q 461 621 339 723 
Q 634 768 950 893 
Q 1267 1018 1574 1200 
Q 1882 1382 2163 1622 
Q 2445 1862 2675 2144 
Q 2195 2144 1888 2141 
Q 1581 2138 1353 2134 
Q 1126 2131 924 2121 
Q 723 2112 448 2099 
L 448 2611 
Q 646 2598 806 2588 
Q 966 2579 1116 2572 
Q 1267 2566 1433 2563 
Q 1600 2560 1814 2557 
Q 2029 2554 2313 2554 
Q 2598 2554 2989 2554 
L 2989 3053 
Q 2643 3053 2374 3049 
Q 2106 3046 1882 3043 
Q 1658 3040 1459 3030 
Q 1261 3021 1056 3008 
L 1056 3514 
Q 1267 3501 1462 3488 
Q 1658 3475 1882 3468 
Q 2106 3462 2374 3459 
Q 2643 3456 2989 3456 
L 2989 3981 
z
" transform="scale(0.015625)"/>
      </defs>
      <use xlink:href="#STHeitiTC-Medium-83b7"/>
      <use xlink:href="#STHeitiTC-Medium-53d6" transform="translate(99.999985 0)"/>
      <use xlink:href="#STHeitiTC-Medium-5907" transform="translate(199.999969 0)"/>
      <use xlink:href="#STHeitiTC-Medium-4ef6" transform="translate(299.999954 0)"/>
      <use xlink:href="#STHeitiTC-Medium-5217" transform="translate(399.999939 0)"/>
      <use xlink:href="#STHeitiTC-Medium-8868" transform="translate(499.999924 0)"/>
     </g>
    </g>
    <g id="patch_28">
     <path d="M 60.213125 56.85 
L 80.213125 56.85 
L 80.213125 49.85 
L 60.213125 49.85 
z
" style="fill: #2ca02c; opacity: 0.8; stroke: #000000; stroke-linejoin: miter"/>
    </g>
    <g id="text_16">
     <!-- 获取采购订单数据 -->
     <g transform="translate(88.213125 56.85) scale(0.1 -0.1)">
      <defs>
       <path id="STHeitiTC-Medium-91c7" d="M 1555 2637 
Q 1504 2886 1408 3184 
Q 1312 3482 1222 3699 
L 1747 3853 
Q 1888 3520 1968 3277 
Q 2048 3034 2106 2784 
L 1555 2637 
z
M 5299 3693 
Q 5242 3654 5152 3555 
Q 5062 3456 4950 3309 
Q 4838 3162 4713 2979 
Q 4589 2797 4467 2586 
Q 4378 2643 4246 2710 
Q 4115 2778 3949 2829 
Q 4173 3123 4361 3456 
Q 4550 3789 4653 4083 
Q 4723 4051 4822 4006 
Q 4922 3962 5018 3923 
Q 5114 3885 5187 3856 
Q 5261 3827 5280 3821 
Q 5363 3795 5366 3769 
Q 5370 3744 5299 3693 
z
M 2874 2976 
Q 2848 3488 2707 3962 
L 3290 4038 
Q 3360 3808 3414 3552 
Q 3469 3296 3501 3046 
L 2874 2976 
z
M 5466 4576 
Q 5536 4512 5523 4473 
Q 5510 4435 5421 4448 
Q 5197 4474 4665 4435 
Q 4134 4397 3411 4282 
Q 3149 4243 2883 4204 
Q 2618 4166 2323 4131 
Q 2029 4096 1702 4064 
Q 1376 4032 998 4006 
Q 966 4141 908 4297 
Q 851 4454 794 4576 
Q 1011 4570 1251 4576 
Q 1491 4582 1779 4601 
Q 2067 4621 2419 4659 
Q 2771 4698 3213 4749 
Q 3546 4787 3814 4828 
Q 4083 4870 4307 4912 
Q 4531 4954 4720 5002 
Q 4909 5050 5094 5101 
Q 5158 4960 5260 4816 
Q 5363 4672 5466 4576 
z
M 3456 371 
Q 3456 96 3465 -189 
Q 3475 -474 3494 -698 
L 2867 -698 
Q 2899 -442 2908 -179 
Q 2918 83 2918 371 
L 2918 1754 
L 2848 1754 
Q 2707 1414 2512 1123 
Q 2317 832 2064 573 
Q 1811 314 1488 80 
Q 1165 -154 774 -384 
Q 685 -256 547 -137 
Q 410 -19 262 51 
Q 979 339 1510 761 
Q 2042 1184 2374 1747 
Q 1594 1741 1136 1721 
Q 678 1702 442 1683 
L 442 2214 
Q 576 2202 781 2192 
Q 986 2182 1286 2176 
Q 1587 2170 1990 2166 
Q 2394 2163 2912 2163 
Q 2899 2310 2886 2438 
Q 2874 2566 2861 2656 
Q 3008 2637 3197 2627 
Q 3386 2618 3514 2630 
Q 3610 2643 3622 2611 
Q 3635 2579 3558 2509 
Q 3526 2477 3497 2381 
Q 3469 2285 3456 2163 
Q 3981 2163 4381 2166 
Q 4781 2170 5081 2176 
Q 5382 2182 5587 2192 
Q 5792 2202 5926 2214 
L 5926 1702 
Q 5683 1722 5193 1734 
Q 4704 1747 3866 1754 
Q 4109 1491 4345 1292 
Q 4582 1094 4848 947 
Q 5114 800 5424 697 
Q 5734 595 6131 531 
Q 6010 378 5910 182 
Q 5811 -13 5773 -141 
Q 5094 90 4496 544 
Q 3898 998 3456 1722 
L 3456 371 
z
" transform="scale(0.015625)"/>
       <path id="STHeitiTC-Medium-8d2d" d="M 2707 -307 
Q 2522 -26 2326 214 
Q 2131 454 1920 640 
L 2272 922 
Q 2509 710 2717 486 
Q 2925 262 3136 -13 
L 2707 -307 
z
M 2086 3661 
Q 2067 3629 2048 3529 
Q 2029 3430 2029 3283 
Q 2029 2835 2013 2361 
Q 1997 1888 1958 1408 
Q 1939 1165 1852 905 
Q 1766 646 1622 393 
Q 1478 141 1280 -102 
Q 1082 -346 845 -550 
Q 736 -429 633 -352 
Q 531 -275 358 -186 
Q 691 -6 905 205 
Q 1120 416 1251 640 
Q 1382 864 1443 1094 
Q 1504 1325 1523 1549 
Q 1574 2131 1580 2681 
Q 1587 3232 1536 3827 
Q 1702 3795 1830 3782 
Q 1958 3770 2029 3770 
Q 2118 3770 2128 3750 
Q 2138 3731 2086 3661 
z
M 2419 1178 
L 2419 4256 
L 1184 4256 
L 1184 1005 
L 685 1005 
Q 698 1152 710 1309 
Q 723 1466 723 1632 
L 723 4243 
Q 723 4390 713 4521 
Q 704 4653 691 4742 
Q 845 4730 1107 4726 
Q 1370 4723 1766 4723 
Q 2144 4723 2448 4726 
Q 2752 4730 2899 4742 
Q 2880 4557 2880 4243 
L 2880 1805 
Q 2880 1638 2886 1478 
Q 2893 1318 2906 1178 
L 2419 1178 
z
M 4614 1274 
Q 4570 1498 4525 1706 
Q 4480 1914 4429 2067 
L 4832 2157 
Q 4941 1766 5027 1411 
Q 5114 1056 5197 672 
L 4730 538 
Q 4717 627 4707 713 
Q 4698 800 4685 890 
L 3776 736 
Q 3674 717 3549 681 
Q 3424 646 3315 595 
Q 3302 749 3270 854 
Q 3238 960 3174 1088 
Q 3264 1120 3312 1187 
Q 3360 1254 3411 1370 
Q 3514 1626 3597 1843 
Q 3680 2061 3741 2269 
Q 3802 2477 3843 2681 
Q 3885 2886 3917 3117 
Q 4083 3066 4240 3034 
Q 4397 3002 4474 2989 
Q 4640 2970 4506 2842 
Q 4461 2803 4393 2678 
Q 4326 2554 4288 2445 
Q 4134 2022 4000 1724 
Q 3866 1427 3718 1152 
L 4614 1274 
z
M 4998 4109 
Q 5242 4109 5536 4121 
Q 5830 4134 6035 4154 
L 5901 282 
Q 5894 51 5849 -125 
Q 5805 -301 5670 -419 
Q 5536 -538 5289 -602 
Q 5043 -666 4634 -672 
Q 4582 -493 4528 -358 
Q 4474 -224 4384 -70 
Q 4659 -109 4854 -105 
Q 5050 -102 5171 -41 
Q 5293 19 5347 134 
Q 5402 250 5408 435 
L 5504 3674 
L 3872 3674 
Q 3731 3373 3603 3158 
Q 3475 2944 3309 2714 
Q 3245 2778 3139 2838 
Q 3034 2899 2918 2931 
Q 3302 3424 3597 4186 
Q 3667 4365 3721 4617 
Q 3776 4870 3802 5139 
Q 3974 5062 4134 5024 
Q 4294 4986 4442 4973 
Q 4550 4960 4435 4838 
Q 4384 4787 4288 4611 
Q 4192 4435 4051 4109 
L 4998 4109 
z
" transform="scale(0.015625)"/>
       <path id="STHeitiTC-Medium-8ba2" d="M 1728 -294 
Q 1632 -384 1565 -445 
Q 1498 -506 1453 -554 
Q 1408 -602 1379 -640 
Q 1350 -678 1325 -723 
Q 1216 -531 1120 -384 
Q 1024 -237 896 -96 
Q 1043 0 1120 144 
Q 1197 288 1197 525 
L 1197 2682 
Q 870 2682 649 2669 
Q 429 2656 282 2630 
L 282 3283 
Q 429 3264 614 3251 
Q 800 3238 1037 3238 
Q 1261 3238 1437 3248 
Q 1613 3258 1798 3283 
Q 1766 3142 1747 2924 
Q 1728 2707 1728 2490 
L 1728 397 
Q 1818 480 1930 592 
Q 2042 704 2157 822 
Q 2272 941 2387 1062 
Q 2502 1184 2598 1293 
Q 2630 1094 2694 915 
Q 2758 736 2810 666 
L 1728 -294 
z
M 1549 3667 
Q 1459 3936 1296 4243 
Q 1133 4550 934 4832 
L 1472 5075 
Q 1645 4806 1827 4508 
Q 2010 4211 2150 3955 
L 1549 3667 
z
M 4998 243 
Q 4998 -19 4966 -179 
Q 4934 -339 4812 -435 
Q 4691 -531 4451 -585 
Q 4211 -640 3789 -691 
Q 3782 -538 3734 -387 
Q 3686 -237 3565 6 
Q 3859 -13 4028 -6 
Q 4198 0 4284 35 
Q 4371 70 4396 137 
Q 4422 205 4422 314 
L 4422 4058 
Q 3795 4058 3283 4042 
Q 2771 4026 2515 4006 
L 2515 4570 
Q 2643 4557 2857 4547 
Q 3072 4538 3341 4531 
Q 3610 4525 3917 4521 
Q 4224 4518 4550 4518 
Q 5037 4518 5446 4531 
Q 5856 4544 6118 4570 
L 6118 4006 
Q 5920 4032 5632 4041 
Q 5344 4051 4998 4058 
L 4998 243 
z
" transform="scale(0.015625)"/>
       <path id="STHeitiTC-Medium-5355" d="M 2387 4013 
Q 2246 4218 2086 4426 
Q 1926 4634 1734 4826 
L 2150 5133 
Q 2317 4941 2496 4752 
Q 2675 4563 2880 4384 
L 2387 4013 
z
M 2938 3507 
L 1651 3507 
L 1651 2861 
L 2938 2861 
L 2938 3507 
z
M 3456 2861 
L 4787 2861 
L 4787 3507 
L 3456 3507 
L 3456 2861 
z
M 3456 1811 
L 4787 1811 
L 4787 2470 
L 3456 2470 
L 3456 1811 
z
M 2938 2470 
L 1651 2470 
L 1651 1811 
L 2938 1811 
L 2938 2470 
z
M 3456 890 
Q 4294 890 4896 902 
Q 5498 915 5971 947 
L 5971 397 
Q 5498 429 4896 441 
Q 4294 454 3456 454 
Q 3456 122 3465 -179 
Q 3475 -480 3501 -768 
L 2893 -768 
Q 2925 -480 2931 -182 
Q 2938 115 2938 454 
Q 2099 454 1497 441 
Q 896 429 429 397 
L 429 947 
Q 896 915 1497 902 
Q 2099 890 2938 890 
L 2938 1402 
Q 2278 1408 1830 1405 
Q 1382 1402 1094 1389 
Q 1107 1517 1113 1635 
Q 1120 1754 1120 1907 
L 1120 3398 
Q 1120 3558 1117 3692 
Q 1114 3827 1101 3949 
Q 1466 3936 2096 3926 
Q 2726 3917 3565 3917 
Q 3808 4390 3939 4684 
Q 4070 4979 4122 5190 
Q 4288 5107 4467 5043 
Q 4646 4979 4800 4954 
Q 4890 4941 4893 4880 
Q 4896 4819 4819 4800 
Q 4787 4794 4736 4758 
Q 4685 4723 4598 4627 
Q 4512 4531 4377 4361 
Q 4243 4192 4051 3917 
Q 4467 3917 4771 3926 
Q 5075 3936 5299 3949 
Q 5286 3827 5286 3696 
Q 5286 3565 5286 3411 
L 5286 1933 
Q 5286 1754 5289 1629 
Q 5293 1504 5306 1382 
Q 5018 1395 4570 1401 
Q 4122 1408 3456 1402 
L 3456 890 
z
" transform="scale(0.015625)"/>
       <path id="STHeitiTC-Medium-636e" d="M 3021 3648 
L 5229 3648 
L 5229 4314 
L 3021 4314 
L 3021 3648 
z
M 1222 3181 
Q 960 3181 774 3168 
Q 589 3155 442 3123 
L 442 3667 
Q 589 3635 774 3625 
Q 960 3616 1222 3616 
Q 1222 4000 1219 4233 
Q 1216 4467 1209 4614 
Q 1203 4762 1187 4854 
Q 1171 4947 1146 5050 
Q 1318 5018 1443 5008 
Q 1568 4998 1702 5005 
Q 2010 5018 1798 4845 
Q 1728 4794 1705 4746 
Q 1683 4698 1683 4614 
L 1683 3622 
Q 1843 3629 1968 3638 
Q 2093 3648 2202 3667 
L 2202 3123 
Q 2093 3142 1968 3155 
Q 1843 3168 1683 3174 
L 1683 2291 
Q 1965 2413 2234 2560 
Q 2227 2413 2246 2278 
Q 2266 2144 2304 2042 
Q 2157 1997 2000 1945 
Q 1843 1894 1683 1830 
L 1683 122 
Q 1683 -77 1660 -198 
Q 1638 -320 1545 -397 
Q 1453 -474 1261 -528 
Q 1069 -582 730 -640 
Q 717 -467 662 -316 
Q 608 -166 461 26 
Q 883 -45 1052 6 
Q 1222 58 1222 205 
L 1222 1632 
Q 787 1421 474 1178 
Q 461 1325 435 1504 
Q 410 1683 358 1856 
Q 826 1978 1222 2112 
L 1222 3181 
z
M 5184 1082 
L 3731 1082 
L 3731 141 
L 5184 141 
L 5184 1082 
z
M 4621 1459 
Q 4870 1459 5046 1462 
Q 5222 1466 5347 1469 
Q 5472 1472 5558 1481 
Q 5645 1491 5715 1504 
Q 5690 1395 5683 1267 
Q 5677 1139 5677 966 
L 5677 96 
Q 5677 -77 5686 -227 
Q 5696 -378 5722 -544 
L 5184 -544 
L 5184 -282 
L 3731 -282 
L 3731 -614 
L 3194 -614 
Q 3226 -448 3232 -294 
Q 3238 -141 3238 32 
L 3238 966 
Q 3238 1120 3228 1257 
Q 3219 1395 3200 1504 
Q 3277 1491 3357 1484 
Q 3437 1478 3545 1475 
Q 3654 1472 3801 1465 
Q 3949 1459 4160 1459 
L 4160 2150 
Q 3808 2144 3555 2131 
Q 3302 2118 3091 2086 
L 3091 2605 
Q 3309 2579 3558 2566 
Q 3808 2554 4160 2547 
L 4160 3238 
L 3021 3238 
Q 3021 2752 3008 2365 
Q 2995 1978 2960 1654 
Q 2925 1331 2870 1056 
Q 2816 781 2729 525 
Q 2643 269 2524 9 
Q 2406 -250 2246 -538 
Q 2150 -461 2022 -409 
Q 1894 -358 1734 -346 
Q 1920 -70 2057 202 
Q 2195 474 2291 774 
Q 2387 1075 2441 1417 
Q 2496 1760 2515 2170 
Q 2528 2387 2531 2684 
Q 2534 2982 2531 3328 
Q 2528 3674 2518 4045 
Q 2509 4416 2490 4774 
Q 2573 4755 2678 4742 
Q 2784 4730 2957 4720 
Q 3130 4710 3392 4707 
Q 3654 4704 4051 4704 
Q 4435 4704 4716 4710 
Q 4998 4717 5196 4726 
Q 5395 4736 5526 4749 
Q 5658 4762 5734 4774 
Q 5715 4614 5702 4403 
Q 5690 4192 5690 3968 
Q 5690 3744 5699 3571 
Q 5709 3398 5734 3174 
Q 5568 3206 5286 3222 
Q 5005 3238 4621 3238 
L 4621 2547 
Q 5536 2547 6035 2605 
L 6035 2086 
Q 5786 2118 5437 2134 
Q 5088 2150 4621 2150 
L 4621 1459 
z
" transform="scale(0.015625)"/>
      </defs>
      <use xlink:href="#STHeitiTC-Medium-83b7"/>
      <use xlink:href="#STHeitiTC-Medium-53d6" transform="translate(99.999985 0)"/>
      <use xlink:href="#STHeitiTC-Medium-91c7" transform="translate(199.999969 0)"/>
      <use xlink:href="#STHeitiTC-Medium-8d2d" transform="translate(299.999954 0)"/>
      <use xlink:href="#STHeitiTC-Medium-8ba2" transform="translate(399.999939 0)"/>
      <use xlink:href="#STHeitiTC-Medium-5355" transform="translate(499.999924 0)"/>
      <use xlink:href="#STHeitiTC-Medium-6570" transform="translate(599.999908 0)"/>
      <use xlink:href="#STHeitiTC-Medium-636e" transform="translate(699.999893 0)"/>
     </g>
    </g>
   </g>
  </g>
 </g>
 <defs>
  <clipPath id="pcc828edfa9">
   <rect x="51.213125" y="10.8" width="657.986875" height="392.96"/>
  </clipPath>
 </defs>
</svg>
