<?xml version="1.0" encoding="utf-8" standalone="no"?>
<!DOCTYPE svg PUBLIC "-//W3C//DTD SVG 1.1//EN"
  "http://www.w3.org/Graphics/SVG/1.1/DTD/svg11.dtd">
<svg xmlns:xlink="http://www.w3.org/1999/xlink" width="720pt" height="360pt" viewBox="0 0 720 360" xmlns="http://www.w3.org/2000/svg" version="1.1">
 <metadata>
  <rdf:RDF xmlns:dc="http://purl.org/dc/elements/1.1/" xmlns:cc="http://creativecommons.org/ns#" xmlns:rdf="http://www.w3.org/1999/02/22-rdf-syntax-ns#">
   <cc:Work>
    <dc:type rdf:resource="http://purl.org/dc/dcmitype/StillImage"/>
    <dc:date>2026-07-02T09:39:28.746754</dc:date>
    <dc:format>image/svg+xml</dc:format>
    <dc:creator>
     <cc:Agent>
      <dc:title>Matplotlib v3.10.9, https://matplotlib.org/</dc:title>
     </cc:Agent>
    </dc:creator>
   </cc:Work>
  </rdf:RDF>
 </metadata>
 <defs>
  <style type="text/css">*{stroke-linejoin: round; stroke-linecap: butt}</style>
 </defs>
 <g id="figure_1">
  <g id="patch_1">
   <path d="M 0 360 
L 720 360 
L 720 0 
L 0 0 
z
" style="fill: #ffffff"/>
  </g>
  <g id="axes_1">
   <g id="patch_2">
    <path d="M 51.05 316.481875 
L 709.2 316.481875 
L 709.2 10.8 
L 51.05 10.8 
z
" style="fill: #ffffff"/>
   </g>
   <g id="matplotlib.axis_1">
    <g id="xtick_1">
     <g id="line2d_1">
      <path d="M 51.05 316.481875 
L 51.05 10.8 
" clip-path="url(#pbef0c5795c)" style="fill: none; stroke-dasharray: 2.96,1.28; stroke-dashoffset: 0; stroke: #b0b0b0; stroke-opacity: 0.5; stroke-width: 0.8"/>
     </g>
     <g id="line2d_2">
      <defs>
       <path id="mbc6d778ede" d="M 0 0 
L 0 3.5 
" style="stroke: #000000; stroke-width: 0.8"/>
      </defs>
      <g>
       <use xlink:href="#mbc6d778ede" x="51.05" y="316.481875" style="stroke: #000000; stroke-width: 0.8"/>
      </g>
     </g>
     <g id="text_1">
      <!-- 0 -->
      <g transform="translate(48.279688 331.581875) scale(0.1 -0.1)">
       <defs>
        <path id="STHeitiTC-Medium-30" d="M 1747 5184 
Q 2502 5184 2944 4547 
Q 3386 3910 3386 2723 
Q 3386 1536 2938 902 
Q 2490 269 1738 269 
Q 986 269 573 893 
Q 160 1517 160 2729 
Q 160 3942 573 4563 
Q 986 5184 1747 5184 
z
M 1760 774 
Q 2285 774 2576 1283 
Q 2867 1792 2867 2726 
Q 2867 3661 2566 4160 
Q 2266 4659 1757 4659 
Q 1248 4659 966 4160 
Q 685 3661 685 2714 
Q 685 774 1760 774 
z
" transform="scale(0.015625)"/>
       </defs>
       <use xlink:href="#STHeitiTC-Medium-30"/>
      </g>
     </g>
    </g>
    <g id="xtick_2">
     <g id="line2d_3">
      <path d="M 161.477852 316.481875 
L 161.477852 10.8 
" clip-path="url(#pbef0c5795c)" style="fill: none; stroke-dasharray: 2.96,1.28; stroke-dashoffset: 0; stroke: #b0b0b0; stroke-opacity: 0.5; stroke-width: 0.8"/>
     </g>
     <g id="line2d_4">
      <g>
       <use xlink:href="#mbc6d778ede" x="161.477852" y="316.481875" style="stroke: #000000; stroke-width: 0.8"/>
      </g>
     </g>
     <g id="text_2">
      <!-- 50 -->
      <g transform="translate(155.937227 331.581875) scale(0.1 -0.1)">
       <defs>
        <path id="STHeitiTC-Medium-35" d="M 3194 4544 
L 1549 4544 
L 1338 3398 
Q 1613 3469 1856 3469 
Q 2477 3469 2893 3030 
Q 3309 2592 3309 1913 
Q 3309 1235 2861 752 
Q 2413 269 1664 269 
Q 1088 269 691 621 
Q 294 973 211 1587 
L 768 1587 
Q 851 1203 1107 998 
Q 1363 794 1690 794 
Q 2125 794 2438 1123 
Q 2752 1453 2752 1939 
Q 2752 2374 2480 2656 
Q 2208 2938 1747 2938 
Q 1286 2938 672 2675 
L 1120 5069 
L 3194 5069 
L 3194 4544 
z
" transform="scale(0.015625)"/>
       </defs>
       <use xlink:href="#STHeitiTC-Medium-35"/>
       <use xlink:href="#STHeitiTC-Medium-30" transform="translate(55.399994 0)"/>
      </g>
     </g>
    </g>
    <g id="xtick_3">
     <g id="line2d_5">
      <path d="M 271.905705 316.481875 
L 271.905705 10.8 
" clip-path="url(#pbef0c5795c)" style="fill: none; stroke-dasharray: 2.96,1.28; stroke-dashoffset: 0; stroke: #b0b0b0; stroke-opacity: 0.5; stroke-width: 0.8"/>
     </g>
     <g id="line2d_6">
      <g>
       <use xlink:href="#mbc6d778ede" x="271.905705" y="316.481875" style="stroke: #000000; stroke-width: 0.8"/>
      </g>
     </g>
     <g id="text_3">
      <!-- 100 -->
      <g transform="translate(263.594767 331.581875) scale(0.1 -0.1)">
       <defs>
        <path id="STHeitiTC-Medium-31" d="M 2131 384 
L 1587 384 
L 1587 4531 
L 826 4531 
L 1158 5069 
L 2131 5069 
L 2131 384 
z
" transform="scale(0.015625)"/>
       </defs>
       <use xlink:href="#STHeitiTC-Medium-31"/>
       <use xlink:href="#STHeitiTC-Medium-30" transform="translate(55.399994 0)"/>
       <use xlink:href="#STHeitiTC-Medium-30" transform="translate(110.799988 0)"/>
      </g>
     </g>
    </g>
    <g id="xtick_4">
     <g id="line2d_7">
      <path d="M 382.333557 316.481875 
L 382.333557 10.8 
" clip-path="url(#pbef0c5795c)" style="fill: none; stroke-dasharray: 2.96,1.28; stroke-dashoffset: 0; stroke: #b0b0b0; stroke-opacity: 0.5; stroke-width: 0.8"/>
     </g>
     <g id="line2d_8">
      <g>
       <use xlink:href="#mbc6d778ede" x="382.333557" y="316.481875" style="stroke: #000000; stroke-width: 0.8"/>
      </g>
     </g>
     <g id="text_4">
      <!-- 150 -->
      <g transform="translate(374.02262 331.581875) scale(0.1 -0.1)">
       <use xlink:href="#STHeitiTC-Medium-31"/>
       <use xlink:href="#STHeitiTC-Medium-35" transform="translate(55.399994 0)"/>
       <use xlink:href="#STHeitiTC-Medium-30" transform="translate(110.799988 0)"/>
      </g>
     </g>
    </g>
    <g id="xtick_5">
     <g id="line2d_9">
      <path d="M 492.761409 316.481875 
L 492.761409 10.8 
" clip-path="url(#pbef0c5795c)" style="fill: none; stroke-dasharray: 2.96,1.28; stroke-dashoffset: 0; stroke: #b0b0b0; stroke-opacity: 0.5; stroke-width: 0.8"/>
     </g>
     <g id="line2d_10">
      <g>
       <use xlink:href="#mbc6d778ede" x="492.761409" y="316.481875" style="stroke: #000000; stroke-width: 0.8"/>
      </g>
     </g>
     <g id="text_5">
      <!-- 200 -->
      <g transform="translate(484.450472 331.581875) scale(0.1 -0.1)">
       <defs>
        <path id="STHeitiTC-Medium-32" d="M 3360 384 
L 90 384 
L 1914 2355 
Q 2374 2842 2566 3123 
Q 2758 3405 2758 3763 
Q 2758 4122 2480 4390 
Q 2202 4659 1789 4659 
Q 1376 4659 1101 4368 
Q 826 4077 787 3539 
L 256 3539 
Q 288 4294 736 4739 
Q 1184 5184 1821 5184 
Q 2458 5184 2877 4771 
Q 3296 4358 3296 3763 
Q 3296 3328 3065 2950 
Q 2835 2573 2368 2074 
L 1293 915 
L 3360 915 
L 3360 384 
z
" transform="scale(0.015625)"/>
       </defs>
       <use xlink:href="#STHeitiTC-Medium-32"/>
       <use xlink:href="#STHeitiTC-Medium-30" transform="translate(55.399994 0)"/>
       <use xlink:href="#STHeitiTC-Medium-30" transform="translate(110.799988 0)"/>
      </g>
     </g>
    </g>
    <g id="xtick_6">
     <g id="line2d_11">
      <path d="M 603.189262 316.481875 
L 603.189262 10.8 
" clip-path="url(#pbef0c5795c)" style="fill: none; stroke-dasharray: 2.96,1.28; stroke-dashoffset: 0; stroke: #b0b0b0; stroke-opacity: 0.5; stroke-width: 0.8"/>
     </g>
     <g id="line2d_12">
      <g>
       <use xlink:href="#mbc6d778ede" x="603.189262" y="316.481875" style="stroke: #000000; stroke-width: 0.8"/>
      </g>
     </g>
     <g id="text_6">
      <!-- 250 -->
      <g transform="translate(594.878324 331.581875) scale(0.1 -0.1)">
       <use xlink:href="#STHeitiTC-Medium-32"/>
       <use xlink:href="#STHeitiTC-Medium-35" transform="translate(55.399994 0)"/>
       <use xlink:href="#STHeitiTC-Medium-30" transform="translate(110.799988 0)"/>
      </g>
     </g>
    </g>
    <g id="text_7">
     <!-- 测试时间 (秒) -->
     <g transform="translate(344.19625 347.542813) scale(0.12 -0.12)">
      <defs>
       <path id="STHeitiTC-Medium-6d4b" d="M 1446 4013 
Q 1261 4186 1072 4320 
Q 883 4454 653 4582 
L 954 4973 
Q 1152 4858 1360 4726 
Q 1568 4595 1773 4461 
L 1446 4013 
z
M 3590 1171 
L 3590 4218 
L 2336 4218 
L 2336 1088 
L 1850 1088 
Q 1875 1299 1888 1577 
Q 1901 1856 1901 2099 
L 1901 3770 
Q 1901 4019 1888 4281 
Q 1875 4544 1862 4730 
Q 1946 4710 2038 4697 
Q 2131 4685 2252 4675 
Q 2374 4666 2537 4662 
Q 2701 4659 2931 4659 
Q 3168 4659 3341 4662 
Q 3514 4666 3642 4675 
Q 3770 4685 3869 4697 
Q 3968 4710 4070 4730 
Q 4064 4653 4057 4541 
Q 4051 4429 4044 4297 
Q 4038 4166 4035 4028 
Q 4032 3891 4032 3770 
L 4032 2131 
Q 4032 1862 4048 1603 
Q 4064 1344 4083 1171 
L 3590 1171 
z
M 1318 2400 
Q 1146 2534 896 2675 
Q 646 2816 416 2912 
L 710 3405 
Q 941 3283 1184 3152 
Q 1427 3021 1619 2912 
L 1318 2400 
z
M 4378 941 
Q 4390 1043 4403 1171 
Q 4416 1299 4425 1430 
Q 4435 1562 4438 1690 
Q 4442 1818 4442 1926 
L 4442 3520 
Q 4442 3635 4435 3760 
Q 4429 3885 4419 4009 
Q 4410 4134 4397 4246 
Q 4384 4358 4371 4435 
Q 4499 4403 4633 4403 
Q 4768 4403 4890 4416 
Q 4954 4429 4960 4393 
Q 4966 4358 4909 4307 
Q 4877 4275 4877 4122 
L 4877 1933 
Q 4877 1722 4889 1440 
Q 4902 1158 4922 941 
L 4378 941 
z
M 5914 4922 
Q 5875 4890 5862 4851 
Q 5850 4813 5850 4736 
L 5850 77 
Q 5850 -122 5830 -237 
Q 5811 -352 5721 -429 
Q 5632 -506 5440 -557 
Q 5248 -608 4902 -672 
Q 4870 -512 4812 -352 
Q 4755 -192 4646 -13 
Q 4890 -38 5040 -35 
Q 5190 -32 5273 6 
Q 5357 45 5385 134 
Q 5414 224 5414 371 
L 5414 4102 
Q 5414 4397 5398 4669 
Q 5382 4941 5363 5094 
Q 5491 5069 5603 5062 
Q 5715 5056 5862 5062 
Q 5958 5069 5971 5021 
Q 5984 4973 5914 4922 
z
M 3232 3578 
Q 3187 3514 3187 3002 
Q 3187 2611 3184 2323 
Q 3181 2035 3168 1814 
Q 3155 1594 3136 1421 
Q 3117 1248 3085 1088 
Q 3014 749 2787 345 
Q 2560 -58 2067 -550 
Q 1952 -429 1814 -342 
Q 1677 -256 1536 -205 
Q 1856 13 2070 233 
Q 2285 454 2419 681 
Q 2554 909 2621 1149 
Q 2688 1389 2720 1651 
Q 2752 1978 2749 2483 
Q 2746 2989 2714 3725 
Q 2810 3699 2957 3692 
Q 3104 3686 3187 3699 
Q 3258 3712 3270 3673 
Q 3283 3635 3232 3578 
z
M 1594 1568 
Q 1568 1472 1545 1376 
Q 1523 1280 1494 1171 
Q 1466 1062 1427 928 
Q 1389 794 1338 614 
Q 1261 333 1184 25 
Q 1107 -282 1043 -602 
Q 877 -474 745 -400 
Q 614 -326 454 -256 
Q 563 -51 684 214 
Q 806 480 915 845 
Q 941 934 976 1056 
Q 1011 1178 1043 1306 
Q 1075 1434 1104 1565 
Q 1133 1696 1152 1811 
Q 1242 1715 1344 1657 
Q 1446 1600 1594 1568 
z
M 4058 -294 
Q 3827 32 3622 265 
Q 3418 499 3181 685 
L 3526 1030 
Q 3750 838 4000 595 
Q 4250 352 4454 102 
L 4058 -294 
z
" transform="scale(0.015625)"/>
       <path id="STHeitiTC-Medium-8bd5" d="M 1510 -147 
Q 1370 -314 1299 -419 
Q 1229 -525 1184 -634 
Q 1094 -506 960 -384 
Q 826 -262 710 -186 
Q 838 -58 892 80 
Q 947 218 947 429 
L 947 2618 
Q 800 2618 694 2614 
Q 589 2611 509 2608 
Q 429 2605 365 2598 
Q 301 2592 237 2586 
L 237 3168 
Q 365 3155 521 3145 
Q 678 3136 890 3136 
Q 1094 3136 1241 3145 
Q 1389 3155 1523 3168 
Q 1491 3021 1472 2803 
Q 1453 2586 1453 2368 
L 1453 531 
Q 1606 704 1715 851 
Q 1824 998 1952 1203 
Q 1997 1050 2073 928 
Q 2150 806 2253 717 
L 1510 -147 
z
M 1293 3635 
Q 1165 3878 998 4131 
Q 832 4384 627 4646 
L 1133 4960 
Q 1299 4736 1478 4483 
Q 1658 4230 1798 4006 
L 1293 3635 
z
M 5120 4051 
Q 5069 4218 4973 4400 
Q 4877 4582 4774 4710 
L 5280 4941 
Q 5402 4794 5501 4621 
Q 5600 4448 5664 4314 
L 5120 4051 
z
M 3283 653 
Q 3475 698 3670 746 
Q 3866 794 4077 858 
Q 4058 704 4048 595 
Q 4038 486 4051 339 
Q 3571 256 3129 131 
Q 2688 6 2285 -179 
Q 2259 6 2233 150 
Q 2208 294 2157 461 
Q 2330 486 2483 508 
Q 2637 531 2784 557 
L 2784 2163 
Q 2598 2157 2457 2150 
Q 2317 2144 2208 2112 
L 2208 2675 
Q 2355 2643 2531 2633 
Q 2707 2624 2976 2624 
Q 3245 2624 3427 2633 
Q 3610 2643 3750 2675 
L 3750 2112 
Q 3571 2157 3283 2157 
L 3283 653 
z
M 3904 3834 
Q 3872 4288 3849 4605 
Q 3827 4922 3821 5139 
Q 3891 5120 3984 5113 
Q 4077 5107 4169 5104 
Q 4262 5101 4345 5107 
Q 4429 5114 4486 5126 
Q 4589 5146 4601 5107 
Q 4614 5069 4518 4979 
Q 4448 4915 4432 4611 
Q 4416 4307 4442 3846 
Q 4922 3859 5264 3884 
Q 5606 3910 5824 3942 
L 5837 3334 
Q 5626 3366 5283 3369 
Q 4941 3373 4474 3360 
Q 4525 2637 4614 2086 
Q 4704 1536 4832 1203 
Q 4947 902 5040 697 
Q 5133 493 5206 371 
Q 5280 250 5337 198 
Q 5395 147 5440 154 
Q 5510 166 5568 323 
Q 5626 480 5664 883 
Q 5792 678 5910 569 
Q 6029 461 6157 371 
Q 6035 -51 5920 -278 
Q 5805 -506 5686 -582 
Q 5568 -659 5440 -614 
Q 5312 -570 5165 -442 
Q 4896 -211 4675 192 
Q 4454 595 4301 1088 
Q 4256 1235 4205 1468 
Q 4154 1702 4106 1996 
Q 4058 2291 4016 2636 
Q 3974 2982 3942 3354 
L 3450 3341 
Q 2470 3309 2022 3245 
L 2010 3853 
Q 2234 3821 2589 3817 
Q 2944 3814 3443 3827 
L 3904 3834 
z
" transform="scale(0.015625)"/>
       <path id="STHeitiTC-Medium-65f6" d="M 3488 1306 
Q 3450 1446 3398 1606 
Q 3347 1766 3289 1926 
Q 3232 2086 3171 2236 
Q 3110 2387 3053 2515 
L 3571 2694 
Q 3597 2560 3648 2406 
Q 3699 2253 3763 2096 
Q 3827 1939 3904 1788 
Q 3981 1638 4058 1510 
L 3488 1306 
z
M 4666 3731 
Q 4666 4301 4650 4646 
Q 4634 4992 4595 5197 
Q 4749 5178 4928 5168 
Q 5107 5158 5216 5165 
Q 5318 5171 5340 5136 
Q 5363 5101 5306 5069 
Q 5235 5030 5212 4969 
Q 5190 4909 5190 4819 
L 5190 3738 
Q 5408 3744 5600 3757 
Q 5792 3770 5958 3782 
L 5958 3194 
Q 5798 3213 5606 3222 
Q 5414 3232 5190 3238 
L 5190 19 
Q 5190 -166 5155 -288 
Q 5120 -410 4998 -483 
Q 4877 -557 4653 -601 
Q 4429 -646 4045 -678 
Q 4006 -288 3776 6 
Q 4064 -13 4240 -9 
Q 4416 -6 4512 16 
Q 4608 38 4637 86 
Q 4666 134 4666 211 
L 4666 3245 
L 3891 3245 
Q 3533 3245 3225 3232 
Q 2918 3219 2682 3194 
L 2682 3782 
Q 2912 3757 3225 3744 
Q 3539 3731 3891 3731 
L 4666 3731 
z
M 2010 4090 
L 979 4090 
L 979 2765 
L 2010 2765 
L 2010 4090 
z
M 2010 2317 
L 979 2317 
L 979 998 
L 2010 998 
L 2010 2317 
z
M 979 -288 
L 442 -288 
Q 474 -26 480 176 
Q 486 378 486 563 
L 486 3885 
Q 486 4051 480 4249 
Q 474 4448 448 4595 
Q 595 4563 835 4553 
Q 1075 4544 1498 4544 
Q 1914 4544 2157 4553 
Q 2400 4563 2541 4595 
Q 2515 4454 2508 4252 
Q 2502 4051 2502 3885 
L 2502 832 
Q 2502 608 2512 419 
Q 2522 230 2547 -13 
L 2010 -13 
L 2010 570 
L 979 570 
L 979 -288 
z
" transform="scale(0.015625)"/>
       <path id="STHeitiTC-Medium-95f4" d="M 1786 3898 
Q 1677 4186 1545 4410 
Q 1414 4634 1229 4851 
L 1741 5114 
Q 1926 4870 2064 4672 
Q 2202 4474 2342 4237 
L 1786 3898 
z
M 5715 4806 
Q 5702 4742 5699 4678 
Q 5696 4614 5693 4528 
Q 5690 4442 5690 4323 
Q 5690 4205 5690 4038 
L 5690 -51 
Q 5690 -256 5670 -371 
Q 5651 -486 5558 -553 
Q 5466 -621 5264 -659 
Q 5062 -698 4698 -742 
Q 4678 -576 4633 -432 
Q 4589 -288 4480 -96 
Q 4723 -128 4860 -134 
Q 4998 -141 5065 -112 
Q 5133 -83 5149 -9 
Q 5165 64 5165 198 
L 5165 4282 
L 3680 4282 
Q 3187 4282 2822 4243 
L 2822 4806 
Q 3206 4781 3539 4774 
Q 3872 4768 4275 4768 
Q 4672 4768 5024 4774 
Q 5376 4781 5715 4806 
z
M 4416 467 
Q 4326 474 4233 480 
Q 4141 486 4009 492 
Q 3878 499 3692 499 
Q 3507 499 3238 499 
Q 2970 499 2784 499 
Q 2598 499 2464 492 
Q 2330 486 2234 480 
Q 2138 474 2048 467 
Q 2061 525 2067 662 
Q 2074 800 2074 934 
L 2074 2950 
Q 2074 3078 2067 3216 
Q 2061 3354 2048 3411 
Q 2138 3398 2234 3395 
Q 2330 3392 2464 3385 
Q 2598 3379 2784 3379 
Q 2970 3379 3238 3379 
Q 3507 3379 3692 3379 
Q 3878 3379 4009 3385 
Q 4141 3392 4233 3395 
Q 4326 3398 4416 3411 
Q 4403 3354 4393 3216 
Q 4384 3078 4384 2950 
L 4384 934 
Q 4384 800 4393 662 
Q 4403 525 4416 467 
z
M 1318 3680 
Q 1280 3635 1280 3488 
L 1280 -678 
L 678 -678 
Q 710 -397 723 -137 
Q 736 122 736 448 
L 736 3117 
Q 736 3347 729 3536 
Q 723 3725 710 3898 
Q 877 3866 1001 3856 
Q 1126 3846 1229 3853 
Q 1472 3872 1318 3680 
z
M 3878 2970 
L 2573 2970 
L 2573 2176 
L 3878 2176 
L 3878 2970 
z
M 3878 1760 
L 2573 1760 
L 2573 934 
L 3878 934 
L 3878 1760 
z
" transform="scale(0.015625)"/>
       <path id="STHeitiTC-Medium-20" transform="scale(0.015625)"/>
       <path id="STHeitiTC-Medium-28" d="M 2048 5779 
Q 1709 5082 1526 4237 
Q 1344 3392 1344 2541 
Q 1344 877 1888 -442 
L 1312 -442 
Q 787 819 787 2483 
Q 787 4275 1440 5779 
L 2048 5779 
z
" transform="scale(0.015625)"/>
       <path id="STHeitiTC-Medium-79d2" d="M 4672 4915 
Q 4602 4883 4579 4838 
Q 4557 4794 4557 4723 
L 4557 1670 
Q 4557 1395 4355 1235 
Q 4154 1075 3654 1043 
Q 3642 1210 3578 1363 
Q 3514 1517 3398 1645 
Q 3610 1606 3738 1600 
Q 3866 1594 3933 1626 
Q 4000 1658 4022 1722 
Q 4045 1786 4045 1894 
L 4045 4237 
Q 4045 4435 4041 4566 
Q 4038 4698 4035 4790 
Q 4032 4883 4022 4944 
Q 4013 5005 4000 5069 
Q 4141 5050 4320 5040 
Q 4499 5030 4602 5037 
Q 4723 5037 4739 4995 
Q 4755 4954 4672 4915 
z
M 5722 2099 
Q 5792 2086 5789 2054 
Q 5786 2022 5715 1990 
Q 5690 1978 5658 1949 
Q 5626 1920 5574 1833 
Q 5523 1747 5440 1590 
Q 5357 1434 5222 1178 
Q 5030 806 4796 515 
Q 4563 224 4262 0 
Q 3962 -224 3571 -400 
Q 3181 -576 2682 -717 
Q 2554 -448 2221 -275 
Q 3027 -115 3622 192 
Q 4218 499 4518 947 
Q 4621 1101 4717 1280 
Q 4813 1459 4889 1641 
Q 4966 1824 5020 2003 
Q 5075 2182 5107 2336 
Q 5261 2253 5427 2189 
Q 5594 2125 5722 2099 
z
M 2669 1222 
Q 2605 1357 2518 1507 
Q 2432 1658 2336 1802 
Q 2240 1946 2144 2080 
Q 2048 2214 1965 2317 
L 2310 2624 
Q 2406 2502 2512 2358 
Q 2618 2214 2717 2067 
Q 2816 1920 2905 1776 
Q 2995 1632 3059 1517 
L 2669 1222 
z
M 3674 3622 
Q 3642 3590 3597 3472 
Q 3552 3354 3501 3130 
Q 3462 2944 3395 2720 
Q 3328 2496 3200 2163 
Q 3072 2214 2957 2240 
Q 2842 2266 2707 2278 
Q 2874 2675 2982 3078 
Q 3091 3482 3123 3840 
Q 3238 3795 3350 3779 
Q 3462 3763 3571 3770 
Q 3680 3776 3702 3721 
Q 3725 3667 3674 3622 
z
M 5645 2464 
Q 5453 2771 5229 3068 
Q 5005 3366 4768 3642 
L 5216 3923 
Q 5453 3654 5683 3379 
Q 5914 3104 6157 2790 
L 5645 2464 
z
M 1421 4320 
Q 1210 4282 1011 4250 
Q 813 4218 666 4198 
Q 634 4339 592 4444 
Q 550 4550 486 4659 
Q 602 4659 752 4675 
Q 902 4691 1049 4710 
Q 1197 4730 1337 4755 
Q 1478 4781 1574 4806 
Q 1798 4864 2032 4957 
Q 2266 5050 2451 5139 
Q 2502 4992 2572 4857 
Q 2643 4723 2714 4666 
Q 2790 4595 2784 4569 
Q 2778 4544 2682 4544 
Q 2662 4544 2633 4541 
Q 2605 4538 2528 4525 
Q 2451 4512 2304 4483 
Q 2157 4454 1901 4410 
L 1901 3552 
Q 2202 3558 2394 3568 
Q 2586 3578 2746 3610 
L 2746 3040 
Q 2586 3066 2397 3078 
Q 2208 3091 1901 3091 
L 1901 538 
Q 1901 301 1913 13 
Q 1926 -275 1952 -563 
L 1370 -563 
Q 1395 -275 1408 13 
Q 1421 301 1421 538 
L 1421 1984 
Q 1235 1523 1020 1139 
Q 806 755 570 467 
Q 422 749 237 973 
Q 410 1178 589 1427 
Q 768 1677 928 1949 
Q 1088 2221 1216 2496 
Q 1344 2771 1421 3027 
L 1421 3098 
Q 1222 3098 1072 3094 
Q 922 3091 797 3084 
Q 672 3078 573 3065 
Q 474 3053 384 3040 
L 384 3610 
Q 480 3597 579 3584 
Q 678 3571 800 3564 
Q 922 3558 1072 3555 
Q 1222 3552 1421 3552 
L 1421 4320 
z
" transform="scale(0.015625)"/>
       <path id="STHeitiTC-Medium-29" d="M 922 5779 
Q 1574 4275 1574 2483 
Q 1574 819 1050 -442 
L 474 -442 
Q 1018 877 1018 2541 
Q 1018 3392 835 4237 
Q 653 5082 314 5779 
L 922 5779 
z
" transform="scale(0.015625)"/>
      </defs>
      <use xlink:href="#STHeitiTC-Medium-6d4b"/>
      <use xlink:href="#STHeitiTC-Medium-8bd5" transform="translate(99.999985 0)"/>
      <use xlink:href="#STHeitiTC-Medium-65f6" transform="translate(199.999969 0)"/>
      <use xlink:href="#STHeitiTC-Medium-95f4" transform="translate(299.999954 0)"/>
      <use xlink:href="#STHeitiTC-Medium-20" transform="translate(399.999939 0)"/>
      <use xlink:href="#STHeitiTC-Medium-28" transform="translate(424.999924 0)"/>
      <use xlink:href="#STHeitiTC-Medium-79d2" transform="translate(461.899918 0)"/>
      <use xlink:href="#STHeitiTC-Medium-29" transform="translate(561.899902 0)"/>
     </g>
    </g>
   </g>
   <g id="matplotlib.axis_2">
    <g id="ytick_1">
     <g id="line2d_13">
      <path d="M 51.05 271.710287 
L 709.2 271.710287 
" clip-path="url(#pbef0c5795c)" style="fill: none; stroke-dasharray: 2.96,1.28; stroke-dashoffset: 0; stroke: #b0b0b0; stroke-opacity: 0.5; stroke-width: 0.8"/>
     </g>
     <g id="line2d_14">
      <defs>
       <path id="md5afcc1032" d="M 0 0 
L -3.5 0 
" style="stroke: #000000; stroke-width: 0.8"/>
      </defs>
      <g>
       <use xlink:href="#md5afcc1032" x="51.05" y="271.710287" style="stroke: #000000; stroke-width: 0.8"/>
      </g>
     </g>
     <g id="text_8">
      <!-- 20 -->
      <g transform="translate(32.96875 275.760287) scale(0.1 -0.1)">
       <use xlink:href="#STHeitiTC-Medium-32"/>
       <use xlink:href="#STHeitiTC-Medium-30" transform="translate(55.399994 0)"/>
      </g>
     </g>
    </g>
    <g id="ytick_2">
     <g id="line2d_15">
      <path d="M 51.05 209.956373 
L 709.2 209.956373 
" clip-path="url(#pbef0c5795c)" style="fill: none; stroke-dasharray: 2.96,1.28; stroke-dashoffset: 0; stroke: #b0b0b0; stroke-opacity: 0.5; stroke-width: 0.8"/>
     </g>
     <g id="line2d_16">
      <g>
       <use xlink:href="#md5afcc1032" x="51.05" y="209.956373" style="stroke: #000000; stroke-width: 0.8"/>
      </g>
     </g>
     <g id="text_9">
      <!-- 40 -->
      <g transform="translate(32.96875 214.006373) scale(0.1 -0.1)">
       <defs>
        <path id="STHeitiTC-Medium-34" d="M 3418 1453 
L 2861 1453 
L 2861 384 
L 2317 384 
L 2317 1453 
L 70 1453 
L 2701 5184 
L 2861 5184 
L 2861 1984 
L 3418 1984 
L 3418 1453 
z
M 2317 1984 
L 2317 3712 
L 1094 1984 
L 2317 1984 
z
" transform="scale(0.015625)"/>
       </defs>
       <use xlink:href="#STHeitiTC-Medium-34"/>
       <use xlink:href="#STHeitiTC-Medium-30" transform="translate(55.399994 0)"/>
      </g>
     </g>
    </g>
    <g id="ytick_3">
     <g id="line2d_17">
      <path d="M 51.05 148.202459 
L 709.2 148.202459 
" clip-path="url(#pbef0c5795c)" style="fill: none; stroke-dasharray: 2.96,1.28; stroke-dashoffset: 0; stroke: #b0b0b0; stroke-opacity: 0.5; stroke-width: 0.8"/>
     </g>
     <g id="line2d_18">
      <g>
       <use xlink:href="#md5afcc1032" x="51.05" y="148.202459" style="stroke: #000000; stroke-width: 0.8"/>
      </g>
     </g>
     <g id="text_10">
      <!-- 60 -->
      <g transform="translate(32.96875 152.252459) scale(0.1 -0.1)">
       <defs>
        <path id="STHeitiTC-Medium-36" d="M 1594 3098 
Q 1798 3155 1984 3155 
Q 2515 3155 2912 2732 
Q 3309 2310 3309 1708 
Q 3309 1107 2880 688 
Q 2451 269 1830 269 
Q 1210 269 797 691 
Q 384 1114 384 1722 
Q 384 2016 499 2326 
Q 614 2637 915 3085 
L 2336 5203 
L 2797 4915 
L 1594 3098 
z
M 1843 806 
Q 2221 806 2493 1075 
Q 2765 1344 2765 1728 
Q 2765 2112 2496 2381 
Q 2227 2650 1843 2650 
Q 1459 2650 1190 2381 
Q 922 2112 922 1728 
Q 922 1344 1194 1075 
Q 1466 806 1843 806 
z
" transform="scale(0.015625)"/>
       </defs>
       <use xlink:href="#STHeitiTC-Medium-36"/>
       <use xlink:href="#STHeitiTC-Medium-30" transform="translate(55.399994 0)"/>
      </g>
     </g>
    </g>
    <g id="ytick_4">
     <g id="line2d_19">
      <path d="M 51.05 86.448545 
L 709.2 86.448545 
" clip-path="url(#pbef0c5795c)" style="fill: none; stroke-dasharray: 2.96,1.28; stroke-dashoffset: 0; stroke: #b0b0b0; stroke-opacity: 0.5; stroke-width: 0.8"/>
     </g>
     <g id="line2d_20">
      <g>
       <use xlink:href="#md5afcc1032" x="51.05" y="86.448545" style="stroke: #000000; stroke-width: 0.8"/>
      </g>
     </g>
     <g id="text_11">
      <!-- 80 -->
      <g transform="translate(32.96875 90.498545) scale(0.1 -0.1)">
       <defs>
        <path id="STHeitiTC-Medium-38" d="M 2547 2950 
Q 3373 2522 3373 1747 
Q 3373 1114 2928 691 
Q 2483 269 1763 269 
Q 1043 269 608 691 
Q 173 1114 173 1709 
Q 173 2515 1018 2950 
Q 390 3315 390 3942 
Q 390 4435 800 4809 
Q 1210 5184 1782 5184 
Q 2355 5184 2758 4819 
Q 3162 4454 3162 3930 
Q 3162 3322 2547 2950 
z
M 1792 3181 
Q 2118 3181 2364 3411 
Q 2611 3642 2611 3939 
Q 2611 4237 2380 4445 
Q 2150 4653 1785 4653 
Q 1421 4653 1184 4445 
Q 947 4237 947 3939 
Q 947 3642 1203 3411 
Q 1459 3181 1792 3181 
z
M 1773 794 
Q 2234 794 2528 1069 
Q 2822 1344 2822 1728 
Q 2822 2112 2518 2393 
Q 2214 2675 1782 2675 
Q 1350 2675 1036 2384 
Q 723 2093 723 1699 
Q 723 1306 1014 1050 
Q 1306 794 1773 794 
z
" transform="scale(0.015625)"/>
       </defs>
       <use xlink:href="#STHeitiTC-Medium-38"/>
       <use xlink:href="#STHeitiTC-Medium-30" transform="translate(55.399994 0)"/>
      </g>
     </g>
    </g>
    <g id="ytick_5">
     <g id="line2d_21">
      <path d="M 51.05 24.694631 
L 709.2 24.694631 
" clip-path="url(#pbef0c5795c)" style="fill: none; stroke-dasharray: 2.96,1.28; stroke-dashoffset: 0; stroke: #b0b0b0; stroke-opacity: 0.5; stroke-width: 0.8"/>
     </g>
     <g id="line2d_22">
      <g>
       <use xlink:href="#md5afcc1032" x="51.05" y="24.694631" style="stroke: #000000; stroke-width: 0.8"/>
      </g>
     </g>
     <g id="text_12">
      <!-- 100 -->
      <g transform="translate(27.428125 28.744631) scale(0.1 -0.1)">
       <use xlink:href="#STHeitiTC-Medium-31"/>
       <use xlink:href="#STHeitiTC-Medium-30" transform="translate(55.399994 0)"/>
       <use xlink:href="#STHeitiTC-Medium-30" transform="translate(110.799988 0)"/>
      </g>
     </g>
    </g>
    <g id="text_13">
     <!-- 吞吐量 (次/s) -->
     <g transform="translate(21.8325 198.519688) rotate(-90) scale(0.12 -0.12)">
      <defs>
       <path id="STHeitiTC-Medium-541e" d="M 4288 365 
L 4288 1363 
L 2003 1363 
L 2003 365 
L 4288 365 
z
M 3040 3046 
Q 2720 2362 1946 1798 
L 4576 1798 
Q 4205 2061 3939 2371 
Q 3674 2682 3533 3046 
L 3040 3046 
z
M 2790 4288 
Q 2272 4282 1856 4269 
Q 1440 4256 1152 4224 
L 1152 4813 
Q 1510 4781 2025 4765 
Q 2541 4749 3206 4749 
Q 3635 4749 3945 4752 
Q 4256 4755 4493 4764 
Q 4730 4774 4912 4787 
Q 5094 4800 5267 4813 
L 5267 4224 
Q 5101 4243 4925 4252 
Q 4749 4262 4525 4272 
Q 4301 4282 4009 4285 
Q 3718 4288 3322 4288 
Q 3302 3866 3206 3501 
Q 3731 3501 4131 3504 
Q 4531 3507 4844 3513 
Q 5158 3520 5404 3533 
Q 5651 3546 5875 3558 
L 5875 2982 
Q 5702 2995 5513 3004 
Q 5325 3014 5104 3020 
Q 4883 3027 4617 3033 
Q 4352 3040 4026 3040 
Q 4333 2522 4829 2246 
Q 5325 1971 6067 1869 
Q 5939 1702 5865 1555 
Q 5792 1408 5747 1222 
Q 5229 1395 4800 1658 
L 4800 314 
Q 4800 96 4806 -102 
Q 4813 -301 4845 -531 
L 4288 -531 
L 4288 -58 
L 2003 -58 
L 2003 -640 
L 1440 -640 
Q 1472 -384 1488 -198 
Q 1504 -13 1504 205 
L 1504 1504 
Q 1158 1293 736 1082 
Q 666 1210 563 1334 
Q 461 1459 333 1587 
Q 749 1741 1081 1894 
Q 1414 2048 1676 2221 
Q 1939 2394 2134 2595 
Q 2330 2797 2464 3046 
Q 2144 3046 1881 3040 
Q 1619 3034 1392 3027 
Q 1165 3021 966 3008 
Q 768 2995 570 2982 
L 570 3558 
Q 781 3546 995 3536 
Q 1210 3526 1456 3520 
Q 1702 3514 1993 3507 
Q 2285 3501 2650 3501 
Q 2701 3674 2736 3869 
Q 2771 4064 2790 4288 
z
" transform="scale(0.015625)"/>
       <path id="STHeitiTC-Medium-5410" d="M 1005 883 
L 1005 -154 
L 474 -154 
Q 486 0 492 115 
Q 499 230 505 326 
Q 512 422 512 515 
Q 512 608 512 723 
L 512 3866 
Q 512 4045 505 4201 
Q 499 4358 486 4467 
Q 698 4454 893 4451 
Q 1088 4448 1350 4448 
Q 1606 4448 1849 4451 
Q 2093 4454 2298 4467 
Q 2285 4378 2278 4221 
Q 2272 4064 2272 3866 
L 2272 1293 
Q 2272 1069 2278 877 
Q 2285 685 2304 416 
L 1779 416 
L 1779 883 
L 1005 883 
z
M 1779 1376 
L 1779 3949 
L 1005 3949 
L 1005 1376 
L 1779 1376 
z
M 4454 3386 
Q 4806 3392 5136 3405 
Q 5466 3418 5645 3450 
L 5645 2790 
Q 5466 2822 5136 2835 
Q 4806 2848 4454 2854 
L 4454 237 
Q 4915 243 5292 256 
Q 5670 269 5926 301 
L 5926 -352 
Q 5619 -320 5152 -301 
Q 4685 -282 4115 -282 
Q 3552 -282 3081 -298 
Q 2611 -314 2310 -346 
L 2310 307 
Q 2592 275 2995 259 
Q 3398 243 3891 237 
L 3891 2861 
Q 3539 2854 3219 2838 
Q 2899 2822 2714 2790 
L 2714 3450 
Q 2899 3418 3219 3405 
Q 3539 3392 3891 3386 
Q 3891 3840 3888 4147 
Q 3885 4454 3875 4649 
Q 3866 4845 3856 4950 
Q 3846 5056 3834 5114 
Q 3974 5088 4160 5078 
Q 4346 5069 4512 5069 
Q 4589 5069 4598 5040 
Q 4608 5011 4538 4960 
Q 4499 4928 4476 4864 
Q 4454 4800 4454 4742 
L 4454 3386 
z
" transform="scale(0.015625)"/>
       <path id="STHeitiTC-Medium-91cf" d="M 5229 3315 
Q 5165 3322 5062 3328 
Q 4960 3334 4745 3337 
Q 4531 3341 4169 3344 
Q 3808 3347 3226 3347 
Q 2630 3347 2262 3344 
Q 1894 3341 1676 3337 
Q 1459 3334 1360 3328 
Q 1261 3322 1197 3315 
Q 1210 3520 1219 3712 
Q 1229 3904 1229 4102 
Q 1229 4320 1219 4502 
Q 1210 4685 1197 4870 
Q 1280 4858 1392 4848 
Q 1504 4838 1718 4835 
Q 1933 4832 2288 4829 
Q 2643 4826 3226 4826 
Q 3789 4826 4144 4829 
Q 4499 4832 4713 4838 
Q 4928 4845 5037 4851 
Q 5146 4858 5222 4870 
Q 5216 4685 5213 4502 
Q 5210 4320 5210 4102 
Q 5210 3917 5213 3712 
Q 5216 3507 5229 3315 
z
M 1690 3955 
L 1690 3629 
L 4742 3629 
L 4742 3955 
L 1690 3955 
z
M 4742 4224 
L 4742 4531 
L 1690 4531 
L 1690 4224 
L 4742 4224 
z
M 3398 1267 
L 4723 1267 
L 4723 1574 
L 3398 1574 
L 3398 1267 
z
M 2938 1574 
L 1670 1574 
L 1670 1267 
L 2938 1267 
L 2938 1574 
z
M 2938 2157 
L 1670 2157 
L 1670 1843 
L 2938 1843 
L 2938 2157 
z
M 3398 1843 
L 4723 1843 
L 4723 2157 
L 3398 2157 
L 3398 1843 
z
M 3398 -64 
Q 4211 -64 4809 -54 
Q 5408 -45 5875 -13 
L 5875 -448 
Q 5376 -422 4729 -412 
Q 4083 -403 3181 -403 
Q 2259 -403 1609 -412 
Q 960 -422 467 -448 
L 467 -13 
Q 928 -45 1523 -54 
Q 2118 -64 2938 -64 
L 2938 288 
Q 2285 282 1821 266 
Q 1357 250 986 218 
L 986 678 
Q 1370 646 1827 627 
Q 2285 608 2938 602 
L 2938 966 
Q 2534 966 2256 966 
Q 1978 966 1776 963 
Q 1574 960 1436 957 
Q 1299 954 1178 947 
Q 1197 1133 1203 1337 
Q 1210 1542 1210 1728 
Q 1210 1933 1203 2128 
Q 1197 2323 1178 2502 
Q 1267 2490 1376 2480 
Q 1485 2470 1696 2467 
Q 1907 2464 2265 2461 
Q 2624 2458 3206 2458 
Q 3776 2458 4131 2461 
Q 4486 2464 4700 2470 
Q 4915 2477 5024 2483 
Q 5133 2490 5210 2502 
Q 5190 2144 5190 1728 
Q 5190 1542 5196 1347 
Q 5203 1152 5216 947 
Q 5120 954 5005 957 
Q 4890 960 4694 963 
Q 4499 966 4192 966 
Q 3885 966 3398 966 
L 3398 602 
Q 4070 602 4534 621 
Q 4998 640 5363 678 
L 5363 218 
Q 4992 250 4528 269 
Q 4064 288 3398 288 
L 3398 -64 
z
M 5952 2682 
Q 5440 2707 4784 2720 
Q 4128 2733 3206 2733 
Q 2733 2733 2339 2729 
Q 1946 2726 1610 2720 
Q 1274 2714 986 2704 
Q 698 2694 448 2682 
L 448 3110 
Q 704 3098 992 3091 
Q 1280 3085 1616 3078 
Q 1952 3072 2342 3069 
Q 2733 3066 3206 3066 
Q 4128 3066 4784 3075 
Q 5440 3085 5952 3110 
L 5952 2682 
z
" transform="scale(0.015625)"/>
       <path id="STHeitiTC-Medium-6b21" d="M 1926 1818 
Q 1658 1363 1402 864 
Q 1146 365 858 -243 
Q 717 -77 601 41 
Q 486 160 326 275 
Q 499 493 646 701 
Q 794 909 928 1139 
Q 1062 1370 1193 1642 
Q 1325 1914 1472 2259 
Q 1594 2086 1706 1987 
Q 1818 1888 1926 1818 
z
M 3763 1536 
Q 3667 1139 3507 809 
Q 3347 480 3113 208 
Q 2880 -64 2569 -291 
Q 2259 -518 1856 -710 
Q 1754 -595 1600 -467 
Q 1446 -339 1318 -269 
Q 1798 -128 2160 102 
Q 2522 333 2774 624 
Q 3027 915 3180 1264 
Q 3334 1613 3392 1990 
Q 3411 2131 3411 2409 
Q 3411 2688 3392 3053 
Q 3514 3034 3680 3018 
Q 3846 3002 3974 3002 
Q 4218 3002 4083 2867 
Q 4000 2784 3930 2432 
Q 3936 1939 4077 1552 
Q 4218 1165 4486 867 
Q 4755 570 5152 352 
Q 5549 134 6074 -19 
Q 5939 -166 5836 -326 
Q 5734 -486 5677 -634 
Q 5242 -410 4918 -195 
Q 4595 19 4364 268 
Q 4134 518 3987 822 
Q 3840 1126 3763 1536 
z
M 1318 2976 
Q 1114 3379 912 3712 
Q 710 4045 499 4320 
L 928 4595 
Q 1184 4282 1411 3949 
Q 1638 3616 1811 3302 
L 1318 2976 
z
M 2931 3507 
Q 2765 3181 2621 2921 
Q 2477 2662 2349 2445 
Q 2253 2509 2115 2557 
Q 1978 2605 1824 2624 
Q 2285 3219 2557 3849 
Q 2829 4480 2931 5139 
Q 2995 5120 3084 5091 
Q 3174 5062 3273 5036 
Q 3373 5011 3465 4988 
Q 3558 4966 3622 4960 
Q 3699 4947 3728 4912 
Q 3757 4877 3686 4832 
Q 3597 4781 3539 4713 
Q 3482 4646 3411 4480 
Q 3341 4333 3280 4208 
Q 3219 4083 3155 3955 
L 4659 3955 
Q 4819 3955 5004 3958 
Q 5190 3962 5363 3971 
Q 5536 3981 5670 3987 
Q 5805 3994 5875 4006 
L 5318 2458 
L 4781 2554 
L 5133 3507 
L 2931 3507 
z
" transform="scale(0.015625)"/>
       <path id="STHeitiTC-Medium-2f" d="M 2675 5504 
L 736 77 
L 160 77 
L 2099 5504 
L 2675 5504 
z
" transform="scale(0.015625)"/>
       <path id="STHeitiTC-Medium-73" d="M 2259 3462 
L 1920 3110 
Q 1542 3462 1229 3462 
Q 1030 3462 896 3337 
Q 762 3213 762 3030 
Q 762 2848 912 2710 
Q 1062 2573 1446 2371 
Q 1830 2170 2038 1926 
Q 2246 1683 2246 1331 
Q 2246 883 1936 576 
Q 1626 269 1171 269 
Q 538 269 115 806 
L 448 1178 
Q 794 774 1152 774 
Q 1395 774 1568 934 
Q 1741 1094 1741 1308 
Q 1741 1523 1584 1667 
Q 1427 1811 1046 2003 
Q 666 2195 470 2428 
Q 275 2662 275 3043 
Q 275 3424 553 3693 
Q 832 3962 1289 3962 
Q 1747 3962 2259 3462 
z
" transform="scale(0.015625)"/>
      </defs>
      <use xlink:href="#STHeitiTC-Medium-541e"/>
      <use xlink:href="#STHeitiTC-Medium-5410" transform="translate(99.999985 0)"/>
      <use xlink:href="#STHeitiTC-Medium-91cf" transform="translate(199.999969 0)"/>
      <use xlink:href="#STHeitiTC-Medium-20" transform="translate(299.999954 0)"/>
      <use xlink:href="#STHeitiTC-Medium-28" transform="translate(324.999939 0)"/>
      <use xlink:href="#STHeitiTC-Medium-6b21" transform="translate(361.899933 0)"/>
      <use xlink:href="#STHeitiTC-Medium-2f" transform="translate(461.899918 0)"/>
      <use xlink:href="#STHeitiTC-Medium-73" transform="translate(505.599915 0)"/>
      <use xlink:href="#STHeitiTC-Medium-29" transform="translate(544.399902 0)"/>
     </g>
    </g>
   </g>
   <g id="line2d_23">
    <path d="M 51.05 302.587244 
L 59.884228 240.83333 
L 64.301342 179.079416 
L 66.509899 148.202459 
L 68.718456 119.178119 
L 70.927013 88.301162 
L 73.13557 64.217136 
L 75.344128 46.308501 
L 77.552685 33.957718 
L 79.761242 27.782326 
L 81.969799 27.782326 
L 84.178356 29.017405 
L 86.386913 29.017405 
L 88.59547 30.870022 
L 90.804027 30.252483 
L 93.012584 32.72264 
L 95.221141 33.340179 
L 97.429698 32.1051 
L 99.638255 31.487561 
L 101.846812 35.810335 
L 104.055369 32.72264 
L 106.263926 30.870022 
L 108.472483 31.487561 
L 110.68104 30.252483 
L 112.889597 25.929709 
L 115.098154 26.547248 
L 117.306711 27.782326 
L 119.515268 30.870022 
L 121.723826 32.1051 
L 123.932383 31.487561 
L 126.14094 31.487561 
L 128.349497 30.252483 
L 130.558054 26.547248 
L 132.766611 25.31217 
L 134.975168 25.31217 
L 137.183725 29.017405 
L 139.392282 29.634944 
L 143.809396 29.634944 
L 146.017953 32.1051 
L 148.22651 27.782326 
L 150.435067 27.164787 
L 152.643624 32.72264 
L 154.852181 36.427874 
L 157.060738 34.575257 
L 159.269295 35.810335 
L 161.477852 35.810335 
L 163.686409 31.487561 
L 165.894966 27.782326 
L 168.103523 34.575257 
L 170.312081 33.957718 
L 172.520638 44.455883 
L 174.729195 47.543579 
L 176.937752 47.543579 
L 179.146309 41.985727 
L 181.354866 46.92604 
L 183.563423 37.662953 
L 185.77198 33.340179 
L 187.980537 33.340179 
L 190.189094 31.487561 
L 192.397651 25.929709 
L 194.606208 24.694631 
L 218.900336 24.694631 
L 221.108893 30.870022 
L 223.31745 35.192796 
L 225.526007 36.427874 
L 227.734564 36.427874 
L 229.943121 54.336509 
L 232.151678 50.013735 
L 234.360235 59.276823 
L 236.568792 62.982057 
L 238.777349 66.069753 
L 240.985906 48.161118 
L 243.194463 47.543579 
L 245.40302 37.045414 
L 247.611577 35.810335 
L 249.820134 32.72264 
L 252.028691 32.72264 
L 254.237248 31.487561 
L 256.445805 28.399866 
L 258.654362 24.694631 
L 260.862919 25.31217 
L 269.697148 25.31217 
L 271.905705 24.694631 
L 282.94849 24.694631 
L 285.157047 29.634944 
L 287.365604 40.133109 
L 289.574161 44.455883 
L 291.782718 46.92604 
L 293.991275 46.92604 
L 296.199832 43.220805 
L 298.408389 35.810335 
L 300.616946 32.1051 
L 302.825503 29.634944 
L 305.03406 32.1051 
L 307.242617 32.72264 
L 309.451174 40.133109 
L 311.659732 39.51557 
L 313.868289 39.51557 
L 316.076846 37.045414 
L 318.285403 40.133109 
L 320.49396 30.252483 
L 322.702517 30.870022 
L 324.911074 40.133109 
L 327.119631 40.133109 
L 329.328188 35.192796 
L 331.536745 35.810335 
L 333.745302 35.192796 
L 335.953859 25.929709 
L 338.162416 25.929709 
L 340.370973 27.164787 
L 342.57953 26.547248 
L 349.205201 26.547248 
L 351.413758 25.31217 
L 353.622315 28.399866 
L 358.03943 28.399866 
L 360.247987 29.634944 
L 362.456544 33.340179 
L 364.665101 31.487561 
L 366.873658 32.1051 
L 369.082215 33.340179 
L 371.290772 33.340179 
L 373.499329 41.985727 
L 377.916443 40.750648 
L 380.125 49.396196 
L 382.333557 50.013735 
L 384.542114 38.280492 
L 386.750671 37.045414 
L 388.959228 37.662953 
L 391.167785 29.017405 
L 393.376342 27.164787 
L 395.584899 26.547248 
L 397.793456 26.547248 
L 400.002013 33.340179 
L 404.419128 34.575257 
L 406.627685 41.368188 
L 408.836242 41.368188 
L 411.044799 33.957718 
L 413.253356 32.1051 
L 415.461913 31.487561 
L 417.67047 24.694631 
L 433.130369 24.694631 
L 435.338926 27.164787 
L 437.547483 29.017405 
L 439.75604 29.017405 
L 441.964597 29.634944 
L 444.173154 31.487561 
L 446.381711 29.017405 
L 448.590268 27.164787 
L 450.798826 27.164787 
L 453.007383 29.634944 
L 455.21594 27.782326 
L 457.424497 27.782326 
L 459.633054 33.340179 
L 461.841611 35.192796 
L 464.050168 38.898031 
L 466.258725 50.631275 
L 468.467282 60.511901 
L 470.675839 63.599597 
L 472.884396 63.599597 
L 475.092953 61.746979 
L 477.30151 50.013735 
L 479.510067 40.750648 
L 481.718624 32.1051 
L 483.927181 30.252483 
L 486.135738 25.31217 
L 488.344295 25.31217 
L 490.552852 24.694631 
L 514.84698 24.694631 
L 517.055537 29.634944 
L 519.264094 29.634944 
L 521.472651 34.575257 
L 523.681208 35.810335 
L 525.889765 40.750648 
L 528.098322 37.662953 
L 530.306879 38.898031 
L 532.515436 42.603266 
L 534.723993 41.985727 
L 536.93255 37.045414 
L 539.141107 52.483892 
L 541.349664 51.866353 
L 543.558221 44.455883 
L 545.766779 44.455883 
L 547.975336 53.71897 
L 550.183893 40.750648 
L 552.39245 40.133109 
L 554.601007 38.898031 
L 556.809564 38.280492 
L 559.018121 29.017405 
L 561.226678 24.694631 
L 587.729362 24.694631 
L 589.937919 27.782326 
L 592.146477 28.399866 
L 594.355034 30.252483 
L 596.563591 39.51557 
L 598.772148 41.368188 
L 600.980705 39.51557 
L 603.189262 49.396196 
L 605.397819 49.396196 
L 607.606376 41.368188 
L 609.814933 40.750648 
L 612.02349 54.954049 
L 614.232047 46.308501 
L 616.440604 45.073422 
L 618.649161 49.396196 
L 620.857718 50.013735 
L 623.066275 34.575257 
L 625.274832 32.72264 
L 627.483389 32.1051 
L 629.691946 26.547248 
L 631.900503 28.399866 
L 640.734732 28.399866 
L 642.943289 24.694631 
L 660.611745 24.694631 
L 662.820302 29.017405 
L 667.237416 30.252483 
L 669.445973 41.985727 
L 671.65453 44.455883 
L 673.863087 41.368188 
L 678.280201 45.073422 
L 680.488758 40.750648 
L 682.697315 43.220805 
L 684.905872 54.954049 
L 687.11443 56.806666 
L 689.322987 56.806666 
L 691.531544 49.396196 
L 693.740101 44.455883 
L 695.948658 31.487561 
L 698.157215 27.164787 
L 700.365772 24.694631 
L 702.574329 28.399866 
L 709.2 28.399866 
L 709.2 28.399866 
" clip-path="url(#pbef0c5795c)" style="fill: none; stroke: #1f77b4; stroke-width: 1.8; stroke-linecap: square"/>
   </g>
   <g id="line2d_24">
    <path d="M 51.05 37.653589 
L 709.2 37.653589 
" clip-path="url(#pbef0c5795c)" style="fill: none; stroke-dasharray: 5.55,2.4; stroke-dashoffset: 0; stroke: #ff0000; stroke-width: 1.5"/>
   </g>
   <g id="patch_3">
    <path d="M 51.05 316.481875 
L 51.05 10.8 
" style="fill: none; stroke: #000000; stroke-width: 0.8; stroke-linejoin: miter; stroke-linecap: square"/>
   </g>
   <g id="patch_4">
    <path d="M 709.2 316.481875 
L 709.2 10.8 
" style="fill: none; stroke: #000000; stroke-width: 0.8; stroke-linejoin: miter; stroke-linecap: square"/>
   </g>
   <g id="patch_5">
    <path d="M 51.05 316.481875 
L 709.2 316.481875 
" style="fill: none; stroke: #000000; stroke-width: 0.8; stroke-linejoin: miter; stroke-linecap: square"/>
   </g>
   <g id="patch_6">
    <path d="M 51.05 10.8 
L 709.2 10.8 
" style="fill: none; stroke: #000000; stroke-width: 0.8; stroke-linejoin: miter; stroke-linecap: square"/>
   </g>
   <g id="legend_1">
    <g id="patch_7">
     <path d="M 58.05 311.481875 
L 215.614063 311.481875 
Q 217.614063 311.481875 217.614063 309.481875 
L 217.614063 280.04125 
Q 217.614063 278.04125 215.614063 278.04125 
L 58.05 278.04125 
Q 56.05 278.04125 56.05 280.04125 
L 56.05 309.481875 
Q 56.05 311.481875 58.05 311.481875 
z
" style="fill: #ffffff; opacity: 0.8; stroke: #cccccc; stroke-linejoin: miter"/>
    </g>
    <g id="line2d_25">
     <path d="M 60.05 287.431875 
L 70.05 287.431875 
L 80.05 287.431875 
" style="fill: none; stroke: #1f77b4; stroke-width: 1.8; stroke-linecap: square"/>
    </g>
    <g id="text_14">
     <!-- 吞吐量 (5秒滑动平均) -->
     <g transform="translate(88.05 290.931875) scale(0.1 -0.1)">
      <defs>
       <path id="STHeitiTC-Medium-6ed1" d="M 1754 1683 
Q 1709 1562 1667 1453 
Q 1626 1344 1581 1219 
Q 1536 1094 1485 947 
Q 1434 800 1363 602 
Q 1242 262 1165 3 
Q 1088 -256 1011 -531 
Q 922 -474 848 -429 
Q 774 -384 700 -345 
Q 627 -307 550 -272 
Q 474 -237 371 -192 
Q 531 51 659 297 
Q 787 544 928 877 
Q 1050 1165 1133 1414 
Q 1216 1664 1267 1958 
Q 1466 1747 1754 1683 
z
M 3059 -595 
L 2522 -595 
Q 2547 -410 2553 -269 
Q 2560 -128 2560 32 
L 2560 1760 
Q 2560 1971 2557 2102 
Q 2554 2234 2541 2336 
Q 2605 2330 2710 2326 
Q 2816 2323 2979 2320 
Q 3142 2317 3366 2317 
Q 3590 2317 3898 2317 
Q 4512 2317 4857 2320 
Q 5203 2323 5331 2336 
Q 5318 2240 5315 2102 
Q 5312 1965 5312 1760 
L 5312 -192 
Q 5312 -282 5273 -355 
Q 5235 -429 5129 -493 
Q 5024 -557 4841 -601 
Q 4659 -646 4371 -666 
Q 4365 -493 4329 -371 
Q 4294 -250 4205 -102 
Q 4506 -160 4653 -109 
Q 4800 -58 4800 51 
L 4800 294 
L 3059 294 
L 3059 -595 
z
M 3059 1094 
L 3059 672 
L 4800 672 
L 4800 1094 
L 3059 1094 
z
M 4800 1485 
L 4800 1914 
L 3059 1914 
L 3059 1485 
L 4800 1485 
z
M 1267 2547 
Q 1094 2688 860 2816 
Q 627 2944 397 3027 
L 640 3488 
Q 1139 3277 1517 3059 
L 1267 2547 
z
M 4826 4454 
L 3034 4454 
L 3034 3123 
L 3558 3123 
L 3558 3981 
L 4826 3981 
L 4826 4454 
z
M 4826 3571 
L 4026 3571 
L 4026 3123 
L 4826 3123 
L 4826 3571 
z
M 2554 4134 
Q 2554 4358 2550 4569 
Q 2547 4781 2534 4890 
Q 2618 4883 2758 4876 
Q 2899 4870 3081 4867 
Q 3264 4864 3478 4861 
Q 3693 4858 3917 4858 
Q 4141 4858 4365 4861 
Q 4589 4864 4781 4867 
Q 4973 4870 5120 4876 
Q 5267 4883 5338 4890 
Q 5325 4781 5321 4611 
Q 5318 4442 5318 4134 
L 5318 3123 
Q 5651 3123 5801 3129 
Q 5952 3136 6022 3149 
L 6022 2035 
L 5549 2035 
L 5549 2707 
L 2272 2707 
L 2272 2125 
L 1792 2125 
L 1792 3149 
Q 1901 3136 2115 3129 
Q 2330 3123 2554 3123 
L 2554 4134 
z
M 1568 3846 
Q 1440 4013 1261 4182 
Q 1082 4352 762 4576 
L 1133 4992 
Q 1581 4659 1958 4314 
L 1568 3846 
z
" transform="scale(0.015625)"/>
       <path id="STHeitiTC-Medium-52a8" d="M 4576 3437 
Q 4563 3194 4550 3002 
Q 4538 2810 4522 2640 
Q 4506 2470 4486 2304 
Q 4467 2138 4442 1946 
Q 4384 1530 4291 1197 
Q 4198 864 4028 566 
Q 3859 269 3587 -16 
Q 3315 -301 2893 -621 
Q 2797 -493 2649 -400 
Q 2502 -307 2272 -237 
Q 2650 -38 2918 147 
Q 3187 333 3372 544 
Q 3558 755 3680 1017 
Q 3802 1280 3878 1638 
Q 3949 1965 4006 2445 
Q 4064 2925 4090 3430 
Q 3942 3424 3788 3414 
Q 3635 3405 3488 3395 
Q 3341 3386 3209 3373 
Q 3078 3360 2982 3347 
L 2982 3898 
Q 3187 3872 3465 3862 
Q 3744 3853 4109 3853 
Q 4122 4256 4112 4595 
Q 4102 4934 4064 5158 
Q 4403 5069 4736 5069 
Q 4832 5069 4845 5043 
Q 4858 5018 4787 4941 
Q 4749 4896 4723 4825 
Q 4698 4755 4675 4633 
Q 4653 4512 4637 4323 
Q 4621 4134 4602 3859 
Q 4787 3866 5011 3875 
Q 5235 3885 5443 3901 
Q 5651 3917 5814 3933 
Q 5978 3949 6048 3962 
Q 6010 3776 5981 3558 
Q 5952 3341 5946 3181 
L 5837 742 
Q 5818 371 5770 140 
Q 5722 -90 5600 -224 
Q 5478 -358 5270 -428 
Q 5062 -499 4723 -557 
Q 4659 -173 4371 141 
Q 4640 122 4816 125 
Q 4992 128 5097 173 
Q 5203 218 5248 314 
Q 5293 410 5306 563 
L 5472 3437 
L 4576 3437 
z
M 1523 2618 
Q 1389 2618 1241 2611 
Q 1094 2605 953 2598 
Q 813 2592 685 2582 
Q 557 2573 467 2566 
L 467 3091 
Q 589 3072 720 3062 
Q 851 3053 1011 3046 
Q 1171 3040 1363 3037 
Q 1555 3034 1805 3034 
Q 2170 3034 2467 3043 
Q 2765 3053 3066 3085 
L 3066 2566 
Q 2816 2592 2512 2605 
Q 2208 2618 1830 2618 
Q 1952 2547 2061 2522 
Q 2170 2490 2173 2454 
Q 2176 2419 2093 2387 
Q 2022 2355 1936 2233 
Q 1850 2112 1792 1965 
Q 1754 1869 1706 1773 
Q 1658 1677 1597 1558 
Q 1536 1440 1446 1283 
Q 1357 1126 1229 909 
L 2541 1158 
Q 2445 1395 2381 1526 
Q 2317 1658 2246 1766 
L 2701 1978 
Q 2733 1894 2774 1792 
Q 2816 1690 2883 1542 
Q 2950 1395 3052 1180 
Q 3155 966 3302 659 
L 2790 416 
Q 2765 563 2682 787 
L 1651 525 
Q 1459 480 1286 432 
Q 1114 384 976 336 
Q 838 288 742 249 
Q 646 211 608 186 
Q 518 525 352 806 
Q 429 800 531 809 
Q 634 819 800 838 
Q 1075 1370 1257 1846 
Q 1440 2323 1523 2618 
z
M 2912 3930 
Q 2726 3955 2502 3968 
Q 2278 3981 1926 3981 
Q 1472 3981 1219 3968 
Q 966 3955 806 3930 
L 806 4493 
Q 890 4480 982 4467 
Q 1075 4454 1203 4448 
Q 1331 4442 1507 4438 
Q 1683 4435 1933 4435 
Q 2272 4435 2509 4448 
Q 2746 4461 2912 4486 
L 2912 3930 
z
" transform="scale(0.015625)"/>
       <path id="STHeitiTC-Medium-5e73" d="M 1773 2240 
Q 1683 2605 1552 2918 
Q 1421 3232 1261 3482 
L 1779 3693 
Q 1939 3398 2070 3104 
Q 2202 2810 2330 2464 
L 1773 2240 
z
M 5274 3539 
Q 5350 3514 5344 3475 
Q 5338 3437 5267 3424 
Q 5235 3418 5174 3338 
Q 5114 3258 5062 3168 
Q 4902 2874 4774 2650 
Q 4646 2426 4499 2202 
Q 4378 2266 4237 2307 
Q 4096 2349 3962 2368 
Q 4243 2675 4406 3033 
Q 4570 3392 4666 3776 
Q 4832 3706 4998 3638 
Q 5165 3571 5274 3539 
z
M 3488 1882 
Q 4307 1882 4896 1894 
Q 5485 1907 5946 1939 
L 5946 1325 
Q 5485 1357 4896 1369 
Q 4307 1382 3488 1382 
L 3488 262 
Q 3488 45 3504 -224 
Q 3520 -493 3552 -762 
L 2880 -762 
Q 2906 -531 2922 -243 
Q 2938 45 2938 262 
L 2938 1382 
Q 2112 1382 1513 1366 
Q 915 1350 454 1325 
L 454 1939 
Q 928 1907 1520 1894 
Q 2112 1882 2938 1882 
L 2938 4269 
Q 2278 4262 1801 4249 
Q 1325 4237 954 4211 
L 954 4806 
Q 1363 4774 1900 4761 
Q 2438 4749 3200 4749 
Q 3962 4749 4496 4761 
Q 5030 4774 5440 4806 
L 5440 4211 
Q 5069 4237 4601 4249 
Q 4134 4262 3488 4269 
L 3488 1882 
z
" transform="scale(0.015625)"/>
       <path id="STHeitiTC-Medium-5747" d="M 3699 3584 
Q 3546 3258 3376 2960 
Q 3206 2662 2957 2285 
Q 2848 2368 2713 2425 
Q 2579 2483 2413 2534 
Q 2534 2656 2627 2774 
Q 2720 2893 2813 3037 
Q 2906 3181 3005 3376 
Q 3104 3571 3238 3853 
Q 3290 3968 3344 4121 
Q 3398 4275 3446 4444 
Q 3494 4614 3532 4790 
Q 3571 4966 3590 5126 
Q 3795 5062 3968 5027 
Q 4141 4992 4339 4960 
Q 4410 4947 4413 4915 
Q 4416 4883 4333 4832 
Q 4282 4800 4240 4752 
Q 4198 4704 4150 4614 
Q 4102 4525 4044 4384 
Q 3987 4243 3904 4038 
L 5062 4038 
Q 5338 4038 5587 4054 
Q 5837 4070 6003 4090 
L 5875 352 
Q 5862 38 5820 -157 
Q 5779 -352 5635 -470 
Q 5491 -589 5216 -646 
Q 4941 -704 4474 -749 
Q 4442 -557 4381 -400 
Q 4320 -243 4173 -45 
Q 4550 -83 4777 -70 
Q 5005 -58 5126 9 
Q 5248 77 5289 214 
Q 5331 352 5338 563 
L 5440 3584 
L 3699 3584 
z
M 5018 1216 
Q 4749 1107 4509 1011 
Q 4269 915 4038 816 
Q 3808 717 3581 611 
Q 3354 506 3110 390 
Q 3059 563 2995 713 
Q 2931 864 2848 1030 
Q 3123 1088 3379 1161 
Q 3635 1235 3894 1324 
Q 4154 1414 4426 1532 
Q 4698 1651 4998 1798 
Q 4986 1638 4989 1507 
Q 4992 1376 5018 1216 
z
M 4000 1811 
Q 3910 2054 3772 2304 
Q 3635 2554 3488 2714 
L 4026 2989 
Q 4128 2790 4275 2531 
Q 4422 2272 4550 2067 
L 4000 1811 
z
M 1824 998 
Q 2067 1069 2275 1149 
Q 2483 1229 2643 1299 
Q 2611 1146 2604 1018 
Q 2598 890 2611 723 
Q 2406 672 2156 595 
Q 1907 518 1641 416 
Q 1376 314 1117 195 
Q 858 77 627 -45 
Q 602 160 544 345 
Q 486 531 397 691 
Q 602 710 826 752 
Q 1050 794 1286 851 
L 1286 2995 
Q 1062 2995 873 2985 
Q 685 2976 557 2957 
L 557 3514 
Q 691 3494 876 3484 
Q 1062 3475 1286 3469 
Q 1286 3808 1283 4048 
Q 1280 4288 1277 4454 
Q 1274 4621 1264 4733 
Q 1254 4845 1248 4934 
Q 1395 4915 1555 4908 
Q 1715 4902 1882 4909 
Q 1958 4909 1968 4877 
Q 1978 4845 1907 4806 
Q 1862 4781 1843 4739 
Q 1824 4698 1824 4646 
L 1824 3469 
Q 2061 3475 2240 3484 
Q 2419 3494 2566 3514 
L 2566 2957 
Q 2426 2976 2246 2985 
Q 2067 2995 1824 3002 
L 1824 998 
z
" transform="scale(0.015625)"/>
      </defs>
      <use xlink:href="#STHeitiTC-Medium-541e"/>
      <use xlink:href="#STHeitiTC-Medium-5410" transform="translate(99.999985 0)"/>
      <use xlink:href="#STHeitiTC-Medium-91cf" transform="translate(199.999969 0)"/>
      <use xlink:href="#STHeitiTC-Medium-20" transform="translate(299.999954 0)"/>
      <use xlink:href="#STHeitiTC-Medium-28" transform="translate(324.999939 0)"/>
      <use xlink:href="#STHeitiTC-Medium-35" transform="translate(361.899933 0)"/>
      <use xlink:href="#STHeitiTC-Medium-79d2" transform="translate(417.299927 0)"/>
      <use xlink:href="#STHeitiTC-Medium-6ed1" transform="translate(517.299911 0)"/>
      <use xlink:href="#STHeitiTC-Medium-52a8" transform="translate(617.299896 0)"/>
      <use xlink:href="#STHeitiTC-Medium-5e73" transform="translate(717.299881 0)"/>
      <use xlink:href="#STHeitiTC-Medium-5747" transform="translate(817.299866 0)"/>
      <use xlink:href="#STHeitiTC-Medium-29" transform="translate(917.29985 0)"/>
     </g>
    </g>
    <g id="line2d_26">
     <path d="M 60.05 302.652188 
L 70.05 302.652188 
L 80.05 302.652188 
" style="fill: none; stroke-dasharray: 5.55,2.4; stroke-dashoffset: 0; stroke: #ff0000; stroke-width: 1.5"/>
    </g>
    <g id="text_15">
     <!-- 整体平均吞吐量 (95.80 次/s) -->
     <g transform="translate(88.05 306.152188) scale(0.1 -0.1)">
      <defs>
       <path id="STHeitiTC-Medium-6574" d="M 2982 1875 
Q 2854 2022 2691 2160 
Q 2528 2298 2368 2394 
L 2675 2643 
Q 2822 2534 2982 2412 
Q 3142 2291 3296 2163 
L 2982 1875 
z
M 2227 3072 
L 2918 3072 
L 2918 3494 
L 2227 3494 
L 2227 3072 
z
M 1824 3494 
L 1120 3494 
L 1120 3072 
L 1824 3072 
L 1824 3494 
z
M 1824 2746 
Q 1581 2304 1318 2038 
Q 1056 1773 755 1587 
Q 653 1709 579 1763 
Q 506 1818 358 1875 
Q 704 2022 982 2246 
Q 1261 2470 1466 2771 
Q 1222 2771 1043 2771 
Q 864 2771 691 2758 
Q 730 2957 730 3251 
Q 730 3411 720 3561 
Q 710 3712 691 3821 
Q 806 3814 924 3808 
Q 1043 3802 1177 3798 
Q 1312 3795 1469 3795 
Q 1626 3795 1824 3795 
L 1824 4186 
Q 1382 4186 1081 4176 
Q 781 4166 538 4141 
L 538 4589 
Q 800 4557 1094 4547 
Q 1389 4538 1824 4538 
Q 1824 4800 1814 4915 
Q 1805 5030 1779 5120 
Q 2048 5082 2234 5101 
Q 2342 5114 2352 5088 
Q 2362 5062 2298 4992 
Q 2266 4960 2246 4838 
Q 2227 4717 2227 4538 
Q 2630 4538 2912 4547 
Q 3194 4557 3430 4576 
L 3430 4141 
Q 3194 4160 2912 4169 
Q 2630 4179 2227 4186 
L 2227 3795 
Q 2611 3795 2864 3801 
Q 3117 3808 3347 3821 
Q 3334 3712 3328 3565 
Q 3322 3418 3322 3251 
Q 3322 3104 3328 2973 
Q 3334 2842 3347 2746 
Q 3123 2758 2867 2764 
Q 2611 2771 2227 2771 
Q 2227 2483 2240 2268 
Q 2253 2054 2285 1875 
L 1766 1875 
Q 1798 2048 1811 2259 
Q 1824 2470 1824 2746 
z
M 4653 2445 
Q 4454 2259 4217 2118 
Q 3981 1978 3706 1856 
Q 3661 1958 3581 2054 
Q 3501 2150 3392 2221 
Q 3987 2432 4346 2733 
Q 4224 2874 4121 3037 
Q 4019 3200 3942 3386 
L 4307 3539 
Q 4429 3238 4614 3014 
Q 4922 3418 5005 3987 
L 4218 3987 
Q 4109 3750 3987 3552 
Q 3866 3354 3731 3162 
Q 3565 3290 3379 3334 
Q 3533 3558 3648 3763 
Q 3763 3968 3846 4179 
Q 3930 4390 3987 4620 
Q 4045 4851 4083 5126 
Q 4230 5075 4368 5040 
Q 4506 5005 4621 4992 
Q 4691 4979 4694 4953 
Q 4698 4928 4614 4858 
Q 4582 4832 4534 4739 
Q 4486 4646 4384 4384 
L 5210 4384 
Q 5478 4384 5651 4393 
Q 5824 4403 5933 4422 
L 5933 3962 
Q 5837 3974 5741 3977 
Q 5645 3981 5478 3987 
Q 5389 3590 5254 3289 
Q 5120 2989 4934 2746 
Q 5139 2618 5404 2534 
Q 5670 2451 6035 2394 
Q 5907 2291 5843 2169 
Q 5779 2048 5728 1875 
Q 5434 1978 5162 2118 
Q 4890 2259 4653 2445 
z
M 3418 13 
Q 3846 13 4198 16 
Q 4550 19 4851 25 
Q 5152 32 5411 41 
Q 5670 51 5907 64 
L 5907 -461 
Q 5658 -448 5382 -438 
Q 5107 -429 4784 -422 
Q 4461 -416 4073 -413 
Q 3686 -410 3219 -410 
Q 2746 -410 2362 -413 
Q 1978 -416 1654 -422 
Q 1331 -429 1056 -438 
Q 781 -448 531 -461 
L 531 64 
Q 774 51 1043 44 
Q 1312 38 1619 26 
L 1619 410 
Q 1619 582 1609 752 
Q 1600 922 1581 1024 
Q 1715 998 1872 992 
Q 2029 986 2106 992 
Q 2253 998 2150 896 
Q 2106 851 2090 755 
Q 2074 659 2074 550 
L 2074 13 
L 2957 13 
L 2957 1338 
Q 2650 1338 2390 1331 
Q 2131 1325 1907 1321 
Q 1683 1318 1491 1308 
Q 1299 1299 1120 1286 
L 1120 1754 
Q 1318 1741 1532 1731 
Q 1747 1722 2000 1718 
Q 2253 1715 2553 1712 
Q 2854 1709 3226 1709 
Q 3597 1709 3897 1712 
Q 4198 1715 4448 1721 
Q 4698 1728 4912 1734 
Q 5126 1741 5325 1754 
L 5325 1286 
Q 5139 1299 4940 1308 
Q 4742 1318 4512 1324 
Q 4282 1331 4013 1334 
Q 3744 1338 3418 1338 
L 3418 902 
Q 3808 902 4077 902 
Q 4346 902 4547 905 
Q 4749 909 4902 912 
Q 5056 915 5216 928 
L 5216 499 
Q 5069 506 4915 512 
Q 4762 518 4560 521 
Q 4358 525 4083 528 
Q 3808 531 3418 531 
L 3418 13 
z
" transform="scale(0.015625)"/>
       <path id="STHeitiTC-Medium-4f53" d="M 1069 2810 
Q 947 2573 828 2358 
Q 710 2144 582 1920 
Q 416 2157 186 2336 
Q 454 2630 678 3043 
Q 902 3456 1043 3904 
Q 1152 4243 1232 4566 
Q 1312 4890 1357 5133 
Q 1523 5069 1712 5017 
Q 1901 4966 2029 4941 
Q 2176 4915 2035 4800 
Q 2016 4787 1984 4732 
Q 1952 4678 1894 4572 
Q 1837 4467 1753 4297 
Q 1670 4128 1562 3885 
L 1562 -685 
L 992 -685 
Q 1024 -352 1046 -13 
Q 1069 326 1069 672 
L 1069 2810 
z
M 3469 3475 
Q 3424 3008 3321 2595 
Q 3219 2182 3049 1798 
Q 2880 1414 2640 1046 
Q 2400 678 2074 307 
Q 1901 563 1677 749 
Q 2195 1216 2553 1897 
Q 2912 2579 3078 3469 
Q 2739 3462 2464 3449 
Q 2189 3437 1952 3418 
L 1952 3974 
Q 2278 3949 2688 3936 
Q 3098 3923 3654 3917 
Q 3654 4192 3651 4387 
Q 3648 4582 3641 4729 
Q 3635 4877 3625 4989 
Q 3616 5101 3597 5210 
Q 3731 5184 3888 5174 
Q 4045 5165 4173 5171 
Q 4378 5184 4211 5043 
Q 4166 5011 4150 4947 
Q 4134 4883 4134 4819 
L 4134 3917 
Q 4730 3917 5165 3929 
Q 5600 3942 5939 3974 
L 5939 3418 
Q 5651 3443 5302 3456 
Q 4954 3469 4499 3475 
Q 4589 3072 4745 2678 
Q 4902 2285 5088 2010 
Q 5312 1683 5597 1427 
Q 5882 1171 6208 1005 
Q 5965 755 5773 397 
Q 5402 723 5098 1084 
Q 4794 1446 4646 1766 
Q 4486 2112 4374 2544 
Q 4262 2976 4192 3475 
L 4134 3475 
L 4134 966 
Q 4390 973 4595 982 
Q 4800 992 4947 1018 
L 4947 499 
Q 4800 518 4595 531 
Q 4390 544 4134 550 
Q 4141 262 4157 -29 
Q 4173 -320 4205 -627 
L 3584 -627 
Q 3616 -320 3632 -29 
Q 3648 262 3654 550 
Q 3354 544 3120 531 
Q 2886 518 2720 499 
L 2720 1018 
Q 2886 992 3120 982 
Q 3354 973 3654 966 
L 3654 3475 
L 3469 3475 
z
" transform="scale(0.015625)"/>
       <path id="STHeitiTC-Medium-39" d="M 1984 2355 
Q 1798 2310 1613 2310 
Q 1043 2310 656 2716 
Q 269 3123 269 3737 
Q 269 4352 697 4768 
Q 1126 5184 1747 5184 
Q 2368 5184 2777 4758 
Q 3187 4333 3187 3738 
Q 3187 3411 3052 3081 
Q 2918 2752 2662 2368 
L 1248 250 
L 787 544 
L 1984 2355 
z
M 1728 2803 
Q 2112 2803 2381 3075 
Q 2650 3347 2650 3724 
Q 2650 4102 2381 4374 
Q 2112 4646 1728 4646 
Q 1344 4646 1075 4377 
Q 806 4109 806 3725 
Q 806 3341 1075 3072 
Q 1344 2803 1728 2803 
z
" transform="scale(0.015625)"/>
       <path id="STHeitiTC-Medium-2e" d="M 966 1478 
Q 1146 1478 1270 1353 
Q 1395 1229 1395 1046 
Q 1395 864 1270 739 
Q 1146 614 970 614 
Q 794 614 666 742 
Q 538 870 538 1049 
Q 538 1229 666 1353 
Q 794 1478 966 1478 
z
" transform="scale(0.015625)"/>
      </defs>
      <use xlink:href="#STHeitiTC-Medium-6574"/>
      <use xlink:href="#STHeitiTC-Medium-4f53" transform="translate(99.999985 0)"/>
      <use xlink:href="#STHeitiTC-Medium-5e73" transform="translate(199.999969 0)"/>
      <use xlink:href="#STHeitiTC-Medium-5747" transform="translate(299.999954 0)"/>
      <use xlink:href="#STHeitiTC-Medium-541e" transform="translate(399.999939 0)"/>
      <use xlink:href="#STHeitiTC-Medium-5410" transform="translate(499.999924 0)"/>
      <use xlink:href="#STHeitiTC-Medium-91cf" transform="translate(599.999908 0)"/>
      <use xlink:href="#STHeitiTC-Medium-20" transform="translate(699.999893 0)"/>
      <use xlink:href="#STHeitiTC-Medium-28" transform="translate(724.999878 0)"/>
      <use xlink:href="#STHeitiTC-Medium-39" transform="translate(761.899872 0)"/>
      <use xlink:href="#STHeitiTC-Medium-35" transform="translate(817.299866 0)"/>
      <use xlink:href="#STHeitiTC-Medium-2e" transform="translate(872.69986 0)"/>
      <use xlink:href="#STHeitiTC-Medium-38" transform="translate(900.399857 0)"/>
      <use xlink:href="#STHeitiTC-Medium-30" transform="translate(955.79985 0)"/>
      <use xlink:href="#STHeitiTC-Medium-20" transform="translate(1011.199844 0)"/>
      <use xlink:href="#STHeitiTC-Medium-6b21" transform="translate(1036.199829 0)"/>
      <use xlink:href="#STHeitiTC-Medium-2f" transform="translate(1136.199814 0)"/>
      <use xlink:href="#STHeitiTC-Medium-73" transform="translate(1179.899811 0)"/>
      <use xlink:href="#STHeitiTC-Medium-29" transform="translate(1218.699799 0)"/>
     </g>
    </g>
   </g>
  </g>
 </g>
 <defs>
  <clipPath id="pbef0c5795c">
   <rect x="51.05" y="10.8" width="658.15" height="305.681875"/>
  </clipPath>
 </defs>
</svg>
